<?xml version="1.0" standalone="no"?>
<!DOCTYPE svg PUBLIC "-//W3C//DTD SVG 20010904//EN"
 "http://www.w3.org/TR/2001/REC-SVG-20010904/DTD/svg10.dtd">
<svg version="1.0" xmlns="http://www.w3.org/2000/svg"
 width="959.000000pt" height="959.000000pt" viewBox="0 0 959.000000 959.000000"
 preserveAspectRatio="xMidYMid meet">
<metadata>
Created by potrace 1.11, written by Peter Selinger 2001-2013
</metadata>
<g transform="translate(0.000000,959.000000) scale(0.100000,-0.100000)"
fill="#000000" stroke="none">
<path d="M3682 6797 c-125 -46 -186 -198 -128 -323 76 -164 303 -179 409 -27
37 52 48 156 23 215 -22 51 -71 105 -117 129 -44 22 -134 25 -187 6z"/>
<path d="M5255 6791 c-117 -54 -173 -207 -117 -317 62 -122 201 -168 323 -106
169 85 169 331 -1 417 -61 31 -146 34 -205 6z"/>
<path d="M2756 6206 c-18 -18 -37 -51 -44 -73 -18 -59 -15 -339 4 -447 16 -93
91 -296 146 -395 102 -184 237 -339 393 -450 39 -28 75 -54 80 -58 6 -4 33
-23 60 -42 28 -19 79 -58 115 -87 101 -81 262 -176 354 -210 62 -22 219 -63
401 -105 96 -22 121 -24 592 -27 l492 -3 106 25 c110 27 286 97 362 144 141
87 229 161 452 378 133 130 261 264 285 298 67 94 162 282 186 371 12 44 33
147 46 230 13 82 26 167 30 188 8 44 -12 142 -33 159 -23 19 -74 11 -101 -16
-27 -26 -33 -55 -67 -291 -26 -178 -53 -270 -113 -385 -77 -147 -83 -155 -237
-311 -406 -412 -568 -525 -855 -595 -91 -23 -110 -23 -503 -24 -238 0 -438 4
-480 11 -172 25 -489 104 -557 139 -81 41 -204 121 -240 155 -19 18 -89 70
-155 116 -266 183 -330 249 -455 469 -45 78 -116 256 -130 325 -6 28 -13 120
-17 205 -5 146 -5 158 16 197 27 55 27 84 -4 117 -36 39 -88 36 -129 -8z"/>
<path d="M4175 3148 c-16 -51 -24 -123 -15 -132 12 -12 27 1 32 29 3 18 12 20
93 23 50 1 96 5 104 8 32 11 -9 23 -94 26 -90 3 -90 3 -93 31 -3 28 -19 37
-27 15z"/>
<path d="M4785 3125 c-12 -26 -23 -37 -45 -42 -35 -7 -38 -15 -9 -35 20 -13
21 -17 10 -69 -15 -69 -8 -87 35 -95 33 -6 35 -9 32 -42 -3 -31 -7 -37 -35
-44 -44 -11 -47 -43 -4 -35 34 7 48 -5 53 -48 5 -45 23 -36 26 13 3 35 8 45
28 52 30 12 31 28 2 32 -14 2 -26 14 -32 31 -9 25 -7 31 19 52 l30 23 -27 7
c-18 5 -28 14 -28 26 0 28 -27 23 -34 -6 -4 -14 -13 -25 -21 -25 -18 0 -20 43
-4 87 9 27 15 31 60 35 76 8 81 26 12 37 -35 6 -38 9 -35 38 4 46 -16 51 -33
8z"/>
<path d="M6736 3151 c-22 -3 -41 -12 -44 -18 -5 -17 104 -18 114 -2 6 10 -13
31 -26 27 -3 0 -23 -4 -44 -7z"/>
<path d="M6947 3143 c-4 -3 -7 -16 -7 -29 0 -43 -10 -54 -42 -47 -23 5 -30 3
-26 -8 2 -7 15 -16 29 -19 26 -7 27 -11 14 -97 -6 -45 -5 -53 9 -53 8 0 18 10
21 23 12 53 34 221 29 229 -6 10 -18 10 -27 1z"/>
<path d="M3440 3127 c0 -16 32 -47 48 -47 18 0 14 25 -6 43 -22 20 -42 22 -42
4z"/>
<path d="M6127 3131 c-94 -7 -106 -25 -19 -29 51 -2 62 -6 62 -20 0 -12 -16
-25 -45 -37 -46 -18 -46 -18 -43 -64 2 -33 7 -46 18 -46 12 0 14 10 12 48 -3
41 -1 47 15 47 27 0 51 -21 58 -52 6 -22 3 -27 -16 -30 -35 -5 -36 -28 0 -28
16 0 33 -5 36 -10 11 -17 -15 -40 -45 -40 -47 0 -91 -12 -87 -24 2 -6 23 -13
48 -16 40 -5 44 -7 41 -30 -3 -17 4 -31 23 -46 34 -27 29 -47 -20 -75 -19 -12
-35 -25 -35 -30 0 -23 54 -1 100 40 29 27 39 30 65 24 81 -19 118 3 41 25 -38
11 -46 17 -40 30 4 9 7 28 8 42 1 23 6 25 55 30 31 3 56 10 59 18 3 9 -18 12
-80 12 -47 0 -88 3 -91 6 -15 15 15 44 45 44 38 0 107 30 108 47 0 31 -23 65
-54 78 -32 14 -53 40 -38 49 4 2 26 7 50 11 26 4 42 12 42 21 0 15 -106 17
-273 5z m143 -51 c0 -16 -7 -20 -30 -20 -23 0 -30 4 -30 20 0 16 7 20 30 20
23 0 30 -4 30 -20z m1 -76 c9 -25 10 -26 29 -9 25 23 54 16 58 -15 3 -25 1
-25 -73 -28 l-77 -2 7 32 c4 18 9 36 12 41 10 16 34 5 44 -19z m14 -174 c11
-18 -28 -60 -55 -57 -31 3 -39 35 -14 54 21 15 60 17 69 3z"/>
<path d="M3006 3065 c-29 -72 -33 -99 -13 -93 17 6 45 66 53 116 10 63 -10 52
-40 -23z"/>
<path d="M3615 3122 c-19 -19 7 -26 148 -37 66 -6 77 -4 77 9 0 9 -10 18 -22
20 -34 7 -197 13 -203 8z"/>
<path d="M4982 3120 c2 -8 20 -19 39 -25 25 -9 35 -18 37 -37 2 -20 -11 -37
-67 -88 -39 -35 -71 -67 -71 -72 0 -25 45 1 108 63 80 80 92 116 50 143 -34
21 -102 32 -96 16z"/>
<path d="M2849 3062 c-36 -31 -74 -62 -84 -68 -11 -6 -15 -15 -11 -22 11 -18
74 20 132 79 72 73 44 81 -37 11z"/>
<path d="M5551 3101 c-73 -4 -106 -10 -109 -19 -3 -10 21 -13 113 -11 123 1
163 7 167 24 4 12 -34 13 -171 6z"/>
<path d="M6741 3088 c-7 -18 -18 -28 -37 -30 -35 -4 -45 -28 -11 -28 34 0 45
-17 53 -83 5 -38 11 -57 20 -57 10 0 14 13 14 40 0 43 2 45 31 30 11 -6 24 -8
30 -5 16 11 -10 35 -38 35 -35 0 -27 34 10 38 34 4 37 32 3 32 -15 0 -32 11
-44 28 l-21 27 -10 -27z"/>
<path d="M7001 3064 c-15 -34 0 -52 23 -28 18 17 18 45 0 51 -6 2 -16 -9 -23
-23z"/>
<path d="M3070 3047 c0 -11 14 -18 48 -23 69 -10 91 -21 102 -49 11 -28 28
-33 37 -9 8 22 -16 61 -46 73 -14 5 -52 13 -83 17 -49 5 -58 4 -58 -9z"/>
<path d="M3651 2977 c-61 -82 -72 -107 -48 -107 12 0 120 141 125 164 9 40
-23 17 -77 -57z"/>
<path d="M5537 2993 c-17 -27 -55 -71 -83 -100 -51 -50 -56 -63 -26 -63 29 0
162 160 162 194 0 29 -20 17 -53 -31z"/>
<path d="M4284 2996 c-4 -19 -13 -26 -37 -28 -27 -3 -32 -7 -35 -33 -8 -91
-10 -95 -52 -95 -29 0 -40 -4 -40 -15 0 -12 15 -15 78 -15 47 0 83 -5 90 -12
7 -7 12 -33 12 -59 0 -44 13 -70 27 -55 4 3 5 32 4 65 l-2 59 58 6 c72 9 93
15 93 27 0 5 -33 9 -74 9 l-74 0 -4 30 c-6 37 1 47 31 51 38 6 37 27 -3 34
-25 5 -36 13 -38 28 -4 30 -26 32 -34 3z m1 -111 c0 -33 -3 -40 -20 -40 -16 0
-21 8 -23 43 -3 40 -2 43 20 40 20 -3 23 -9 23 -43z"/>
<path d="M6696 2998 c-14 -45 -24 -103 -20 -110 10 -17 32 13 43 58 6 25 9 49
6 55 -9 13 -25 11 -29 -3z"/>
<path d="M5107 2973 c-9 -9 33 -53 50 -53 17 0 16 5 -3 35 -16 25 -34 31 -47
18z"/>
<path d="M6970 2960 c0 -13 71 -60 92 -60 29 0 20 18 -22 45 -41 26 -70 32
-70 15z"/>
<path d="M3447 2952 c-28 -12 -21 -26 15 -32 l33 -5 3 -95 c2 -107 12 -135 53
-149 47 -16 310 16 325 40 12 20 -5 20 -110 5 -120 -18 -194 -20 -216 -6 -11
7 -16 37 -20 119 -3 60 -7 112 -10 114 -10 11 -56 16 -73 9z"/>
<path d="M3105 2940 c-3 -6 -3 -53 1 -105 8 -106 -1 -129 -42 -119 -26 7 -31
-5 -12 -24 22 -22 64 -14 76 13 12 27 17 201 6 229 -7 18 -20 21 -29 6z"/>
<path d="M3710 2846 c0 -80 3 -96 15 -96 13 0 15 15 13 92 -2 62 -7 93 -15 96
-10 3 -13 -20 -13 -92z"/>
<path d="M3796 2901 c-10 -15 54 -45 67 -32 7 7 7 14 2 20 -16 15 -62 24 -69
12z"/>
<path d="M5587 2904 c-11 -11 -8 -202 3 -209 17 -11 25 26 24 113 0 76 -11
112 -27 96z"/>
<path d="M5660 2900 c0 -11 73 -50 95 -50 27 0 16 19 -25 40 -42 22 -70 26
-70 10z"/>
<path d="M2862 2806 c3 -99 18 -128 30 -58 8 51 -4 144 -20 150 -10 3 -12 -17
-10 -92z"/>
<path d="M5001 2881 c-18 -11 -5 -31 20 -31 14 0 19 -7 19 -28 0 -15 4 -41 9
-59 10 -35 1 -43 -50 -43 -19 0 -29 -5 -29 -15 0 -17 37 -19 139 -9 41 5 61
11 61 20 0 10 -14 14 -45 14 l-45 0 0 59 c0 51 3 59 21 64 12 3 19 12 17 19
-5 15 -96 23 -117 9z"/>
<path d="M6845 2881 c-9 -15 37 -43 50 -30 7 7 4 15 -9 25 -23 16 -33 18 -41
5z"/>
<path d="M2974 2829 c-24 -46 -2 -62 25 -18 25 40 26 49 6 49 -8 0 -22 -14
-31 -31z"/>
<path d="M3200 2832 c0 -15 24 -32 47 -32 28 0 30 16 4 30 -23 12 -51 13 -51
2z"/>
<path d="M6790 2800 c0 -32 110 -140 142 -140 31 0 58 24 58 51 0 25 -22 24
-38 -1 -11 -19 -14 -19 -41 -5 -16 8 -45 37 -66 65 -39 54 -55 62 -55 30z"/>
<path d="M7007 2803 c-6 -11 9 -49 22 -58 17 -10 24 20 11 44 -11 21 -25 27
-33 14z"/>
<path d="M6685 2770 c-19 -36 -19 -40 -1 -40 16 0 46 37 46 57 0 24 -29 13
-45 -17z"/>
<path d="M6258 2558 c0 -12 0 -33 1 -45 1 -20 -3 -22 -61 -25 -48 -2 -63 -7
-63 -18 0 -10 12 -16 38 -18 29 -3 37 -7 37 -22 0 -11 -12 -26 -26 -33 -17 -9
-23 -17 -15 -21 6 -4 11 -16 11 -26 0 -23 -36 -35 -84 -27 -33 5 -66 -6 -54
-19 4 -3 27 -9 53 -11 25 -3 45 -10 45 -16 0 -5 -11 -25 -25 -43 -27 -35 -32
-54 -15 -54 12 0 41 30 78 79 23 30 24 30 129 33 74 2 108 7 111 16 3 9 -19
12 -85 12 -48 0 -94 4 -102 9 -18 12 -5 31 22 31 12 0 29 5 37 10 13 9 13 11
0 20 -8 5 -20 10 -26 10 -17 0 -26 31 -13 46 6 7 22 14 36 16 36 4 42 28 8 28
-22 0 -26 3 -20 18 5 9 8 28 9 41 1 31 -23 40 -26 9z"/>
<path d="M5432 2549 c-32 -79 -40 -109 -31 -115 13 -7 39 14 39 32 0 10 16 14
60 14 85 0 79 22 -10 32 -16 2 -26 10 -28 23 -6 33 -20 40 -30 14z"/>
<path d="M5595 2548 c-3 -7 -6 -31 -8 -52 -2 -42 17 -61 28 -27 5 16 15 19 59
19 30 0 59 3 65 6 23 15 -2 26 -55 26 -47 0 -54 2 -54 20 0 22 -28 28 -35 8z"/>
<path d="M6140 2550 c0 -6 10 -15 23 -19 27 -11 49 5 27 19 -20 13 -50 13 -50
0z"/>
<path d="M2945 2528 c-3 -13 -4 -36 -3 -53 3 -27 0 -30 -29 -33 -18 -2 -33 -9
-33 -16 0 -6 15 -16 33 -21 29 -9 32 -14 35 -51 l3 -41 -66 -5 c-36 -3 -69 -9
-73 -12 -13 -14 24 -26 79 -26 43 0 58 -4 63 -16 3 -9 6 -58 6 -110 0 -77 3
-94 15 -94 12 0 15 19 15 110 0 123 -5 117 88 122 62 4 52 23 -15 26 -65 3
-70 6 -77 44 -5 29 7 44 39 50 29 5 21 21 -14 31 -28 7 -31 11 -31 46 0 65
-23 98 -35 49z"/>
<path d="M3600 2510 c0 -42 -5 -46 -56 -41 -12 1 -27 -5 -34 -14 -14 -17 -5
-23 50 -27 35 -3 35 -4 40 -57 7 -70 -4 -81 -82 -81 -43 0 -59 -3 -55 -12 2
-8 25 -13 59 -14 90 -2 88 1 88 -114 0 -82 3 -100 15 -100 16 0 19 17 15 117
-3 90 8 103 80 103 47 0 60 3 60 15 0 12 -14 15 -65 15 -70 0 -70 -1 -79 62
-6 45 15 72 48 64 12 -3 28 -1 36 4 13 9 13 11 0 20 -8 5 -26 10 -40 10 -35 0
-50 17 -50 57 0 23 -5 33 -15 33 -11 0 -15 -11 -15 -40z"/>
<path d="M6856 2538 c-3 -7 -6 -22 -8 -33 -3 -16 -13 -21 -51 -25 -62 -7 -65
-24 -5 -30 56 -7 58 -9 61 -46 l2 -29 -83 -5 c-91 -6 -108 -21 -35 -33 47 -7
290 1 306 10 21 13 -12 23 -78 23 -41 0 -76 4 -79 9 -4 5 -2 21 4 35 8 21 16
26 45 26 24 0 35 5 35 15 0 10 -10 15 -33 15 -39 0 -57 15 -57 46 0 26 -18 42
-24 22z"/>
<path d="M4090 2507 c0 -17 38 -52 47 -44 10 11 -15 57 -32 57 -8 0 -15 -6
-15 -13z"/>
<path d="M4838 2513 c-69 -3 -88 -7 -88 -18 0 -12 15 -15 65 -15 57 0 65 -2
65 -19 0 -10 -9 -21 -20 -24 -26 -7 -26 -24 0 -32 11 -4 27 -20 35 -36 14 -26
14 -30 0 -34 -8 -3 -22 -7 -31 -10 -22 -7 -7 -25 21 -25 13 0 27 -5 30 -10 13
-21 -16 -38 -76 -44 -71 -8 -76 -29 -7 -34 42 -3 45 -5 45 -33 0 -19 7 -35 21
-45 32 -22 27 -40 -18 -70 -43 -29 -51 -44 -22 -44 19 0 54 21 92 56 25 23 29
23 83 12 87 -18 91 8 5 32 -38 11 -47 23 -28 35 13 8 13 45 1 45 -5 0 -18 -12
-29 -26 -15 -22 -24 -26 -45 -20 -32 8 -37 40 -9 55 10 5 55 10 100 10 46 0
87 3 93 6 26 17 1 25 -74 25 -46 0 -87 3 -90 6 -14 14 15 44 41 44 49 0 107
26 110 50 5 29 -23 68 -54 76 -14 4 -29 16 -34 28 -7 19 -3 22 42 31 119 24
13 37 -224 28z m152 -42 c0 -17 -32 -42 -47 -37 -8 3 -17 6 -19 6 -2 0 -4 9
-4 20 0 16 7 20 35 20 19 0 35 -4 35 -9z m-10 -85 c0 -26 22 -30 39 -7 14 18
19 20 33 9 9 -7 18 -21 20 -31 3 -15 -7 -18 -69 -22 -40 -2 -75 0 -77 3 -2 4
-2 19 1 35 4 20 11 27 29 27 14 0 24 -6 24 -14z"/>
<path d="M4254 2499 c-9 -16 33 -26 128 -32 93 -5 124 2 102 23 -12 10 -223
19 -230 9z"/>
<path d="M5674 2447 c-8 -22 11 -46 26 -31 7 7 5 17 -4 30 -14 18 -15 18 -22
1z"/>
<path d="M4346 2423 c-46 -57 -116 -155 -116 -164 0 -5 6 -9 14 -9 14 0 117
129 129 162 9 25 -10 32 -27 11z"/>
<path d="M5470 2432 c0 -5 6 -16 13 -27 18 -24 41 -11 27 16 -10 19 -40 27
-40 11z"/>
<path d="M4797 2414 c-9 -9 -9 -67 -1 -88 3 -9 13 -16 21 -16 11 0 14 11 11
52 -4 49 -15 67 -31 52z"/>
<path d="M3522 2364 c2 -15 9 -29 16 -32 10 -3 13 4 10 24 -2 15 -9 29 -16 32
-10 3 -13 -4 -10 -24z"/>
<path d="M3697 2362 c-22 -24 -21 -32 1 -32 21 0 42 18 42 37 0 19 -24 16 -43
-5z"/>
<path d="M5560 2373 c-46 -4 -74 -19 -65 -34 3 -4 29 -6 58 -3 96 9 117 15
117 29 0 15 -12 16 -110 8z"/>
<path d="M4084 2326 c-20 -16 -14 -21 31 -28 18 -3 20 -13 25 -105 4 -90 8
-105 28 -125 20 -21 31 -23 103 -21 44 1 115 9 157 18 99 20 108 23 95 36 -6
6 -46 4 -118 -6 -131 -18 -197 -19 -213 -3 -8 8 -12 47 -12 110 0 85 -3 101
-20 118 -24 24 -49 25 -76 6z"/>
<path d="M5584 2303 c-18 -61 -27 -68 -93 -71 -78 -4 -79 -26 -2 -30 l53 -3
-6 -31 c-3 -17 -20 -53 -36 -80 -34 -55 -37 -71 -13 -66 9 2 37 41 62 88 l46
85 75 5 c91 6 95 23 8 30 l-63 5 -3 43 c-3 43 -18 56 -28 25z"/>
<path d="M6879 2305 c0 -11 -1 -49 -2 -85 -2 -69 -1 -68 -59 -54 -46 11 -34
-21 15 -41 51 -21 201 -46 223 -38 31 12 5 28 -55 35 -91 10 -102 15 -92 41
12 33 3 129 -14 146 -13 14 -15 13 -16 -4z"/>
<path d="M4350 2233 c0 -84 12 -120 30 -93 11 17 13 112 4 148 -4 12 -13 22
-20 22 -11 0 -14 -18 -14 -77z"/>
<path d="M4442 2278 c6 -16 55 -34 65 -24 10 10 -26 36 -50 36 -10 0 -17 -5
-15 -12z"/>
<path d="M6247 2254 c-10 -11 3 -24 23 -24 31 0 50 -28 50 -75 0 -41 -2 -44
-26 -42 -15 1 -29 -4 -31 -10 -3 -9 6 -13 28 -13 19 0 37 -7 45 -17 8 -12 16
-15 22 -8 13 13 -9 157 -27 179 -13 16 -71 22 -84 10z"/>
<path d="M6948 2253 c-34 -9 -17 -23 27 -23 33 0 45 4 45 15 0 15 -33 19 -72
8z"/>
<path d="M6741 2218 c-17 -56 -24 -125 -12 -132 16 -11 33 33 39 101 5 69 -9
86 -27 31z"/>
<path d="M6193 2204 c-6 -16 3 -143 11 -151 21 -22 38 104 20 151 -8 20 -23
20 -31 0z"/>
<path d="M2860 2183 c0 -10 -10 -46 -22 -80 -35 -96 -2 -101 34 -6 22 59 24
103 3 103 -8 0 -15 -8 -15 -17z"/>
<path d="M3510 2185 c0 -9 -9 -41 -20 -72 -24 -68 -24 -73 -6 -73 15 0 56 99
56 136 0 15 -6 24 -15 24 -8 0 -15 -7 -15 -15z"/>
<path d="M3716 2173 c-3 -4 -6 -10 -6 -15 0 -11 99 -58 123 -58 28 0 20 29
-10 36 -16 4 -37 12 -48 18 -30 18 -52 25 -59 19z"/>
<path d="M6240 2171 c0 -15 16 -22 34 -15 25 9 19 24 -9 24 -14 0 -25 -4 -25
-9z"/>
<path d="M3062 2158 c6 -19 90 -59 116 -56 39 5 29 18 -33 43 -67 28 -88 31
-83 13z"/>
<path d="M5640 2116 c0 -19 88 -76 117 -76 13 0 23 2 23 4 0 7 -121 86 -131
86 -5 0 -9 -6 -9 -14z"/>
<path d="M6250 2040 c0 -14 50 -32 69 -25 14 6 13 8 -3 21 -23 16 -66 19 -66
4z"/>
</g>
</svg>
