<svg version="1.1" xmlns="http://www.w3.org/2000/svg" viewBox="0 0 1285 212" width="1285" height="212">
  <!-- svg-source:excalidraw -->
  
  <defs>
    <style class="style-fonts">
      @font-face {
        font-family: "Virgil";
        src: url("https://excalidraw.com/Virgil.woff2");
      }
      @font-face {
        font-family: "Cascadia";
        src: url("https://excalidraw.com/Cascadia.woff2");
      }
    </style>
  </defs>
  <rect x="0" y="0" width="1285" height="212" fill="#ffffff"></rect><g stroke-linecap="round" transform="translate(10 10) rotate(0 61 39)"><path d="M19.5 0 M19.5 0 C37.9 -0.21, 54.36 0.08, 102.5 0 M19.5 0 C42.68 -0.02, 67.19 0.6, 102.5 0 M102.5 0 C114.2 -0.38, 122.16 7.18, 122 19.5 M102.5 0 C117.76 2.09, 123.13 7.98, 122 19.5 M122 19.5 C123.18 33.15, 122.14 43.43, 122 58.5 M122 19.5 C122.5 31.99, 120.81 44.06, 122 58.5 M122 58.5 C122.68 69.71, 116.58 78.65, 102.5 78 M122 58.5 C120.25 70.45, 115.61 78.78, 102.5 78 M102.5 78 C75.93 78.96, 47.22 78.11, 19.5 78 M102.5 78 C71.33 77.19, 39.53 78.55, 19.5 78 M19.5 78 C6.67 78.16, -1.14 72.62, 0 58.5 M19.5 78 C8.11 75.97, -1.11 72.43, 0 58.5 M0 58.5 C1.92 44.11, -1.47 27.93, 0 19.5 M0 58.5 C-0.6 49.9, 0.06 41.11, 0 19.5 M0 19.5 C1.24 4.64, 7.03 -0.74, 19.5 0 M0 19.5 C1.48 8, 4.75 -1.02, 19.5 0" stroke="#000000" stroke-width="1" fill="none"></path></g><g transform="translate(47 36) rotate(0 24 13)"><text x="24" y="18" font-family="Virgil, Segoe UI Emoji" font-size="20px" fill="#000000" text-anchor="middle" style="white-space: pre;" direction="ltr">input</text></g><g stroke-linecap="round" transform="translate(374 114) rotate(0 61 39)"><path d="M19.5 0 M19.5 0 C39.7 -0.26, 63.75 -1.35, 102.5 0 M19.5 0 C38.5 0.74, 55.37 -0.15, 102.5 0 M102.5 0 C116.34 1.43, 121.41 5.38, 122 19.5 M102.5 0 C117.37 -0.52, 122.11 5.54, 122 19.5 M122 19.5 C123.38 27.63, 122.79 35.4, 122 58.5 M122 19.5 C122.29 26.85, 121.46 34.95, 122 58.5 M122 58.5 C120.94 71.18, 116.69 78.17, 102.5 78 M122 58.5 C121.03 70.88, 113.97 79.47, 102.5 78 M102.5 78 C72.07 78.6, 38.7 75.51, 19.5 78 M102.5 78 C74.15 79.13, 46.24 78.34, 19.5 78 M19.5 78 C7.18 78.05, 1.59 72.27, 0 58.5 M19.5 78 C6.64 76.23, 1.12 69.39, 0 58.5 M0 58.5 C0.81 46.24, 0.15 36.44, 0 19.5 M0 58.5 C-0.77 47.12, -0.19 35.52, 0 19.5 M0 19.5 C1.5 4.89, 5.41 -0.85, 19.5 0 M0 19.5 C-2.06 4.29, 5.02 0.95, 19.5 0" stroke="#000000" stroke-width="1" fill="none"></path></g><g transform="translate(402.5 140) rotate(0 32.5 13)"><text x="32.5" y="18" font-family="Virgil, Segoe UI Emoji" font-size="20px" fill="#000000" text-anchor="middle" style="white-space: pre;" direction="ltr">tokens</text></g><g stroke-linecap="round" transform="translate(761 121) rotate(0 61 39)"><path d="M19.5 0 M19.5 0 C49.33 -0.85, 77.53 0.89, 102.5 0 M19.5 0 C41.17 -0.65, 60.85 0.46, 102.5 0 M102.5 0 C115.05 0.1, 121.17 4.83, 122 19.5 M102.5 0 C113.44 2.19, 123.98 6.15, 122 19.5 M122 19.5 C120.66 31.57, 122.83 46.16, 122 58.5 M122 19.5 C121.68 30.56, 121.92 40.02, 122 58.5 M122 58.5 C121.46 70.17, 116.78 79.5, 102.5 78 M122 58.5 C119.76 69.87, 116.3 79.36, 102.5 78 M102.5 78 C82.89 79.02, 64.4 79.93, 19.5 78 M102.5 78 C83.87 79.08, 65.57 78.34, 19.5 78 M19.5 78 C4.97 78.98, -1.83 71.42, 0 58.5 M19.5 78 C5.98 76.73, 0.84 70.68, 0 58.5 M0 58.5 C-0.37 47.53, -1.81 35.49, 0 19.5 M0 58.5 C-0.98 47.11, -0.59 35.92, 0 19.5 M0 19.5 C-1.93 5.21, 7.32 -0.19, 19.5 0 M0 19.5 C-0.43 4.42, 5.47 -1.16, 19.5 0" stroke="#000000" stroke-width="1" fill="none"></path></g><g transform="translate(800.5 147) rotate(0 21.5 13)"><text x="21.5" y="18" font-family="Virgil, Segoe UI Emoji" font-size="20px" fill="#000000" text-anchor="middle" style="white-space: pre;" direction="ltr">AST</text></g><g stroke-linecap="round" transform="translate(1153 124) rotate(0 61 39)"><path d="M19.5 0 M19.5 0 C49.71 1.24, 84.49 -0.2, 102.5 0 M19.5 0 C39.8 -0.23, 59.16 -0.71, 102.5 0 M102.5 0 C117.4 1.73, 121.69 7.64, 122 19.5 M102.5 0 C114.37 -2.22, 120.68 4.37, 122 19.5 M122 19.5 C120.93 32.14, 121.45 48.09, 122 58.5 M122 19.5 C121.17 32.17, 122.59 42.57, 122 58.5 M122 58.5 C120.58 72.19, 116.68 76.45, 102.5 78 M122 58.5 C119.82 72.29, 114.17 78.84, 102.5 78 M102.5 78 C82.64 78.06, 62.66 78.97, 19.5 78 M102.5 78 C74.88 76.45, 46.25 77.14, 19.5 78 M19.5 78 C5.4 78.73, -0.72 71.57, 0 58.5 M19.5 78 C7.67 78, -0.2 72.49, 0 58.5 M0 58.5 C0.75 51.43, -1.74 40.28, 0 19.5 M0 58.5 C-0.3 48.86, 0.25 38.22, 0 19.5 M0 19.5 C-1.81 5.61, 5.49 0.07, 19.5 0 M0 19.5 C1.15 8.03, 6.32 -0.55, 19.5 0" stroke="#000000" stroke-width="1" fill="none"></path></g><g stroke-linecap="round"><g transform="translate(133 70.7942484995101) rotate(0 114.86268564127386 41.91140711958943)"><path d="M-0.7 0.36 C37.86 14.47, 191.8 70.56, 230.42 84.31 M1.14 -0.49 C39.57 13.31, 190.98 68.57, 229.17 82.63" stroke="#000000" stroke-width="1" fill="none"></path></g><g transform="translate(133 70.7942484995101) rotate(0 114.86268564127386 41.91140711958943)"><path d="M199.78 81.61 C207.24 82.83, 211.5 82.91, 230.19 84.38 M198.42 81.77 C210.99 83.11, 221.94 82.19, 228.36 83.37" stroke="#000000" stroke-width="1" fill="none"></path></g><g transform="translate(133 70.7942484995101) rotate(0 114.86268564127386 41.91140711958943)"><path d="M206.83 62.34 C212.67 67.81, 215.36 72.19, 230.19 84.38 M205.47 62.5 C215.48 71.05, 223.77 77.39, 228.36 83.37" stroke="#000000" stroke-width="1" fill="none"></path></g></g><mask></mask><g stroke-linecap="round"><g transform="translate(497 156.59075433022622) rotate(0 130.75617118738586 -1.6469133252901997)"><path d="M-0.93 0.48 C42.87 -0.02, 218.29 -3.38, 262.44 -3.77 M0.78 -0.32 C44.41 -0.61, 217.38 -2.11, 261.21 -2.65" stroke="#000000" stroke-width="1" fill="none"></path></g><g transform="translate(497 156.59075433022622) rotate(0 130.75617118738586 -1.6469133252901997)"><path d="M233.92 6.97 C239.4 6.93, 250.15 2.65, 263.19 -1.04 M234.05 7.64 C241.79 4, 251.72 2.21, 261.5 -3.36" stroke="#000000" stroke-width="1" fill="none"></path></g><g transform="translate(497 156.59075433022622) rotate(0 130.75617118738586 -1.6469133252901997)"><path d="M233.71 -13.55 C239.11 -8.08, 249.92 -6.85, 263.19 -1.04 M233.84 -12.88 C241.52 -9.97, 251.52 -5.22, 261.5 -3.36" stroke="#000000" stroke-width="1" fill="none"></path></g></g><mask></mask><g stroke-linecap="round"><g transform="translate(884 160.7718501101698) rotate(0 133.95196429911073 -0.1521336386383041)"><path d="M0.92 -0.95 C45.53 -1.32, 223.59 -1.35, 267.96 -1.47 M-0.06 1.16 C44.36 0.92, 222.05 0.25, 266.99 -0.04" stroke="#000000" stroke-width="1" fill="none"></path></g><g transform="translate(884 160.7718501101698) rotate(0 133.95196429911073 -0.1521336386383041)"><path d="M237.27 10.3 C247.6 5.33, 256.4 4.41, 268.85 -0.56 M239.25 11.19 C246.45 8.45, 251.99 5.9, 267.94 0.92" stroke="#000000" stroke-width="1" fill="none"></path></g><g transform="translate(884 160.7718501101698) rotate(0 133.95196429911073 -0.1521336386383041)"><path d="M237.17 -10.22 C247.65 -8.52, 256.49 -2.77, 268.85 -0.56 M239.14 -9.33 C246.43 -6.92, 251.99 -4.33, 267.94 0.92" stroke="#000000" stroke-width="1" fill="none"></path></g></g><mask></mask><g transform="translate(163 81) rotate(19.65382405805332 85.5 13)"><text x="0" y="18" font-family="Virgil, Segoe UI Emoji" font-size="20px" fill="#000000" text-anchor="start" style="white-space: pre;" direction="ltr">1 Lexical Analysis</text></g><g transform="translate(528 131) rotate(0 90 13)"><text x="0" y="18" font-family="Virgil, Segoe UI Emoji" font-size="20px" fill="#000000" text-anchor="start" style="white-space: pre;" direction="ltr">2 Syntax Analysis</text></g><g transform="translate(917 134) rotate(0 93.5 13)"><text x="0" y="18" font-family="Virgil, Segoe UI Emoji" font-size="20px" fill="#000000" text-anchor="start" style="white-space: pre;" direction="ltr">3 Code Generation</text></g></svg>