<svg version="1.1" xmlns="http://www.w3.org/2000/svg" viewBox="0 0 325.5442332085222 275" width="325.5442332085222" height="275">
  <!-- svg-source:excalidraw -->
  
  <defs>
    <style class="style-fonts">
      @font-face {
        font-family: "Virgil";
        src: url("https://excalidraw.com/Virgil.woff2");
      }
      @font-face {
        font-family: "Cascadia";
        src: url("https://excalidraw.com/Cascadia.woff2");
      }
    </style>
  </defs>
  <rect x="0" y="0" width="325.5442332085222" height="275" fill="#ffffff"></rect><g stroke-linecap="round" transform="translate(11.5442332085222 10) rotate(0 98.5 127.5)"><path d="M-1.09 1.52 C40.68 2.01, 85.79 3.27, 195.02 1.35 M0.6 0.08 C65 -0.47, 128.68 0.42, 197.64 0.29 M195.7 1.27 C200.08 78.17, 197.65 152.93, 198.26 254.64 M196.31 0.05 C196.87 56.64, 195.99 111.15, 197.48 255.31 M198.41 255.67 C135.98 253.6, 71.12 253.19, -1.34 253.31 M196.42 255.37 C122.4 255.03, 48.12 256.24, 0.79 255.06 M-1.57 253.75 C0.17 181.72, 0.67 111.91, 0.39 1.44 M-0.06 254.65 C1.43 188.27, 1.87 121.04, 0.56 0.31" stroke="#000000" stroke-width="1" fill="none"></path></g><g stroke-linecap="round"><g transform="translate(11.5442332085222 58) rotate(0 98.62041988410056 -0.3358105403276994)"><path d="M-1.54 -1.68 C42.87 0.84, 90.03 2.39, 198.79 -0.74 M-0.43 -0.18 C44.48 0.51, 88.34 0.84, 197.38 -0.27" stroke="#000000" stroke-width="1" fill="none"></path></g></g><mask></mask><g stroke-linecap="round"><g transform="translate(11.923813324421644 99.33581054032777) rotate(0 98.72287604492158 0.3101284231908039)"><path d="M-0.18 -0.49 C53.05 -2.11, 108.46 -1.42, 195.7 1.95 M-0.45 0.48 C64.52 1.5, 127.37 1.76, 197.9 0.42" stroke="#000000" stroke-width="1" fill="none"></path></g></g><mask></mask><g stroke-linecap="round"><g transform="translate(13.923813324421644 153.33581054032766) rotate(0 97.8918621186167 0.2782726839000418)"><path d="M-1.44 -0.15 C56.64 -0.85, 114.04 -0.31, 197.22 1.3 M0.59 -0.08 C70.22 -1.11, 139.14 -0.68, 196.41 -0.53" stroke="#000000" stroke-width="1" fill="none"></path></g></g><mask></mask><g stroke-linecap="round"><g transform="translate(9.923813324421644 205.33581054032766) rotate(0 99.15309793036431 0.40497212251648307)"><path d="M1.75 1.4 C50.18 1.38, 98.9 0.23, 197.49 0.71 M0.63 -0.03 C74.97 -0.1, 150.49 0.73, 197.68 -0.59" stroke="#000000" stroke-width="1" fill="none"></path></g></g><mask></mask><g transform="translate(64.5442332085222 26) rotate(0 47 13)"><text x="0" y="18" font-family="Virgil, Segoe UI Emoji" font-size="20px" fill="#000000" text-anchor="start" style="white-space: pre;" direction="ltr">EC stack</text></g><g stroke-linecap="round"><g transform="translate(92.5442332085222 37) rotate(0 0 0)"><path d="M0 0 C0 0, 0 0, 0 0 M0 0 C0 0, 0 0, 0 0" stroke="#000000" stroke-width="1" fill="none"></path></g><g transform="translate(92.5442332085222 37) rotate(0 0 0)"><path d="MNaN NaN CNaN NaN, NaN NaN, NaN NaN MNaN NaN CNaN NaN, NaN NaN, NaN NaN" stroke="#000000" stroke-width="1" fill="none"></path></g><g transform="translate(92.5442332085222 37) rotate(0 0 0)"><path d="MNaN NaN CNaN NaN, NaN NaN, NaN NaN MNaN NaN CNaN NaN, NaN NaN, NaN NaN" stroke="#000000" stroke-width="1" fill="none"></path></g></g><mask></mask><g transform="translate(63.5442332085222 67) rotate(0 49.5 13)"><text x="0" y="18" font-family="Virgil, Segoe UI Emoji" font-size="20px" fill="#000000" text-anchor="start" style="white-space: pre;" direction="ltr">Active EC</text></g><g transform="translate(98.0442332085222 115) rotate(0 9 13)"><text x="0" y="18" font-family="Virgil, Segoe UI Emoji" font-size="20px" fill="#000000" text-anchor="start" style="white-space: pre;" direction="ltr">...</text></g><g transform="translate(87.5442332085222 169) rotate(0 20.5 13)"><text x="0" y="18" font-family="Virgil, Segoe UI Emoji" font-size="20px" fill="#000000" text-anchor="start" style="white-space: pre;" direction="ltr">ECN</text></g><g transform="translate(61.0442332085222 223) rotate(0 49.5 13)"><text x="0" y="18" font-family="Virgil, Segoe UI Emoji" font-size="20px" fill="#000000" text-anchor="start" style="white-space: pre;" direction="ltr">Global EC</text></g><g stroke-linecap="round"><g transform="translate(259.5442332085222 79) rotate(0 -25.202363425400108 -1.1454494772478938)"><path d="M-0.73 -1.11 C-19.69 -1.02, -36.61 -1.62, -51.36 -1.69 M0.95 0.12 C-18.6 -0.84, -35.42 -1.32, -50.38 -2.41" stroke="#000000" stroke-width="1" fill="none"></path></g><g transform="translate(259.5442332085222 79) rotate(0 -25.202363425400108 -1.1454494772478938)"><path d="M-27.11 -10.65 C-36.7 -6.89, -44.23 -3.83, -51.74 -1.1 M-25.42 -9.42 C-35.76 -6.77, -43.26 -3.62, -50.76 -1.82" stroke="#000000" stroke-width="1" fill="none"></path></g><g transform="translate(259.5442332085222 79) rotate(0 -25.202363425400108 -1.1454494772478938)"><path d="M-28.14 6.45 C-37.31 4.03, -44.48 0.91, -51.74 -1.1 M-26.45 7.68 C-36.25 4.2, -43.38 1.22, -50.76 -1.82" stroke="#000000" stroke-width="1" fill="none"></path></g></g><mask></mask><g transform="translate(276.5442332085222 66) rotate(0 19.5 13)"><text x="0" y="18" font-family="Virgil, Segoe UI Emoji" font-size="20px" fill="#000000" text-anchor="start" style="white-space: pre;" direction="ltr">Top</text></g></svg>