<svg version="1.1" xmlns="http://www.w3.org/2000/svg" viewBox="0 0 658.3863658901092 448.7673118990501" width="658.3863658901092" height="448.7673118990501">
  <!-- svg-source:excalidraw -->
  
  <defs>
    <style class="style-fonts">
      @font-face {
        font-family: "Virgil";
        src: url("https://excalidraw.com/Virgil.woff2");
      }
      @font-face {
        font-family: "Cascadia";
        src: url("https://excalidraw.com/Cascadia.woff2");
      }
    </style>
  </defs>
  <rect x="0" y="0" width="658.3863658901092" height="448.7673118990501" fill="#ffffff"></rect><g stroke-linecap="round" transform="translate(16.133107825843922 10) rotate(0 84 44.5)"><path d="M-0.8 1.42 C58.88 -2.76, 119.18 -2.15, 168.27 1.76 M0.36 0.87 C61.37 0.22, 124.62 0.47, 168.32 0.09 M166.7 1.28 C167.25 22.44, 167.87 40.86, 166.81 89.87 M167.69 -0.44 C167.82 30.74, 167.48 63.06, 168.58 90 M166.9 87.18 C132.4 86.76, 94.34 86.73, 0.11 90.05 M168.02 89.68 C112.92 89.16, 57.3 90.05, -0.66 89.44 M-0.03 89.49 C-1.58 54.09, -1.53 20.62, 1.24 1.44 M-0.99 90 C-1.45 69.55, 0.22 51.62, -0.83 0.19" stroke="#000000" stroke-width="1" fill="none"></path></g><g stroke-linecap="round"><g transform="translate(16.133107825843922 43) rotate(0 84.44829014409333 -0.3293076544014468)"><path d="M1.44 -1.83 C45.04 -1.53, 85.82 0.95, 166.12 -1.74 M0.19 -0.14 C63.27 2.12, 125.98 0.71, 168.71 0.97" stroke="#000000" stroke-width="1" fill="none"></path></g></g><mask></mask><g stroke-linecap="round"><g transform="translate(14.133107825843922 75) rotate(0 84.27805269230157 -0.6494670636020601)"><path d="M1.36 1.2 C38 -0.9, 74.36 -2.95, 168.03 -2.04 M0.49 0.26 C57.5 0.43, 115.56 -0.37, 168.07 -2.5" stroke="#000000" stroke-width="1" fill="none"></path></g></g><mask></mask><g stroke-linecap="round"><g transform="translate(91.13310782584392 44) rotate(0 0.481236027085572 27.148190518841147)"><path d="M-1.39 -1.36 C-1.39 13.05, 2.43 26.59, 0.21 55.66 M-0.68 0.39 C0.14 12.06, 1.51 22.5, 2.35 55.07" stroke="#000000" stroke-width="1" fill="none"></path></g></g><mask></mask><g stroke-linecap="round" transform="translate(12.102496048435569 345.51911509959046) rotate(0 84 44.49999999999997)"><path d="M1.04 1.92 C63.14 -0.18, 127.29 -1.15, 167.24 -0.24 M0.76 -0.59 C64.21 -0.33, 128.82 -0.87, 168.8 -0.05 M167.33 1.36 C170.41 26.47, 170.06 51.35, 166.66 90.51 M167.92 0.66 C168.3 31.42, 167.45 60.54, 168.41 88.48 M167.26 87.94 C116.45 87.83, 69.17 86.48, 0 90.61 M168.4 89.89 C112.81 90.55, 56.88 89.9, -0.21 89.96 M0.78 87.67 C-0.35 68.82, -1.92 49.99, 1.83 1.05 M-0.46 89.52 C-0.83 63.18, -0.91 36.66, 0.32 0.68" stroke="#000000" stroke-width="1" fill="none"></path></g><g stroke-linecap="round"><g transform="translate(13.102496048435569 372.51911509959064) rotate(0 83.68028048146516 0.05378183084008015)"><path d="M1.92 -1.1 C59.82 -2.08, 117.26 -1.63, 167.76 1.67 M-0.59 -0.18 C43.48 -1.24, 85.84 -0.47, 167.95 -0.18" stroke="#000000" stroke-width="1" fill="none"></path></g></g><mask></mask><g stroke-linecap="round"><g transform="translate(11.102496048435569 404.51911509959064) rotate(0 84.7818309161812 -1.25912667152852)"><path d="M-1.1 1.41 C65.54 -2.36, 132.75 -4.23, 170.67 -3.89 M-0.18 0.58 C59.88 -0.02, 120.54 -1.18, 168.82 -2.02" stroke="#000000" stroke-width="1" fill="none"></path></g></g><mask></mask><g stroke-linecap="round"><g transform="translate(88.10249604843557 373.51911509959064) rotate(0 1.7736760355757042 27.9411857817322)"><path d="M1.41 -1.2 C1.69 18.97, 1.71 41.12, 1.11 57.09 M0.58 0.03 C0.47 21.84, 1.12 41.89, 2.98 56.21" stroke="#000000" stroke-width="1" fill="none"></path></g></g><mask></mask><g stroke-linecap="round" transform="translate(13.081999883116055 198.20142453713618) rotate(0 84 44.5)"><path d="M-1.2 0.45 C65.78 -1.42, 134.74 -2.08, 169.09 1.51 M0.03 0.05 C41.31 -1.03, 80.84 -0.01, 168.21 -0.33 M169.19 1.14 C167.35 34.26, 169.53 65.23, 169.76 88.84 M167.56 -0.35 C168.77 32.04, 168.36 64.69, 167.52 88.63 M169.9 87.29 C126.46 90.31, 85.54 88.89, 1.99 89.8 M167.94 88.23 C102.41 89.76, 36.43 88.97, -0.69 89.39 M-1.76 88.96 C1.92 69.28, 0 47.76, -1.89 -0.92 M-0.77 89.25 C0.93 58.4, 0.67 25.88, 0.48 -0.52" stroke="#000000" stroke-width="1" fill="none"></path></g><g stroke-linecap="round"><g transform="translate(13.081999883116055 231.20142453713618) rotate(0 84.77860022103414 0.19266263999966782)"><path d="M0.45 -0.76 C40.9 2.68, 81.39 2.1, 169.51 -1.18 M0.05 0.8 C47.28 -0.23, 95.63 0.16, 167.67 0.68" stroke="#000000" stroke-width="1" fill="none"></path></g></g><mask></mask><g stroke-linecap="round"><g transform="translate(11.081999883116055 263.2014245371362) rotate(0 84.4617838584818 -1.708085695747286)"><path d="M-0.76 -0.24 C64.33 -2.38, 126.39 -1.09, 167.82 -3.37 M0.8 -0.05 C60.4 -0.18, 121.38 -2.56, 169.68 -2.23" stroke="#000000" stroke-width="1" fill="none"></path></g></g><mask></mask><g stroke-linecap="round"><g transform="translate(88.08199988311605 232.20142453713618) rotate(0 1.2682682840026587 28.49538058275357)"><path d="M-0.24 1.67 C-0.29 14.52, 2.6 25.69, 1.63 57.17 M-0.05 -0.18 C1.61 17.15, 0.9 34.58, 2.77 56.68" stroke="#000000" stroke-width="1" fill="none"></path></g></g><mask></mask><g stroke-linecap="round" transform="translate(413.796318935189 91.17068028915673) rotate(0 111.06074895754483 55.42759031571546)"><path d="M0.79 -1.04 C52.97 -2.54, 109.49 0.1, 220.74 -1.09 M0.64 -0.66 C69.64 0.28, 139.55 -0.17, 221.9 -0.73 M223.02 -0.81 C223.45 45.93, 220.41 89.82, 223.11 110.91 M222.37 0.72 C221.83 28.71, 220.88 57.18, 222.08 111.34 M221.4 110.17 C166.87 111.12, 111.72 110.32, -1.62 110.48 M221.5 110.61 C157.95 112.42, 96.09 112.67, -0.17 110.59 M-1.83 111.8 C0.39 77.18, 0.88 43.01, 1.81 0.43 M-0.06 110.67 C-1.07 73.78, -0.14 36.04, 0.45 -0.26" stroke="#000000" stroke-width="1" fill="none"></path></g><g stroke-linecap="round"><g transform="translate(413.796318935189 132.27428659069852) rotate(0 109.6818091252619 -0.4972730871441229)"><path d="M-1.04 -0.97 C66.71 0.59, 137.47 -2.57, 220.04 -0.24 M-0.66 -0.22 C51.68 -1.71, 103.17 -1.88, 220.4 0.34" stroke="#000000" stroke-width="1" fill="none"></path></g></g><mask></mask><g stroke-linecap="round"><g transform="translate(411.30519128055005 172.1323290649209) rotate(0 111.37051664127455 -1.7556158868574983)"><path d="M-0.96 -1.41 C81.5 1.57, 158.39 -1.54, 223.12 -3.37 M-0.22 -0.26 C60.45 0.16, 121.04 -0.48, 223.7 -2.41" stroke="#000000" stroke-width="1" fill="none"></path></g></g><mask></mask><g stroke-linecap="round"><g transform="translate(524.5342645376007 132.5300985006778) rotate(0 0.33439011625421244 34.56965757061107)"><path d="M-1.64 1.88 C1.85 22.54, 0.05 48.57, 1.19 69.19 M-0.3 -0.2 C-0.41 25.85, 0.49 53.18, 2.31 69.34" stroke="#000000" stroke-width="1" fill="none"></path></g></g><mask></mask><g transform="translate(84.13310782584392 10) rotate(0 7.5 13)"><text x="0" y="18" font-family="Virgil, Segoe UI Emoji" font-size="20px" fill="#000000" text-anchor="start" style="white-space: pre;" direction="ltr">a</text></g><g transform="translate(24.133107825843922 49) rotate(0 32.5 13)"><text x="0" y="18" font-family="Virgil, Segoe UI Emoji" font-size="20px" fill="#000000" text-anchor="start" style="white-space: pre;" direction="ltr">number</text></g><g transform="translate(131.13310782584392 48) rotate(0 3.5 13)"><text x="0" y="18" font-family="Virgil, Segoe UI Emoji" font-size="20px" fill="#000000" text-anchor="start" style="white-space: pre;" direction="ltr">1</text></g><g transform="translate(19.23558865244206 75.55124041329907) rotate(0 36 11)"><text x="0" y="17" font-family="Helvetica, Segoe UI Emoji" font-size="16px" fill="#000000" text-anchor="start" style="white-space: pre;" direction="ltr">__proto__</text></g><g transform="translate(85.1023635778646 198.79585028747198) rotate(0 5 10.5)"><text x="0" y="15" font-family="Virgil, Segoe UI Emoji" font-size="16px" fill="#000000" text-anchor="start" style="white-space: pre;" direction="ltr">b</text></g><g transform="translate(17.304357240061904 235.89617506373924) rotate(0 32.5 13)"><text x="0" y="18" font-family="Virgil, Segoe UI Emoji" font-size="20px" fill="#000000" text-anchor="start" style="white-space: pre;" direction="ltr">number</text></g><g transform="translate(131.62070369285334 236.89617506373924) rotate(0 8 13)"><text x="0" y="18" font-family="Virgil, Segoe UI Emoji" font-size="20px" fill="#000000" text-anchor="start" style="white-space: pre;" direction="ltr">2</text></g><g transform="translate(16.809481281391754 263.15022107990376) rotate(0 36 11)"><text x="0" y="17" font-family="Helvetica, Segoe UI Emoji" font-size="16px" fill="#000000" text-anchor="start" style="white-space: pre;" direction="ltr">__proto__</text></g><g transform="translate(89.55624720589537 343.7688859711598) rotate(0 6.5 12.999999999999972)"><text x="0" y="18" font-family="Virgil, Segoe UI Emoji" font-size="20px" fill="#000000" text-anchor="start" style="white-space: pre;" direction="ltr">z</text></g><g transform="translate(18.294109157401977 377.4409473260457) rotate(0 32.5 13)"><text x="0" y="18" font-family="Virgil, Segoe UI Emoji" font-size="20px" fill="#000000" text-anchor="start" style="white-space: pre;" direction="ltr">number</text></g><g transform="translate(128.15657198216263 376.9460713673757) rotate(0 14.5 13)"><text x="0" y="18" font-family="Virgil, Segoe UI Emoji" font-size="20px" fill="#000000" text-anchor="start" style="white-space: pre;" direction="ltr">26</text></g><g transform="translate(14.829977446711268 408.6437529289111) rotate(0 36 11)"><text x="0" y="17" font-family="Helvetica, Segoe UI Emoji" font-size="16px" fill="#000000" text-anchor="start" style="white-space: pre;" direction="ltr">__proto__</text></g><g transform="translate(479.0236266792589 98.31041047079344) rotate(0 30 13)"><text x="0" y="18" font-family="Virgil, Segoe UI Emoji" font-size="20px" fill="#000000" text-anchor="start" style="white-space: pre;" direction="ltr">letter</text></g><g transform="translate(418.64875972150764 139.40561120573085) rotate(0 50.5 13)"><text x="0" y="18" font-family="Virgil, Segoe UI Emoji" font-size="20px" fill="#000000" text-anchor="start" style="white-space: pre;" direction="ltr">getNumber</text></g><g transform="translate(529.5009744636085 140.39536312307104) rotate(0 50 13)"><text x="0" y="18" font-family="Virgil, Segoe UI Emoji" font-size="20px" fill="#000000" text-anchor="start" style="white-space: pre;" direction="ltr">&lt;function&gt;</text></g><g transform="translate(430.52578272958976 174.56742447795693) rotate(0 36 11)"><text x="0" y="17" font-family="Helvetica, Segoe UI Emoji" font-size="16px" fill="#000000" text-anchor="start" style="white-space: pre;" direction="ltr">__proto__</text></g><g stroke-linecap="round" transform="translate(409.72750061064926 318.1211293143859) rotate(0 117.9042238895583 60.32309129233212)"><path d="M-1 1.63 C55.38 0.42, 112.74 2.1, 234.59 -0.34 M0.1 0.35 C65.81 1.37, 130.76 0.86, 236.24 0.21 M237.6 1.49 C237.48 25.91, 235.62 51.2, 237.64 119.73 M235.47 -0.37 C236.91 31.54, 237.09 63.79, 236.53 120.5 M235.11 120.83 C177.84 122.07, 116.83 119.31, -0.54 121.06 M235 120.99 C152.82 120.28, 71.08 120.1, 0.09 119.81 M1.65 121.1 C1.38 91.99, 1.26 60.87, -0.27 -0.08 M-0.61 120.42 C-0.27 76.2, -0.89 31.97, 0.25 0.26" stroke="#000000" stroke-width="1" fill="none"></path></g><g stroke-linecap="round"><g transform="translate(411.6028682089503 358.7021180019548) rotate(0 117.87662187785821 0.5961905370564295)"><path d="M-1.03 -0.38 C85.89 1.54, 171.2 1.69, 236.78 1.53 M0.13 0.66 C65.24 1.02, 128.69 0.34, 236.77 0.45" stroke="#000000" stroke-width="1" fill="none"></path></g></g><mask></mask><g stroke-linecap="round"><g transform="translate(409.40930125286536 396.54114799441754) rotate(0 117.77518530173808 -1.1118318211272822)"><path d="M-1.28 -1.1 C80.07 -1.79, 162.29 -0.65, 236.12 -3.34 M0.57 0.65 C71.25 1.86, 142.3 0.66, 236.83 -2.44" stroke="#000000" stroke-width="1" fill="none"></path></g></g><mask></mask><g stroke-linecap="round"><g transform="translate(525.6683499253603 400.37989016756603) rotate(0 -0.4636444547213614 18.319455715070774)"><path d="M-1.84 -0.83 C-1.47 13.38, -1.47 28.57, 0.8 37.47 M0.91 -0.34 C-0.56 12.86, -0.26 26.6, -1.39 36.52" stroke="#000000" stroke-width="1" fill="none"></path></g></g><mask></mask><g transform="translate(574.4752146982472 410.0252092942869) rotate(0 16.5 13)"><text x="0" y="18" font-family="Virgil, Segoe UI Emoji" font-size="20px" fill="#000000" text-anchor="start" style="white-space: pre;" direction="ltr">null</text></g><g transform="translate(433.53853776979827 411.4284258162444) rotate(0 36 11)"><text x="0" y="17" font-family="Helvetica, Segoe UI Emoji" font-size="16px" fill="#000000" text-anchor="start" style="white-space: pre;" direction="ltr">__proto__</text></g><g transform="translate(474.8785519584002 364.6093893402168) rotate(0 49.5 13)"><text x="0" y="18" font-family="Virgil, Segoe UI Emoji" font-size="20px" fill="#000000" text-anchor="start" style="white-space: pre;" direction="ltr">&lt;built-ins&gt;</text></g><g transform="translate(448.14980590455764 327.0618651217238) rotate(0 82 13)"><text x="0" y="18" font-family="Virgil, Segoe UI Emoji" font-size="20px" fill="#000000" text-anchor="start" style="white-space: pre;" direction="ltr">Object.prototype</text></g><g stroke-linecap="round"><g transform="translate(178.9320492218634 85.5178029134876) rotate(0 117.64653551262876 27.32190136290444)"><path d="M-0.05 0.84 C58.09 15.05, 113.62 25.82, 235.5 53.82 M-0.21 0.12 C67.46 15.17, 136.44 30.78, 233.65 54.53" stroke="#000000" stroke-width="1" fill="none"></path></g><g transform="translate(178.9320492218634 85.5178029134876) rotate(0 117.64653551262876 27.32190136290444)"><path d="M203.78 58.92 C212.32 58.55, 217.55 54.83, 235.04 54.33 M203.58 58.05 C211.56 57.6, 221.25 56.51, 232.81 55.18" stroke="#000000" stroke-width="1" fill="none"></path></g><g transform="translate(178.9320492218634 85.5178029134876) rotate(0 117.64653551262876 27.32190136290444)"><path d="M208.57 38.97 C215.88 43.45, 219.95 44.61, 235.04 54.33 M208.38 38.1 C215.01 43.48, 223.3 48.19, 232.81 55.18" stroke="#000000" stroke-width="1" fill="none"></path></g></g><mask></mask><g stroke-linecap="round"><g transform="translate(175.25124518979783 275.07921056486236) rotate(0 121.17648522827113 -68.94487346311587)"><path d="M0.43 -0.17 C83.72 -48.42, 170.59 -95.55, 240.95 -136.57 M-0.09 -0.66 C68.17 -36.87, 136.65 -75.81, 242.44 -137.72" stroke="#000000" stroke-width="1" fill="none"></path></g><g transform="translate(175.25124518979783 275.07921056486236) rotate(0 121.17648522827113 -68.94487346311587)"><path d="M223.78 -114.91 C228 -122.92, 236.7 -129.36, 240.66 -136.61 M223.11 -115.54 C228.71 -120.53, 234.35 -127.28, 242.6 -138.11" stroke="#000000" stroke-width="1" fill="none"></path></g><g transform="translate(175.25124518979783 275.07921056486236) rotate(0 121.17648522827113 -68.94487346311587)"><path d="M213.47 -132.65 C221.35 -134.4, 233.69 -134.59, 240.66 -136.61 M212.8 -133.28 C221.34 -133.19, 229.89 -134.94, 242.6 -138.11" stroke="#000000" stroke-width="1" fill="none"></path></g></g><mask></mask><g stroke-linecap="round"><g transform="translate(177.7051145445082 418.01710047674044) rotate(0 117.58158688664861 -137.7163889947252)"><path d="M0.85 -0.99 C77.32 -90.98, 155.24 -180.24, 235.08 -275.24 M-0.42 0.19 C86.99 -101.34, 174.17 -203.55, 235.59 -275.63" stroke="#000000" stroke-width="1" fill="none"></path></g><g transform="translate(177.7051145445082 418.01710047674044) rotate(0 117.58158688664861 -137.7163889947252)"><path d="M226.46 -249.1 C227.36 -257.86, 232.93 -266.95, 233.82 -275.29 M224.43 -247.21 C229.72 -257.94, 233.45 -269.01, 234.63 -275.91" stroke="#000000" stroke-width="1" fill="none"></path></g><g transform="translate(177.7051145445082 418.01710047674044) rotate(0 117.58158688664861 -137.7163889947252)"><path d="M210.84 -262.42 C216.67 -266.97, 227.31 -271.74, 233.82 -275.29 M208.81 -260.52 C219.94 -266.28, 229.44 -272.43, 234.63 -275.91" stroke="#000000" stroke-width="1" fill="none"></path></g></g><mask></mask><g stroke-linecap="round"><g transform="translate(580.1396887170062 190.4207178273552) rotate(0 2.241152253084124 64.31481512513804)"><path d="M1.59 -1.54 C-0.92 27.86, -0.19 53.21, 4.97 128.51 M-0.49 0.16 C1.26 51.76, 2.33 101.06, 3.59 130.17" stroke="#000000" stroke-width="1" fill="none"></path></g><g transform="translate(580.1396887170062 190.4207178273552) rotate(0 2.241152253084124 64.31481512513804)"><path d="M-6.07 100.82 C-7.25 109.3, -4.96 113.71, 4.87 129.24 M-8.15 102.52 C-3.44 114.03, 0.61 123.27, 3.49 130.89" stroke="#000000" stroke-width="1" fill="none"></path></g><g transform="translate(580.1396887170062 190.4207178273552) rotate(0 2.241152253084124 64.31481512513804)"><path d="M14.44 100.09 C9.03 108.67, 7.1 113.23, 4.87 129.24 M12.36 101.79 C8.98 113.66, 4.95 123.19, 3.49 130.89" stroke="#000000" stroke-width="1" fill="none"></path></g></g><mask></mask></svg>