<svg version="1.1" xmlns="http://www.w3.org/2000/svg" viewBox="0 0 377 612" width="377" height="612">
  <!-- svg-source:excalidraw -->
  
  <defs>
    <style class="style-fonts">
      @font-face {
        font-family: "Virgil";
        src: url("https://excalidraw.com/Virgil.woff2");
      }
      @font-face {
        font-family: "Cascadia";
        src: url("https://excalidraw.com/Cascadia.woff2");
      }
    </style>
  </defs>
  <rect x="0" y="0" width="377" height="612" fill="#ffffff"></rect><g stroke-linecap="round" transform="translate(10 10) rotate(0 178.5 296)"><path d="M-1.12 0.47 C133.43 -2.08, 268.05 -0.02, 356.7 0.88 M0.52 0.43 C133.6 -1.94, 266.63 -2.17, 356.85 0.58 M356.21 -0.05 C356.82 205.89, 357.02 412.72, 357.6 592.45 M357.21 -0.16 C357.19 232.82, 357.36 466.37, 357.24 592.11 M356.23 592.55 C228.28 590.91, 97.98 590.33, 0.79 591.72 M356.59 592.44 C238.05 591.66, 119.03 591.59, -0.12 592.07 M0.65 591.26 C-0.89 369.04, -0.68 146.11, 0.53 0.34 M0.14 591.85 C1.85 418.68, 1.31 245.37, 0.14 -0.02" stroke="#000000" stroke-width="1" fill="none"></path></g><g stroke-linecap="round" transform="translate(76 58) rotate(0 114.5 60)"><path d="M-0.07 -1.47 C59.3 -1.2, 115.57 -0.28, 228.51 -0.64 M-0.27 -0.21 C51.62 1.01, 102.97 1.26, 229.46 0.71 M230.57 1.69 C231.04 42.57, 231.12 86.62, 227.35 121.41 M229.24 -0.58 C228.59 46.88, 228.33 93.08, 228.68 119.83 M228.32 120.71 C171.1 121.17, 112.03 120.02, -0.82 118.67 M229.67 120.56 C137.86 120.38, 48.71 121.05, -0.78 120.79 M-0.06 120.43 C0.31 80.42, -0.1 41.56, 1.93 1.08 M0.37 119.89 C0.26 82.92, 0.7 46.83, -0.12 0.36" stroke="#000000" stroke-width="1" fill="none"></path></g><g stroke-linecap="round" transform="translate(33.3774817817615 217.69671754972387) rotate(0 155.3275566270765 182.3441983453048)"><path d="M-0.65 -0.12 C92.84 -0.19, 186.05 0.69, 311.51 -0.38 M0.68 -0.56 C90.71 2.3, 181.66 1.25, 310.72 0.71 M311.08 0.4 C307.57 141.35, 308.83 283.21, 310.95 364.87 M310.68 -0.48 C313.39 139.74, 312.79 278.6, 310.23 364.55 M311.64 365.81 C229.79 366.35, 148.9 366.34, -0.75 363.77 M311.06 364.17 C219.58 365.86, 130.08 365.41, 0.67 364.91 M0.48 364.99 C-0.67 276.55, -0.25 188.55, -0.79 -0.13 M-0.36 364.11 C0.44 260.57, 1.53 157.48, -0.4 0.28" stroke="#000000" stroke-width="1" fill="none"></path></g><g stroke-linecap="round" transform="translate(57.23000098618036 269.68839669060964) rotate(0 128.97919785221472 53.11465629281915)"><path d="M-0.09 -1.47 C103.19 -1.38, 205.28 0.88, 257.83 -1.12 M-0.29 -0.05 C86.37 0.98, 173.81 0.65, 257.46 -0.61 M256.58 -1.54 C256.66 34.18, 257.9 68.31, 257.3 105.99 M257.89 0.71 C257.53 37.36, 256.68 74.04, 257.5 107.02 M257.34 106.43 C174.81 108.98, 90.59 107.54, -0.88 107.09 M258.04 105.61 C197.43 105.07, 136.31 104.36, -0.52 105.69 M0.22 105.92 C2.99 85.77, -0.47 63.09, 0.04 1.39 M0.41 105.4 C0.68 72.08, -0.42 38.02, 0.37 0.94" stroke="#000000" stroke-width="1" fill="none"></path></g><g stroke-linecap="round" transform="translate(58.98404668231365 417) rotate(0 126.5406864281814 71.22931258563824)"><path d="M0.39 -0.67 C73.25 1.82, 149.27 1.26, 254.03 -0.97 M0.13 0.15 C100.96 0.46, 201.8 0.54, 252.68 -0.74 M253.9 -1.96 C253.35 29.09, 250.97 58.34, 251.26 141.7 M253.96 -0.14 C252.58 34.25, 252.23 70.34, 252.92 141.77 M251.78 141.51 C176.21 140.89, 102.05 141.73, -1.19 142.89 M253.66 143.12 C197.03 142.17, 139.77 142.07, -0.29 142.38 M1.94 142.67 C1.98 105.8, -0.04 72.39, -1.16 1.14 M0.14 143.18 C-0.57 102.39, 0.3 64.39, -0.78 -0.65" stroke="#000000" stroke-width="1" fill="none"></path></g><g transform="translate(76 22) rotate(0 119.5 13)"><text x="0" y="18" font-family="Virgil, Segoe UI Emoji" font-size="20px" fill="#000000" text-anchor="start" style="white-space: pre;" direction="ltr">bar context scope chain</text></g><g stroke-linecap="round"><g transform="translate(79 101) rotate(0 113.3982695446831 0.394436063701761)"><path d="M-0.5 0.77 C71.99 0.55, 145.47 1.56, 227.49 0.7 M-0.69 -0.26 C85.35 0.5, 168.87 -0.58, 226.58 0.13" stroke="#000000" stroke-width="1" fill="none"></path></g></g><mask></mask><g stroke-linecap="round"><g transform="translate(77 139) rotate(0 113.41379593437858 2.372442528779999)"><path d="M1.51 -0.08 C63.55 1.95, 129.16 1.25, 226.87 3.18 M-0.05 0.42 C87.15 3.48, 175.74 4.69, 226.63 4.83" stroke="#000000" stroke-width="1" fill="none"></path></g></g><mask></mask><g transform="translate(171 70) rotate(0 36 13)"><text x="0" y="18" font-family="Virgil, Segoe UI Emoji" font-size="20px" fill="#000000" text-anchor="start" style="white-space: pre;" direction="ltr">bar AO</text></g><g transform="translate(135 113) rotate(0 6.5 13)"><text x="0" y="18" font-family="Virgil, Segoe UI Emoji" font-size="20px" fill="#000000" text-anchor="start" style="white-space: pre;" direction="ltr">z</text></g><g transform="translate(252 114) rotate(0 14.5 13)"><text x="0" y="18" font-family="Virgil, Segoe UI Emoji" font-size="20px" fill="#000000" text-anchor="start" style="white-space: pre;" direction="ltr">30</text></g><g stroke-linecap="round"><g transform="translate(194 102) rotate(0 0.31946708634495735 38.43959573935717)"><path d="M1.69 1.43 C1.66 25.35, 1.34 48.04, -1.05 77.56 M-0.33 -0.68 C0.83 22.31, 0.5 46.26, 0.93 77.42" stroke="#000000" stroke-width="1" fill="none"></path></g></g><mask></mask><g transform="translate(85 145) rotate(0 50 13.5)"><text x="0" y="21" font-family="Helvetica, Segoe UI Emoji" font-size="20px" fill="#000000" text-anchor="start" style="white-space: pre;" direction="ltr">__parent__</text></g><g transform="translate(52.59916190882768 220.84442781215216) rotate(0 61 13.5)"><text x="0" y="21" font-family="Helvetica, Segoe UI Emoji" font-size="20px" fill="#000000" text-anchor="start" style="white-space: pre;" direction="ltr">bar.[[Scope]]</text></g><g stroke-linecap="round"><g transform="translate(59.56633740606583 301.71290033425737) rotate(0 127.24485327332303 1.8354949344007707)"><path d="M0.37 0.41 C86.36 -0.92, 173.65 1.22, 254.55 3 M-0.36 0.4 C91.64 2.46, 183.13 3.79, 254.85 3.66" stroke="#000000" stroke-width="1" fill="none"></path></g></g><mask></mask><g stroke-linecap="round"><g transform="translate(58.1729023066182 342.1225182182386) rotate(0 128.04002328860344 -1.0095094999344667)"><path d="M1.19 0.28 C95.17 -2.96, 189.36 -0.96, 256.76 -2.3 M-0.68 -0.03 C100.18 -0.38, 200.73 -0.78, 256 -1.64" stroke="#000000" stroke-width="1" fill="none"></path></g></g><mask></mask><g stroke-linecap="round"><g transform="translate(180.79519105800944 304.4997705331526) rotate(0 -0.6572817906358068 34.49338616336655)"><path d="M-1.46 -1.73 C0.56 20.11, 0.36 38.33, -1.12 70.71 M-0.28 -0.28 C0.56 20.4, 0.59 39.4, -1.56 69.47" stroke="#000000" stroke-width="1" fill="none"></path></g></g><mask></mask><g transform="translate(151.53305396960923 274.4916791408858) rotate(0 36 13)"><text x="0" y="18" font-family="Virgil, Segoe UI Emoji" font-size="20px" fill="#000000" text-anchor="start" style="white-space: pre;" direction="ltr">foo AO</text></g><g transform="translate(110.42671853590423 314.3111443756956) rotate(0 5.5 13)"><text x="0" y="18" font-family="Virgil, Segoe UI Emoji" font-size="20px" fill="#000000" text-anchor="start" style="white-space: pre;" direction="ltr">y</text></g><g transform="translate(234.4424423867431 312.917709276248) rotate(0 15 13)"><text x="0" y="18" font-family="Virgil, Segoe UI Emoji" font-size="20px" fill="#000000" text-anchor="start" style="white-space: pre;" direction="ltr">20</text></g><g transform="translate(67.39389403314249 343.95030431216253) rotate(0 50 13.5)"><text x="0" y="21" font-family="Helvetica, Segoe UI Emoji" font-size="20px" fill="#000000" text-anchor="start" style="white-space: pre;" direction="ltr">__parent__</text></g><g stroke-linecap="round"><g transform="translate(56.77946720717057 454.2940437237726) rotate(0 126.42642888665398 -0.5594969614093657)"><path d="M-1.57 -0.79 C79.15 -0.17, 157.64 -3, 254.43 0.34 M0.37 0.05 C53.14 -2.19, 105.09 -1.69, 254.33 0" stroke="#000000" stroke-width="1" fill="none"></path></g></g><mask></mask><g transform="translate(142.4757258231997 427.1793874309535) rotate(0 50.5 13)"><text x="0" y="18" font-family="Virgil, Segoe UI Emoji" font-size="20px" fill="#000000" text-anchor="start" style="white-space: pre;" direction="ltr">Global AO</text></g><g transform="translate(112.51687118507562 459.22839471824886) rotate(0 6.5 13)"><text x="0" y="18" font-family="Virgil, Segoe UI Emoji" font-size="20px" fill="#000000" text-anchor="start" style="white-space: pre;" direction="ltr">x</text></g><g transform="translate(252.55709867956227 459.22839471824886) rotate(0 10.5 13)"><text x="0" y="18" font-family="Virgil, Segoe UI Emoji" font-size="20px" fill="#000000" text-anchor="start" style="white-space: pre;" direction="ltr">10</text></g><g stroke-linecap="round"><g transform="translate(59.56633740606583 490.52335630941093) rotate(0 124.87698444775037 0.07785417170174469)"><path d="M-0.56 0.68 C55.49 1.69, 115.07 2.11, 249.05 0.37 M0.46 -0.69 C64.7 2.18, 130.51 1.55, 250.31 -1.4" stroke="#000000" stroke-width="1" fill="none"></path></g></g><mask></mask><g stroke-linecap="round"><g transform="translate(59.56633740606583 529.5395390939445) rotate(0 124.97559118256163 -0.6948255423635601)"><path d="M-1 0.07 C76.92 2.43, 150.93 -0.43, 250.95 -2.2 M0.71 -0.26 C71.38 0.74, 141.25 1.27, 250.33 -2.35" stroke="#000000" stroke-width="1" fill="none"></path></g></g><mask></mask><g stroke-linecap="round"><g transform="translate(180.09847350828568 452.2038910746012) rotate(0 -0.13680801834732392 20.196102883615083)"><path d="M-1.12 -0.91 C-0.56 14.63, -2.24 28.64, 0.21 38.82 M0.9 -0.72 C-1.22 12.94, -1.34 26.13, 0.27 41.3" stroke="#000000" stroke-width="1" fill="none"></path></g></g><mask></mask><g stroke-linecap="round"><g transform="translate(180.79519105800944 529.5395390939445) rotate(0 0.41553062789756723 14.735227655052995)"><path d="M1.69 -1.07 C-1.02 7.87, -0.23 18.07, -0.86 30.54 M0.9 0.06 C-0.68 8.95, 0.91 19.46, 1.58 29.19" stroke="#000000" stroke-width="1" fill="none"></path></g></g><mask></mask><g transform="translate(68.09061158286602 528.5804549889732) rotate(0 50 13.5)"><text x="0" y="21" font-family="Helvetica, Segoe UI Emoji" font-size="20px" fill="#000000" text-anchor="start" style="white-space: pre;" direction="ltr">__parent__</text></g><g transform="translate(231.65557218784784 535.1706076381447) rotate(0 16.5 13)"><text x="0" y="18" font-family="Virgil, Segoe UI Emoji" font-size="20px" fill="#000000" text-anchor="start" style="white-space: pre;" direction="ltr">null</text></g><g transform="translate(94.40221489225644 498.94129505250635) rotate(0 91 13)"><text x="0" y="18" font-family="Virgil, Segoe UI Emoji" font-size="20px" fill="#000000" text-anchor="start" style="white-space: pre;" direction="ltr">&lt;other properties&gt;</text></g><g stroke-linecap="round"><g transform="translate(241.99398893935108 361.19036483277375) rotate(0 -30.313568085618613 27.754434187154743)"><path d="M-1.32 -0.53 C-21.47 19.99, -43.21 39.32, -59 56.32 M-0.87 -0.81 C-17.34 16.05, -34.03 31.94, -59.75 55.91" stroke="#000000" stroke-width="1" fill="none"></path></g><g transform="translate(241.99398893935108 361.19036483277375) rotate(0 -30.313568085618613 27.754434187154743)"><path d="M-47.52 28.61 C-50.39 38.44, -55.01 46.9, -58.18 55.63 M-47.07 28.33 C-49.97 37.2, -53.39 44.67, -58.94 55.22" stroke="#000000" stroke-width="1" fill="none"></path></g><g transform="translate(241.99398893935108 361.19036483277375) rotate(0 -30.313568085618613 27.754434187154743)"><path d="M-33.49 43.59 C-41.38 47.91, -51.12 50.92, -58.18 55.63 M-33.04 43.3 C-39.76 47.82, -47.13 51.06, -58.94 55.22" stroke="#000000" stroke-width="1" fill="none"></path></g></g><mask></mask><g stroke-linecap="round"><g transform="translate(245.96586355824775 161.6036652332134) rotate(0 -32.35078875296392 53.36933213231481)"><path d="M0.58 1.03 C-16.32 29.13, -33.9 56.4, -63.69 106.9 M-0.19 -0.17 C-15.28 27.62, -32.88 53.09, -65.28 105.31" stroke="#000000" stroke-width="1" fill="none"></path></g><g transform="translate(245.96586355824775 161.6036652332134) rotate(0 -32.35078875296392 53.36933213231481)"><path d="M-58.39 77.01 C-59.94 84.8, -61.95 92.1, -63.43 106.96 M-59.15 75.81 C-59.86 83.87, -62.44 90.08, -65.02 105.36" stroke="#000000" stroke-width="1" fill="none"></path></g><g transform="translate(245.96586355824775 161.6036652332134) rotate(0 -32.35078875296392 53.36933213231481)"><path d="M-41.01 87.93 C-47.16 92.95, -53.74 97.39, -63.43 106.96 M-41.78 86.73 C-46.99 92.16, -53.97 95.59, -65.02 105.36" stroke="#000000" stroke-width="1" fill="none"></path></g></g><mask></mask></svg>