<svg version="1.1" xmlns="http://www.w3.org/2000/svg" viewBox="0 0 610.247288395278 331.2686092766782" width="610.247288395278" height="331.2686092766782">
  <!-- svg-source:excalidraw -->
  
  <defs>
    <style class="style-fonts">
      @font-face {
        font-family: "Virgil";
        src: url("https://excalidraw.com/Virgil.woff2");
      }
      @font-face {
        font-family: "Cascadia";
        src: url("https://excalidraw.com/Cascadia.woff2");
      }
    </style>
  </defs>
  <rect x="0" y="0" width="610.247288395278" height="331.2686092766782" fill="#ffffff"></rect><g stroke-linecap="round" transform="translate(10 10) rotate(0 294.5 154.5)"><path d="M-0.52 0.58 C121.59 -0.32, 243.08 -0.05, 588.6 0.57 M-0.13 -0.27 C231.67 0.94, 463.56 1.01, 589.2 -0.08 M590.02 -0.06 C587.18 71.41, 588.25 140.94, 588.32 310.33 M588.8 0.2 C586.44 87.77, 586.48 173.85, 588.93 309.35 M588.21 308.3 C425.02 309.92, 259.51 310.2, -0.04 309.52 M588.81 309.08 C391.38 308.9, 193.81 308.76, -0.23 308.64 M-0.61 307.88 C2.03 199.11, 1.07 90.72, -0.62 1.2 M-0.51 308.57 C0.41 213.93, 0.7 117.48, -0.72 0.4" stroke="#000000" stroke-width="1" fill="none"></path></g><g transform="translate(165 18) rotate(0 126 18)"><text x="0" y="25" font-family="Virgil, Segoe UI Emoji" font-size="28px" fill="#000000" text-anchor="start" style="white-space: pre;" direction="ltr">Execution context</text></g><g stroke-linecap="round"><g transform="translate(396 128) rotate(0 0 0)"><path d="M0 0 C0 0, 0 0, 0 0 M0 0 C0 0, 0 0, 0 0" stroke="#000000" stroke-width="1" fill="none"></path></g><g transform="translate(396 128) rotate(0 0 0)"><path d="MNaN NaN CNaN NaN, NaN NaN, NaN NaN MNaN NaN CNaN NaN, NaN NaN, NaN NaN" stroke="#000000" stroke-width="1" fill="none"></path></g><g transform="translate(396 128) rotate(0 0 0)"><path d="MNaN NaN CNaN NaN, NaN NaN, NaN NaN MNaN NaN CNaN NaN, NaN NaN, NaN NaN" stroke="#000000" stroke-width="1" fill="none"></path></g></g><mask></mask><g stroke-linecap="round"><g transform="translate(12 61) rotate(0 292.7008167171851 0.5865058273075476)"><path d="M-0.58 0.76 C218.04 -0.48, 437.63 -1.29, 585.58 0.75 M-0.26 -0.24 C136.78 1.98, 272.88 1.92, 585.98 1.29" stroke="#000000" stroke-width="1" fill="none"></path></g></g><mask></mask><g stroke-linecap="round"><g transform="translate(13.799183282814852 161.41349417269242) rotate(0 292.6800883257762 0.30943426157006115)"><path d="M-0.68 -0.56 C170.86 0.62, 342.57 1.22, 585.32 1.71 M0.12 0.37 C226.54 -1.95, 453.09 -1.25, 586.04 0.65" stroke="#000000" stroke-width="1" fill="none"></path></g></g><mask></mask><g stroke-linecap="round"><g transform="translate(13.819911674223704 241.69056573842988) rotate(0 292.85668912902474 0.1897480297561458)"><path d="M-0.71 0.18 C203.21 0.71, 405.25 1.68, 586.43 0.5 M-0.01 0.09 C135.72 -1.31, 272.28 -0.67, 585.75 0.93" stroke="#000000" stroke-width="1" fill="none"></path></g></g><mask></mask><g stroke-linecap="round"><g transform="translate(299.5 61) rotate(0 -1.6470510505110383 130.42837565011013)"><path d="M-0.96 1.23 C-1.89 56.88, -3.94 110.95, -3.15 260.27 M0.04 0.59 C-2.05 72.23, -2.96 145.64, -1.27 259.05" stroke="#000000" stroke-width="1" fill="none"></path></g></g><mask></mask><g transform="translate(80.5 99.5) rotate(0 74 13)"><text x="0" y="18" font-family="Virgil, Segoe UI Emoji" font-size="20px" fill="#000000" text-anchor="start" style="white-space: pre;" direction="ltr">Variable object</text></g><g transform="translate(314.5 83) rotate(0 131.5 27)"><text x="0" y="21" font-family="Helvetica, Segoe UI Emoji" font-size="19.636363636363612px" fill="#000000" text-anchor="start" style="white-space: pre;" direction="ltr">{ vars, function declarations,</text><text x="0" y="48" font-family="Helvetica, Segoe UI Emoji" font-size="19.636363636363612px" fill="#000000" text-anchor="start" style="white-space: pre;" direction="ltr">            arguments...}</text></g><g transform="translate(99.5 188) rotate(0 56.5 13)"><text x="0" y="18" font-family="Virgil, Segoe UI Emoji" font-size="20px" fill="#000000" text-anchor="start" style="white-space: pre;" direction="ltr">Scope chain</text></g><g transform="translate(105.5 269) rotate(0 45 13)"><text x="0" y="18" font-family="Virgil, Segoe UI Emoji" font-size="20px" fill="#000000" text-anchor="start" style="white-space: pre;" direction="ltr">thisValue</text></g><g transform="translate(311 174) rotate(0 129.5 27)"><text x="0" y="21" font-family="Helvetica, Segoe UI Emoji" font-size="19.636363636363612px" fill="#000000" text-anchor="start" style="white-space: pre;" direction="ltr">[ Variable object + all parent</text><text x="0" y="48" font-family="Helvetica, Segoe UI Emoji" font-size="19.636363636363612px" fill="#000000" text-anchor="start" style="white-space: pre;" direction="ltr">                  scopes ]</text></g><g transform="translate(376 263) rotate(0 68 13.5)"><text x="0" y="21" font-family="Helvetica, Segoe UI Emoji" font-size="19.636363636363612px" fill="#000000" text-anchor="start" style="white-space: pre;" direction="ltr">Context object</text></g></svg>