<svg version="1.1" xmlns="http://www.w3.org/2000/svg" viewBox="0 0 429.57872569908875 282" width="429.57872569908875" height="282">
  <!-- svg-source:excalidraw -->
  
  <defs>
    <style class="style-fonts">
      @font-face {
        font-family: "Virgil";
        src: url("https://excalidraw.com/Virgil.woff2");
      }
      @font-face {
        font-family: "Cascadia";
        src: url("https://excalidraw.com/Cascadia.woff2");
      }
    </style>
  </defs>
  <rect x="0" y="0" width="429.57872569908875" height="282" fill="#ffffff"></rect><g stroke-linecap="round" transform="translate(11.167675701425082 10) rotate(0 203.5 131)"><path d="M-0.72 0.81 C83.85 -0.1, 167.57 0.28, 406.44 0.79 M-0.17 -0.37 C159.92 0.76, 320.14 0.87, 407.28 -0.11 M408.14 -0.07 C405.33 60.71, 406.51 119.33, 406.25 263.48 M406.78 0.23 C404.51 74.61, 404.56 147.34, 406.93 262.39 M405.9 261.02 C293.97 263.04, 178.83 263.44, -0.06 262.71 M406.73 262.11 C270.38 261.81, 133.83 261.61, -0.32 261.51 M-0.68 260.76 C2.01 168.58, 0.95 76.82, -0.69 1.33 M-0.56 261.52 C0.4 181.57, 0.72 99.6, -0.8 0.44" stroke="#000000" stroke-width="1" fill="none"></path></g><g transform="translate(141.16767570142508 20) rotate(0 68 18)"><text x="0" y="25" font-family="Virgil, Segoe UI Emoji" font-size="28px" fill="#000000" text-anchor="start" style="white-space: pre;" direction="ltr">Global VO</text></g><g stroke-linecap="round"><g transform="translate(397.1676757014251 128) rotate(0 0 0)"><path d="M0 0 C0 0, 0 0, 0 0 M0 0 C0 0, 0 0, 0 0" stroke="#000000" stroke-width="1" fill="none"></path></g><g transform="translate(397.1676757014251 128) rotate(0 0 0)"><path d="MNaN NaN CNaN NaN, NaN NaN, NaN NaN MNaN NaN CNaN NaN, NaN NaN, NaN NaN" stroke="#000000" stroke-width="1" fill="none"></path></g><g transform="translate(397.1676757014251 128) rotate(0 0 0)"><path d="MNaN NaN CNaN NaN, NaN NaN, NaN NaN MNaN NaN CNaN NaN, NaN NaN, NaN NaN" stroke="#000000" stroke-width="1" fill="none"></path></g></g><mask></mask><g stroke-linecap="round"><g transform="translate(13.167675701425082 61) rotate(0 201.58118473837482 0.5443769478971063)"><path d="M-0.81 1.07 C150.03 -0.2, 302.24 -1.48, 403.41 0.65 M-0.37 -0.33 C94.44 1.88, 187.93 1.7, 403.97 1.4" stroke="#000000" stroke-width="1" fill="none"></path></g></g><mask></mask><g stroke-linecap="round"><g transform="translate(15.966858984239934 125.41349417269242) rotate(0 200.04820854149654 2.6095456766179836)"><path d="M-0.96 -0.79 C116.91 1.51, 235 3.41, 400.04 6.01 M0.17 0.52 C155.09 -0.36, 310.21 2.03, 401.06 4.5" stroke="#000000" stroke-width="1" fill="none"></path></g></g><mask></mask><g stroke-linecap="round"><g transform="translate(10.987587375648786 203.69056573842988) rotate(0 203.8017754738956 0.7512944682990224)"><path d="M-0.99 0.25 C141.8 1.01, 281.99 2.57, 408.59 1.31 M-0.02 0.12 C94.24 -1.09, 189.65 -0.07, 407.65 1.9" stroke="#000000" stroke-width="1" fill="none"></path></g></g><mask></mask><g stroke-linecap="round"><g transform="translate(207.66767570142508 60) rotate(0 -2.1957767992280424 74.15812446316704)"><path d="M-1.2 1.54 C-1.5 32.87, -4.18 62.23, -4.44 147.58 M0.04 0.73 C-1.87 40.42, -3.15 82.31, -2.09 146.07" stroke="#000000" stroke-width="1" fill="none"></path></g></g><mask></mask><g transform="translate(91.66767570142508 80.5) rotate(0 17 13)"><text x="0" y="18" font-family="Virgil, Segoe UI Emoji" font-size="20px" fill="#000000" text-anchor="start" style="white-space: pre;" direction="ltr">foo</text></g><g transform="translate(90.66767570142508 158) rotate(0 17 13)"><text x="0" y="18" font-family="Virgil, Segoe UI Emoji" font-size="20px" fill="#000000" text-anchor="start" style="white-space: pre;" direction="ltr">bar</text></g><g transform="translate(154.66767570142508 226) rotate(0 49.5 13)"><text x="0" y="18" font-family="Virgil, Segoe UI Emoji" font-size="20px" fill="#000000" text-anchor="start" style="white-space: pre;" direction="ltr">&lt;built-ins&gt;</text></g><g transform="translate(296.6676757014251 86) rotate(0 10.5 13)"><text x="0" y="18" font-family="Virgil, Segoe UI Emoji" font-size="20px" fill="#000000" text-anchor="start" style="white-space: pre;" direction="ltr">10</text></g><g transform="translate(259.6676757014251 156) rotate(0 50 13)"><text x="0" y="18" font-family="Virgil, Segoe UI Emoji" font-size="20px" fill="#000000" text-anchor="start" style="white-space: pre;" direction="ltr">&lt;function&gt;</text></g></svg>