<svg version="1.1" xmlns="http://www.w3.org/2000/svg" viewBox="0 0 841 86.5" width="841" height="86.5">
  <!-- svg-source:excalidraw -->
  
  <defs>
    <style class="style-fonts">
      @font-face {
        font-family: "Virgil";
        src: url("https://excalidraw.com/Virgil.woff2");
      }
      @font-face {
        font-family: "Cascadia";
        src: url("https://excalidraw.com/Cascadia.woff2");
      }
    </style>
  </defs>
  <rect x="0" y="0" width="841" height="86.5" fill="#ffffff"></rect><g stroke-linecap="round" transform="translate(10 15.5) rotate(0 89 30.5)"><path d="M-1.75 -1.75 C51.39 0.52, 102.42 -0.14, 177.04 -1.81 M-0.14 0.07 C52.15 -2.24, 104.6 -2.38, 178.67 0.53 M177.33 -0.38 C177.55 17.59, 178.79 33.18, 179.5 59.06 M178.29 -0.32 C177.94 19.84, 177.46 41.39, 177.99 60.18 M176.39 62.78 C119.42 62.16, 64.29 63.07, 0.77 59.11 M177.46 61.59 C140.37 59.5, 100.67 59.33, 0.06 61.46 M-1.35 59.57 C0.14 44.16, 0.83 28.16, -1.17 -0.9 M-0.62 61.62 C-0.29 40.86, -0.31 20.25, 0.29 0.44" stroke="#000000" stroke-width="1" fill="none"></path></g><g transform="translate(57 37.5) rotate(0 38.5 13)"><text x="0" y="18" font-family="Virgil, Segoe UI Emoji" font-size="20px" fill="#000000" text-anchor="start" style="white-space: pre;" direction="ltr">point3D</text></g><g stroke-linecap="round" transform="translate(272 14) rotate(0 89 30.5)"><path d="M-1.35 -1.43 C48.88 1.18, 97.74 1.69, 176.83 -0.9 M-0.62 0.62 C58.31 -0.18, 116.51 -0.84, 178.29 0.44 M176.61 -1.3 C179.11 17.56, 177.37 36.6, 178.82 59.8 M177.93 -0.91 C178.96 22.42, 178.44 43.9, 177.03 61.65 M178.95 59.92 C128.92 59.03, 76.16 60.78, -0.08 62.14 M177.43 60.3 C117.42 62.42, 58.26 62.1, 0.12 61.5 M1.39 62.12 C0.92 38.65, -0.41 11.32, -1.75 1.29 M-0.78 61.91 C1.37 45.54, -0.42 30.29, -0.5 -0.26" stroke="#000000" stroke-width="1" fill="none"></path></g><g transform="translate(337 31.5) rotate(0 24 13)"><text x="24" y="18" font-family="Virgil, Segoe UI Emoji" font-size="20px" fill="#000000" text-anchor="middle" style="white-space: pre;" direction="ltr">point</text></g><g stroke-linecap="round" transform="translate(529 10) rotate(0 89 30.5)"><path d="M1.12 1.2 C63.45 -1.37, 121.93 -2.99, 179.29 -0.81 M0.91 0.78 C36.83 0.38, 73.88 0.88, 177.74 0.96 M179.46 1.49 C177.41 24.11, 179.09 44.21, 176.86 61.89 M178.46 -0.82 C178.96 15.04, 179.18 31.04, 178.9 60.72 M177.49 59.68 C112.47 64.08, 46.25 61.52, -1.07 60.56 M177.73 60.73 C140.46 59.76, 102.82 60.7, -0.29 61.07 M-0.72 60.01 C-0.73 44.61, -0.51 32.61, 1.26 -0.95 M0.21 60.69 C0.21 36.49, 0.45 12.3, -0.46 0.22" stroke="#000000" stroke-width="1" fill="none"></path></g><g transform="translate(536 27.5) rotate(0 82 13)"><text x="82" y="18" font-family="Virgil, Segoe UI Emoji" font-size="20px" fill="#000000" text-anchor="middle" style="white-space: pre;" direction="ltr">Object.prototype</text></g><g transform="translate(798 30.5) rotate(0 16.5 13)"><text x="0" y="18" font-family="Virgil, Segoe UI Emoji" font-size="20px" fill="#000000" text-anchor="start" style="white-space: pre;" direction="ltr">null</text></g><g stroke-linecap="round"><g transform="translate(189 47.5) rotate(0 40.3375298185274 0.7744673819042589)"><path d="M0.37 1.93 C32.53 1.23, 61.55 -1.36, 80.7 0.02 M-0.03 0.78 C18.91 -0.93, 38.66 -0.26, 79.03 -0.14" stroke="#000000" stroke-width="1" fill="none"></path></g><g transform="translate(189 47.5) rotate(0 40.3375298185274 0.7744673819042589)"><path d="M51.15 11.88 C63.23 7.75, 72.21 1.64, 79.73 0.88 M50.75 10.74 C57.16 6.97, 64.35 5.43, 78.05 0.72" stroke="#000000" stroke-width="1" fill="none"></path></g><g transform="translate(189 47.5) rotate(0 40.3375298185274 0.7744673819042589)"><path d="M51.26 -8.64 C63.41 -4.82, 72.35 -3, 79.73 0.88 M50.87 -9.78 C57.18 -8.57, 64.33 -5.13, 78.05 0.72" stroke="#000000" stroke-width="1" fill="none"></path></g></g><mask></mask><g stroke-linecap="round"><g transform="translate(450 46.5) rotate(0 39.322653274051845 0.29619175661355257)"><path d="M-1.03 1.86 C24.12 -2.16, 50.5 -1.87, 78.53 0.98 M-0.89 0.78 C26.61 -1, 52.91 0.41, 79.67 -1.27" stroke="#000000" stroke-width="1" fill="none"></path></g><g transform="translate(450 46.5) rotate(0 39.322653274051845 0.29619175661355257)"><path d="M50.83 11.84 C59.96 5.08, 70.41 2.25, 78.2 0.71 M50.97 10.76 C61.11 5.51, 70.12 3.53, 79.34 -1.54" stroke="#000000" stroke-width="1" fill="none"></path></g><g transform="translate(450 46.5) rotate(0 39.322653274051845 0.29619175661355257)"><path d="M50.11 -8.67 C59.65 -9.18, 70.32 -5.75, 78.2 0.71 M50.25 -9.75 C60.77 -8.2, 70.02 -3.39, 79.34 -1.54" stroke="#000000" stroke-width="1" fill="none"></path></g></g><mask></mask><g stroke-linecap="round"><g transform="translate(708 42.5) rotate(0 42.50681801699102 0.35889558121562004)"><path d="M0.23 1.77 C33.14 0.67, 67.51 1.37, 84.23 -1.05 M-0.97 0.84 C28.95 -0.86, 57.33 -1.34, 85.99 0.39" stroke="#000000" stroke-width="1" fill="none"></path></g><g transform="translate(708 42.5) rotate(0 42.50681801699102 0.35889558121562004)"><path d="M57.65 11.33 C68.33 6.73, 80.5 3.89, 84.22 -0.67 M56.45 10.4 C67.42 5.97, 76.82 2.46, 85.97 0.78" stroke="#000000" stroke-width="1" fill="none"></path></g><g transform="translate(708 42.5) rotate(0 42.50681801699102 0.35889558121562004)"><path d="M58.44 -9.17 C68.87 -5.84, 80.73 -0.76, 84.22 -0.67 M57.24 -10.11 C67.91 -7.76, 77.05 -4.49, 85.97 0.78" stroke="#000000" stroke-width="1" fill="none"></path></g></g><mask></mask></svg>