<svg version="1.1" xmlns="http://www.w3.org/2000/svg" viewBox="0 0 862 859.5" width="862" height="859.5">
  <!-- svg-source:excalidraw -->
  
  <defs>
    <style class="style-fonts">
      @font-face {
        font-family: "Virgil";
        src: url("https://excalidraw.com/Virgil.woff2");
      }
      @font-face {
        font-family: "Cascadia";
        src: url("https://excalidraw.com/Cascadia.woff2");
      }
    </style>
  </defs>
  <rect x="0" y="0" width="862" height="859.5" fill="#ffffff"></rect><g stroke-linecap="round" transform="translate(10 10) rotate(0 186 419.75)"><path d="M-0.99 -0.48 C106.04 1.19, 210.31 3.13, 372.42 -0.81 M-0.02 0.01 C111.53 -0.64, 222.73 -0.92, 371.76 -0.31 M372.07 0.11 C375.75 305.66, 374.47 610.44, 371.93 839.6 M372.2 -0.1 C373.34 324.28, 373.29 649.28, 372.2 839.5 M371.24 840.4 C265.99 839.94, 158.96 839.2, -0.51 839.74 M372.6 839.53 C296.62 840.28, 220.66 839.54, -0.14 839.98 M0.73 839.25 C-1.78 668.46, -1.9 498.57, -0.01 0.53 M0.33 839.22 C0.03 562.87, -0.02 285.58, -0.35 0.35" stroke="#000000" stroke-width="1" fill="none"></path></g><g stroke-linecap="round" transform="translate(548 215) rotate(0 152 108.25)"><path d="M0.95 0.1 C105.83 -2.29, 210.93 -1.51, 302.73 0.23 M0.42 -0.14 C78.79 0.11, 156.19 0.5, 303.78 -0.5 M305.36 -0.91 C306.17 51.23, 304.53 106.95, 304.84 215.5 M304.18 0.86 C304.38 73.45, 304.62 144.44, 304.51 216.14 M304.79 216.55 C205.84 219.75, 109.38 217.89, -0.8 216.95 M304.28 215.8 C189.31 216.89, 74.79 217.24, 0.45 216.42 M-1.22 215.15 C-1.32 141.09, -0.79 63.79, 1.6 1.17 M-0.8 216.92 C0.24 164.88, 0.07 113.24, -0.29 0.33" stroke="#000000" stroke-width="1" fill="none"></path></g><g stroke-linecap="round" transform="translate(70 54) rotate(0 136 85)"><path d="M-0.48 1.26 C91.68 2.89, 184.89 2.95, 270.95 -0.39 M-0.36 0.43 C55.44 1.58, 111.84 0.89, 272.24 -0.49 M270.52 0.57 C269.65 57.46, 271.8 111.25, 273.55 169.66 M271.01 -0.67 C272.25 62.14, 271.4 124.6, 272.69 169.06 M270.82 169.19 C214.21 171.45, 155.86 171.72, -0.69 168.66 M271.64 170.1 C212.46 170.15, 154.02 170.3, -0.1 169.75 M-0.07 169.46 C0.57 128.44, -0.34 87.63, -0.45 1.59 M0.6 169.79 C-1.51 104.3, -1.03 37.99, 0.56 -0.23" stroke="#000000" stroke-width="1" fill="none"></path></g><g stroke-linecap="round" transform="translate(70.75 278.75) rotate(0 138.5 89.5)"><path d="M1.05 0.2 C71.77 1.16, 140.37 0.42, 277.78 0.61 M-0.36 0.2 C81.7 -1.7, 164.87 -0.83, 277.59 0.43 M278.08 0.54 C277.55 65.59, 276.17 128.98, 277.03 177 M277.95 -0.79 C274.48 70.22, 275.37 140.61, 276.72 179.96 M278.53 180.22 C188.03 178.9, 96.69 178.39, -0.4 178.13 M277.26 178.5 C173.39 177.63, 70.63 176.89, -0.45 178.45 M-1.9 180.47 C-0.25 120.64, 0.88 65.62, -0.9 0.96 M-0.54 179.34 C-0.15 140.83, 0.25 104.23, 0.74 -0.03" stroke="#000000" stroke-width="1" fill="none"></path></g><g stroke-linecap="round" transform="translate(37.74777935552606 506) rotate(0 163.8169906778088 162.2748222001004)"><path d="M0.47 -0.89 C121.05 1.56, 243.6 0.25, 326.82 -0.98 M-0.65 0.5 C102.83 -1.36, 206.49 -0.88, 327.32 0.33 M326.88 0.47 C328.54 66.76, 329.11 135.69, 328.66 324.51 M327.26 0.16 C325.24 121.55, 325.97 243.87, 327.98 324.23 M326.33 325.22 C206.85 323.67, 82.71 325.08, -1.1 323.84 M328.11 324.25 C220.72 324.84, 114.6 324.49, 0.55 324.39 M-0.03 325.46 C-2.31 252.38, -0.83 177.41, -0.09 0.44 M0.56 324.71 C-0.49 238.46, -0.07 150.67, -0.21 -0.65" stroke="#000000" stroke-width="1" fill="none"></path></g><g stroke-linecap="round" transform="translate(67.05003951108881 558.3817607111437) rotate(0 137.77381065558546 121.80327170007763)"><path d="M0.78 -0.71 C61.66 2.52, 120.51 -0.45, 276.3 1.25 M-0.62 -0.4 C82.18 -2.72, 164.12 -1.59, 275.21 -0.17 M276.87 -0.39 C275.76 68.06, 277.07 134.7, 276.64 241.98 M275.49 0.26 C275.45 95.43, 276.52 191.2, 275.74 243.55 M275.07 242.15 C169.52 241.46, 67 242.18, 0.37 242.48 M276.16 244.29 C165.34 244.84, 54.73 244.15, -0.01 243.72 M-0.91 242.23 C-0.87 172.89, -1.58 104.82, -1.59 -1.04 M-0.5 243.2 C2.57 183.77, 1.01 124.18, -0.04 0.13" stroke="#000000" stroke-width="1" fill="none"></path></g><g transform="translate(33.75 17) rotate(0 119.5 13)"><text x="0" y="18" font-family="Virgil, Segoe UI Emoji" font-size="20px" fill="#000000" text-anchor="start" style="white-space: pre;" direction="ltr">foo context scope chain</text></g><g stroke-linecap="round"><g transform="translate(67.5 94.75) rotate(0 134.99403326552851 -0.8433287576357742)"><path d="M-0.82 -0.29 C68.77 0.7, 138.98 -0.22, 270.68 -1.81 M-0.01 -0.31 C76.62 0.3, 153.94 0.52, 270.8 -1.71" stroke="#000000" stroke-width="1" fill="none"></path></g></g><mask></mask><g stroke-linecap="round"><g transform="translate(70 134.75) rotate(0 135.84964865001064 1.2176757424916218)"><path d="M-0.99 0.73 C95.55 3.7, 191.79 2.41, 272.69 0.7 M-0.33 0.74 C94.33 -1.05, 189.5 0.63, 272.11 1.15" stroke="#000000" stroke-width="1" fill="none"></path></g></g><mask></mask><g stroke-linecap="round"><g transform="translate(70 184.75) rotate(0 134.47802124442347 -1.7374589004114114)"><path d="M-1.04 -1.17 C91.39 -3.18, 182.82 -4.25, 270 -1.18 M0.67 -0.5 C90.75 -0.22, 180.67 -0.26, 269.67 -2.09" stroke="#000000" stroke-width="1" fill="none"></path></g></g><mask></mask><g stroke-linecap="round"><g transform="translate(197.5 96) rotate(0 -0.027360442625933956 64.23198701068759)"><path d="M0.01 -1.91 C-2.28 27.37, 1.2 60, -0.35 130.37 M0.48 0.34 C1.25 32.78, 0.14 64.24, -0.44 129.2" stroke="#000000" stroke-width="1" fill="none"></path></g></g><mask></mask><g transform="translate(128.75 104.5) rotate(0 6.5 13)"><text x="0" y="18" font-family="Virgil, Segoe UI Emoji" font-size="20px" fill="#000000" text-anchor="start" style="white-space: pre;" direction="ltr">z</text></g><g transform="translate(256.25 108.25) rotate(0 14 13)"><text x="0" y="18" font-family="Virgil, Segoe UI Emoji" font-size="20px" fill="#000000" text-anchor="start" style="white-space: pre;" direction="ltr">50</text></g><g transform="translate(148.75 63.25) rotate(0 55 13)"><text x="0" y="18" font-family="Virgil, Segoe UI Emoji" font-size="20px" fill="#000000" text-anchor="start" style="white-space: pre;" direction="ltr">with object</text></g><g transform="translate(92.41467677681544 146.91467677681538) rotate(0 45 13.5)"><text x="0" y="21" font-family="Helvetica, Segoe UI Emoji" font-size="20px" fill="#000000" text-anchor="start" style="white-space: pre;" direction="ltr">__proto__</text></g><g transform="translate(88.75 191.25) rotate(0 50 13.5)"><text x="0" y="21" font-family="Helvetica, Segoe UI Emoji" font-size="20px" fill="#000000" text-anchor="start" style="white-space: pre;" direction="ltr">__parent__</text></g><g stroke-linecap="round"><g transform="translate(70 319.75) rotate(0 137.77363054772673 -0.9934244979481832)"><path d="M0.14 1.28 C64.04 -2.22, 128.87 -3.21, 275.23 -1.6 M0.51 -0.19 C80.63 1.16, 160.94 -0.7, 275.41 -3.26" stroke="#000000" stroke-width="1" fill="none"></path></g></g><mask></mask><g stroke-linecap="round"><g transform="translate(71.25 361) rotate(0 137.9386473759751 0.3863123273858946)"><path d="M-1.24 -1.26 C71.9 -0.29, 142.95 -1.04, 277.12 2.03 M0.14 0.16 C77.8 1.64, 155.85 2.29, 276.74 1.79" stroke="#000000" stroke-width="1" fill="none"></path></g></g><mask></mask><g stroke-linecap="round"><g transform="translate(70 404.75) rotate(0 137.7999102741652 0.6769288533331519)"><path d="M1.39 0.99 C101.66 1.62, 207.13 2.05, 274.44 -0.36 M-0.02 0.63 C101.56 1.41, 204.33 2.62, 275.62 0.65" stroke="#000000" stroke-width="1" fill="none"></path></g></g><mask></mask><g stroke-linecap="round"><g transform="translate(198.75 317.25) rotate(0 0.29910007398575544 68.87326650694013)"><path d="M-0.65 -1.44 C1.36 29.46, 1.85 56.82, -0.23 139.19 M0.51 -0.28 C0.6 38.5, 0.7 75.96, 1.25 137.91" stroke="#000000" stroke-width="1" fill="none"></path></g></g><mask></mask><g transform="translate(183.75 286.75) rotate(0 36 13)"><text x="0" y="18" font-family="Virgil, Segoe UI Emoji" font-size="20px" fill="#000000" text-anchor="start" style="white-space: pre;" direction="ltr">foo AO</text></g><g transform="translate(127.5 329.5) rotate(0 7 13)"><text x="0" y="18" font-family="Virgil, Segoe UI Emoji" font-size="20px" fill="#000000" text-anchor="start" style="white-space: pre;" direction="ltr">w</text></g><g transform="translate(263.75 328.25) rotate(0 14.5 13)"><text x="0" y="18" font-family="Virgil, Segoe UI Emoji" font-size="20px" fill="#000000" text-anchor="start" style="white-space: pre;" direction="ltr">40</text></g><g transform="translate(131.25 377) rotate(0 6.5 13)"><text x="0" y="18" font-family="Virgil, Segoe UI Emoji" font-size="20px" fill="#000000" text-anchor="start" style="white-space: pre;" direction="ltr">x</text></g><g transform="translate(265 375.75) rotate(0 17.5 13)"><text x="0" y="18" font-family="Virgil, Segoe UI Emoji" font-size="20px" fill="#000000" text-anchor="start" style="white-space: pre;" direction="ltr">100</text></g><g transform="translate(81.25 425) rotate(0 50 13.5)"><text x="0" y="21" font-family="Helvetica, Segoe UI Emoji" font-size="20px" fill="#000000" text-anchor="start" style="white-space: pre;" direction="ltr">__parent__</text></g><g stroke-linecap="round"><g transform="translate(548.75 264.75) rotate(0 150.27019929323808 1.148619758351117)"><path d="M-1.36 1.45 C96.09 1.52, 190.51 0.92, 301.55 2.85 M0.53 -0.55 C67.73 0.65, 136.04 0.58, 301.9 2.82" stroke="#000000" stroke-width="1" fill="none"></path></g></g><mask></mask><g stroke-linecap="round"><g transform="translate(546.25 321) rotate(0 151.70960017298614 1.5435000001290007)"><path d="M1.23 -0.46 C65.32 1.26, 133.73 0.48, 303.23 3.55 M0.01 0.55 C99.53 2.49, 200.25 3.92, 303.41 3.11" stroke="#000000" stroke-width="1" fill="none"></path></g></g><mask></mask><g stroke-linecap="round"><g transform="translate(548.75 378.5) rotate(0 151.5274022900661 -2.109850586872824)"><path d="M-0.09 1.03 C99.79 -2.19, 199.1 -3.53, 302.69 -4.88 M-0.11 0 C78.16 0.28, 155.59 -1.56, 303.17 -5.25" stroke="#000000" stroke-width="1" fill="none"></path></g></g><mask></mask><g stroke-linecap="round"><g transform="translate(693.75 267.25) rotate(0 0.1386405123480472 25.42326977290213)"><path d="M-1.02 1.7 C0.66 21.69, 2.2 39.49, 0.67 48.03 M0.51 0.8 C-1.2 13.04, -1.07 25.76, 0.76 50.05" stroke="#000000" stroke-width="1" fill="none"></path></g></g><mask></mask><g transform="translate(623.75 225.75) rotate(0 82 13)"><text x="0" y="18" font-family="Virgil, Segoe UI Emoji" font-size="20px" fill="#000000" text-anchor="start" style="white-space: pre;" direction="ltr">Object.prototype</text></g><g stroke-linecap="round"><g transform="translate(693.75 377.25) rotate(0 1.176775062456727 27.420765209943056)"><path d="M-0.47 -0.05 C-0.63 13.74, 1.38 32.55, 0.8 54.89 M-0.7 0.03 C-0.21 12.02, 1.28 24.75, 3.06 54.44" stroke="#000000" stroke-width="1" fill="none"></path></g></g><mask></mask><g transform="translate(618.75 279.5) rotate(0 6.5 13)"><text x="0" y="18" font-family="Virgil, Segoe UI Emoji" font-size="20px" fill="#000000" text-anchor="start" style="white-space: pre;" direction="ltr">x</text></g><g transform="translate(768.75 285.75) rotate(0 10.5 13)"><text x="0" y="18" font-family="Virgil, Segoe UI Emoji" font-size="20px" fill="#000000" text-anchor="start" style="white-space: pre;" direction="ltr">10</text></g><g transform="translate(646.25 342) rotate(0 49.5 13)"><text x="0" y="18" font-family="Virgil, Segoe UI Emoji" font-size="20px" fill="#000000" text-anchor="start" style="white-space: pre;" direction="ltr">&lt;built-ins&gt;</text></g><g transform="translate(580 393.75) rotate(0 45 13.5)"><text x="0" y="21" font-family="Helvetica, Segoe UI Emoji" font-size="20px" fill="#000000" text-anchor="start" style="white-space: pre;" direction="ltr">__proto__</text></g><g transform="translate(758.75 397) rotate(0 16.5 13)"><text x="0" y="18" font-family="Virgil, Segoe UI Emoji" font-size="20px" fill="#000000" text-anchor="start" style="white-space: pre;" direction="ltr">null</text></g><g stroke-linecap="round"><g transform="translate(298.75 156) rotate(0 195.7219710129517 28.504176361202752)"><path d="M-0.35 0.58 C149.83 23.37, 297.36 43.13, 391 56.11 M0.56 0.36 C80.91 10.51, 162.56 22.63, 391.8 56.65" stroke="#000000" stroke-width="1" fill="none"></path></g><g transform="translate(298.75 156) rotate(0 195.7219710129517 28.504176361202752)"><path d="M361.79 63.69 C374.93 61.49, 383.88 56.36, 391.37 56.4 M363.38 63.29 C367.69 60.8, 374.63 60.34, 392.75 57.34" stroke="#000000" stroke-width="1" fill="none"></path></g><g transform="translate(298.75 156) rotate(0 195.7219710129517 28.504176361202752)"><path d="M364.8 43.39 C376.93 48.9, 384.75 51.48, 391.37 56.4 M366.39 42.99 C370.2 44.72, 376.5 48.47, 392.75 57.34" stroke="#000000" stroke-width="1" fill="none"></path></g></g><mask></mask><g stroke-linecap="round"><g transform="translate(263.75 207.25) rotate(0 -25.152482325211167 34.90067973174155)"><path d="M-0.38 1.86 C-16.57 23.89, -35.99 49.89, -50.65 70.17 M0.35 -0.83 C-17.04 25.18, -34.6 47.96, -50.66 70.63" stroke="#000000" stroke-width="1" fill="none"></path></g><g transform="translate(263.75 207.25) rotate(0 -25.152482325211167 34.90067973174155)"><path d="M-42.86 43.62 C-43.63 51.08, -47.77 62.47, -50.05 70.79 M-42.12 40.94 C-44.77 52.59, -47.27 60.97, -50.07 71.26" stroke="#000000" stroke-width="1" fill="none"></path></g><g transform="translate(263.75 207.25) rotate(0 -25.152482325211167 34.90067973174155)"><path d="M-26.22 55.64 C-32.86 58.82, -42.9 65.95, -50.05 70.79 M-25.48 52.95 C-34.06 60.38, -42.37 64.56, -50.07 71.26" stroke="#000000" stroke-width="1" fill="none"></path></g></g><mask></mask><g transform="translate(49.67311519978102 515.4459854442872) rotate(0 66.5 13)"><text x="0" y="18" font-family="Virgil, Segoe UI Emoji" font-size="20px" fill="#000000" text-anchor="start" style="white-space: pre;" direction="ltr">foo.[[Scope]]</text></g><g stroke-linecap="round"><g transform="translate(70.53671564424565 601.6413070888069) rotate(0 134.33800434653625 -0.35684085940522436)"><path d="M-0.94 0.45 C80.25 1.87, 160.28 1.49, 269.43 -0.76 M-0.2 0.24 C62.63 -0.27, 124.24 0.3, 269.62 -2" stroke="#000000" stroke-width="1" fill="none"></path></g></g><mask></mask><g transform="translate(156.07747746655104 570.7345266221189) rotate(0 49 13)"><text x="0" y="18" font-family="Virgil, Segoe UI Emoji" font-size="20px" fill="#000000" text-anchor="start" style="white-space: pre;" direction="ltr">Global VO</text></g><g stroke-linecap="round"><g transform="translate(65.32081553312946 637.1094278443968) rotate(0 138.3789708916987 -0.26310920302404384)"><path d="M-0.41 0.22 C66.51 0.36, 137.31 -0.01, 277.17 -0.77 M0.08 -0.57 C66.21 0.53, 133.37 -0.24, 276.26 -0.67" stroke="#000000" stroke-width="1" fill="none"></path></g></g><mask></mask><g stroke-linecap="round"><g transform="translate(66.36399555535263 680.9229887777727) rotate(0 138.06560484714345 -1.378117523046683)"><path d="M-0.17 -1.13 C60.55 -1.23, 123.45 -2.4, 276.78 -3.17 M-0.65 0.41 C87.52 -0.69, 175.99 -2.02, 275.02 -2.71" stroke="#000000" stroke-width="1" fill="none"></path></g></g><mask></mask><g stroke-linecap="round"><g transform="translate(67.40717557757591 717.434289555586) rotate(0 137.14180901749336 0.24860457971198002)"><path d="M-0.03 -1.38 C79.87 -0.57, 159.01 1.09, 273.02 -0.28 M0.12 0.06 C75.49 2.24, 151.94 2.75, 274.31 -0.03" stroke="#000000" stroke-width="1" fill="none"></path></g></g><mask></mask><g stroke-linecap="round"><g transform="translate(66.36399555535274 759.1614904445155) rotate(0 137.66989084400927 -0.37866708009289596)"><path d="M0.7 -0.87 C81.5 0.34, 163.65 1.71, 274.95 -1.58 M0.23 -0.25 C109.51 1.7, 219.43 0.75, 275.11 -1.23" stroke="#000000" stroke-width="1" fill="none"></path></g></g><mask></mask><g stroke-linecap="round"><g transform="translate(189.4592381776946 602.68448711103) rotate(0 0.8687043458274388 36.87766939178499)"><path d="M1.31 -1.7 C-0.13 17.79, -1.13 39.59, 1.82 75.46 M0.29 -0.82 C0.36 23.41, 0.73 45.42, 0.21 75.31" stroke="#000000" stroke-width="1" fill="none"></path></g></g><mask></mask><g stroke-linecap="round"><g transform="translate(189.4592381776946 721.6070096444789) rotate(0 -0.4571949574311702 38.84079414087029)"><path d="M-0.78 1.3 C-0.83 17.78, 0.56 37.77, -0.96 76.73 M-0.21 0.95 C0.44 16.73, 0.28 35.44, -1.07 76.25" stroke="#000000" stroke-width="1" fill="none"></path></g></g><mask></mask><g transform="translate(123.73889677763066 610.3753674666018) rotate(0 7 13)"><text x="0" y="18" font-family="Virgil, Segoe UI Emoji" font-size="20px" fill="#000000" text-anchor="start" style="white-space: pre;" direction="ltr">w</text></g><g transform="translate(251.00685948886553 612.4617275110483) rotate(0 15 13)"><text x="0" y="18" font-family="Virgil, Segoe UI Emoji" font-size="20px" fill="#000000" text-anchor="start" style="white-space: pre;" direction="ltr">20</text></g><g transform="translate(125.82525682207722 648.9730282888615) rotate(0 5.5 13)"><text x="0" y="18" font-family="Virgil, Segoe UI Emoji" font-size="20px" fill="#000000" text-anchor="start" style="white-space: pre;" direction="ltr">y</text></g><g transform="translate(254.13639955553526 652.1025683555313) rotate(0 14.5 13)"><text x="0" y="18" font-family="Virgil, Segoe UI Emoji" font-size="20px" fill="#000000" text-anchor="start" style="white-space: pre;" direction="ltr">30</text></g><g transform="translate(110.17755648872867 689.6570491555677) rotate(0 90 13)"><text x="0" y="18" font-family="Virgil, Segoe UI Emoji" font-size="20px" fill="#000000" text-anchor="start" style="white-space: pre;" direction="ltr">&lt;other-properties&gt;</text></g><g transform="translate(84.6125714308132 723.893598654071) rotate(0 45 13.5)"><text x="0" y="21" font-family="Helvetica, Segoe UI Emoji" font-size="20px" fill="#000000" text-anchor="start" style="white-space: pre;" direction="ltr">__proto__</text></g><g transform="translate(76.11854110036722 764.6572858426082) rotate(0 50 13.5)"><text x="0" y="21" font-family="Helvetica, Segoe UI Emoji" font-size="20px" fill="#000000" text-anchor="start" style="white-space: pre;" direction="ltr">__parent__</text></g><g stroke-linecap="round"><g transform="translate(288.0086130777006 742.0523057613323) rotate(0 129.23739934955267 -251.09681653679078)"><path d="M-0.29 -0.49 C63.33 -117.98, 124.79 -236.5, 258.55 -502.26 M-0.22 0.1 C92.41 -178.14, 184.08 -355.99, 258.76 -502.3" stroke="#000000" stroke-width="1" fill="none"></path></g><g transform="translate(288.0086130777006 742.0523057613323) rotate(0 129.23739934955267 -251.09681653679078)"><path d="M254.33 -473.75 C256.36 -479.13, 257.72 -485.09, 258.74 -503 M254.49 -472.27 C256.98 -484.08, 257.83 -493.44, 259.27 -503.1" stroke="#000000" stroke-width="1" fill="none"></path></g><g transform="translate(288.0086130777006 742.0523057613323) rotate(0 129.23739934955267 -251.09681653679078)"><path d="M236.06 -483.1 C242.33 -486.13, 248.02 -489.87, 258.74 -503 M236.22 -481.62 C245.19 -490, 252.53 -496.04, 259.27 -503.1" stroke="#000000" stroke-width="1" fill="none"></path></g></g><mask></mask><g transform="translate(250.54443109502427 767.4866393962388) rotate(0 16.5 13)"><text x="0" y="18" font-family="Virgil, Segoe UI Emoji" font-size="20px" fill="#000000" text-anchor="start" style="white-space: pre;" direction="ltr">null</text></g></svg>