<svg version="1.1" xmlns="http://www.w3.org/2000/svg" viewBox="0 0 1149.5103992074728 207" width="1149.5103992074728" height="207">
  <!-- svg-source:excalidraw -->
  
  <defs>
    <style class="style-fonts">
      @font-face {
        font-family: "Virgil";
        src: url("https://excalidraw.com/Virgil.woff2");
      }
      @font-face {
        font-family: "Cascadia";
        src: url("https://excalidraw.com/Cascadia.woff2");
      }
    </style>
  </defs>
  <rect x="0" y="0" width="1149.5103992074728" height="207" fill="#ffffff"></rect><g stroke-linecap="round" transform="translate(10 16) rotate(0 98.5 61)"><path d="M-1.09 1.52 C40.68 2.01, 85.79 3.27, 195.02 1.35 M0.6 0.08 C65 -0.47, 128.68 0.42, 197.64 0.29 M195.4 1.57 C199.7 38.52, 196.69 72.83, 198.56 121.56 M196.14 0.07 C197.02 27.62, 195.93 52.58, 197.6 122.38 M198.41 122.67 C135.98 120.6, 71.12 120.19, -1.34 120.31 M196.42 122.37 C122.4 122.03, 48.12 123.24, 0.79 122.06 M-1.94 120.46 C-0.78 85.95, -0.16 54.19, 0.49 1.79 M-0.07 121.57 C0.75 90.31, 1.3 57.99, 0.7 0.38" stroke="#000000" stroke-width="1" fill="none"></path></g><g transform="translate(63 32) rotate(0 47 13)"><text x="0" y="18" font-family="Virgil, Segoe UI Emoji" font-size="20px" fill="#000000" text-anchor="start" style="white-space: pre;" direction="ltr">EC stack</text></g><g stroke-linecap="round"><g transform="translate(91 43) rotate(0 0 0)"><path d="M0 0 C0 0, 0 0, 0 0 M0 0 C0 0, 0 0, 0 0" stroke="#000000" stroke-width="1" fill="none"></path></g><g transform="translate(91 43) rotate(0 0 0)"><path d="MNaN NaN CNaN NaN, NaN NaN, NaN NaN MNaN NaN CNaN NaN, NaN NaN, NaN NaN" stroke="#000000" stroke-width="1" fill="none"></path></g><g transform="translate(91 43) rotate(0 0 0)"><path d="MNaN NaN CNaN NaN, NaN NaN, NaN NaN MNaN NaN CNaN NaN, NaN NaN, NaN NaN" stroke="#000000" stroke-width="1" fill="none"></path></g></g><mask></mask><g transform="translate(59.5 101) rotate(0 49.5 13)"><text x="0" y="18" font-family="Virgil, Segoe UI Emoji" font-size="20px" fill="#000000" text-anchor="start" style="white-space: pre;" direction="ltr">Global EC</text></g><g stroke-linecap="round"><g transform="translate(13 77) rotate(0 95.4024180485867 1.7474187962833412)"><path d="M-1.93 1.9 C57.04 2.8, 112.62 2.23, 192.22 3.18 M-0.21 0.16 C58.79 -0.01, 116.61 2.63, 192.74 3.34" stroke="#000000" stroke-width="1" fill="none"></path></g></g><mask></mask><g stroke-linecap="round" transform="translate(892.5 15) rotate(0 98.5 61)"><path d="M1.19 -1.51 C75.53 -2.68, 148.93 -3.28, 195.88 0.37 M0.43 0.23 C58.61 -0.14, 115.89 0.83, 196.22 0.89 M196.91 1.43 C195.36 39.6, 196.33 82.47, 196.24 120.47 M197.66 0.99 C197.92 40.95, 198.21 80.7, 196.92 121.98 M196.61 122.6 C145.25 124.03, 94.53 124.3, 1.68 123.26 M196.23 121.63 C142.63 123.55, 86.48 123.03, -0.12 122.33 M1.47 123.79 C-1.22 80.51, -0.35 41.77, 0.18 1.65 M-0.08 122.55 C-0.34 95.87, -1.07 70.9, -0.8 -0.19" stroke="#000000" stroke-width="1" fill="none"></path></g><g transform="translate(945.5 31) rotate(0 47 13)"><text x="0" y="18" font-family="Virgil, Segoe UI Emoji" font-size="20px" fill="#000000" text-anchor="start" style="white-space: pre;" direction="ltr">EC stack</text></g><g stroke-linecap="round"><g transform="translate(973.5 42) rotate(0 0 0)"><path d="M0 0 C0 0, 0 0, 0 0 M0 0 C0 0, 0 0, 0 0" stroke="#000000" stroke-width="1" fill="none"></path></g><g transform="translate(973.5 42) rotate(0 0 0)"><path d="MNaN NaN CNaN NaN, NaN NaN, NaN NaN MNaN NaN CNaN NaN, NaN NaN, NaN NaN" stroke="#000000" stroke-width="1" fill="none"></path></g><g transform="translate(973.5 42) rotate(0 0 0)"><path d="MNaN NaN CNaN NaN, NaN NaN, NaN NaN MNaN NaN CNaN NaN, NaN NaN, NaN NaN" stroke="#000000" stroke-width="1" fill="none"></path></g></g><mask></mask><g transform="translate(942 100) rotate(0 49.5 13)"><text x="0" y="18" font-family="Virgil, Segoe UI Emoji" font-size="20px" fill="#000000" text-anchor="start" style="white-space: pre;" direction="ltr">Global EC</text></g><g stroke-linecap="round"><g transform="translate(895.5 76) rotate(0 95.92084583081305 1.649099176749587)"><path d="M-1.16 -1.56 C42.23 2.2, 86.56 2.75, 193 4.86 M0.12 0.82 C61.52 2.47, 124.98 2.58, 192.19 3.96" stroke="#000000" stroke-width="1" fill="none"></path></g></g><mask></mask><g stroke-linecap="round"><g transform="translate(236 46) rotate(0 92.10156246460974 1.521729176864028)"><path d="M-0.12 0.69 C50.45 1.78, 98.81 0.34, 184.32 2.35" stroke="#000000" stroke-width="1.5" fill="none" stroke-dasharray="1.5 7"></path></g><g transform="translate(236 46) rotate(0 92.10156246460974 1.521729176864028)"><path d="M155.86 12.87 C165.44 10.07, 172.73 5.52, 184.64 2.71" stroke="#000000" stroke-width="1.5" fill="none" stroke-dasharray="1.5 5"></path></g><g transform="translate(236 46) rotate(0 92.10156246460974 1.521729176864028)"><path d="M156.17 -7.65 C165.53 -5.03, 172.74 -4.18, 184.64 2.71" stroke="#000000" stroke-width="1.5" fill="none" stroke-dasharray="1.5 5"></path></g></g><mask></mask><g transform="translate(262 16) rotate(0 64.5 13)"><text x="0" y="18" font-family="Virgil, Segoe UI Emoji" font-size="20px" fill="#000000" text-anchor="start" style="white-space: pre;" direction="ltr">Activate EC1</text></g><g stroke-linecap="round" transform="translate(439.5 10) rotate(0 98.5 93.5)"><path d="M-1.3 1.46 C40.14 0.54, 80.05 1.23, 195.99 1.43 M-0.31 -0.67 C76.96 0.27, 154.47 0.45, 197.5 -0.2 M198.43 -0.09 C195.6 43.71, 197.09 84.78, 196.06 188.85 M196.72 0.28 C194.57 53.68, 194.63 105.01, 196.91 187.49 M195.02 185.24 C143.04 188.4, 85.27 189.12, -0.11 188.29 M196.52 187.19 C130.71 186.54, 64.55 186.18, -0.58 186.11 M-0.85 185.44 C2.06 119.77, 0.72 54.61, -0.86 1.67 M-0.71 186.4 C0.41 130, 0.81 71.08, -1 0.55" stroke="#000000" stroke-width="1" fill="none"></path></g><g transform="translate(492.5 26) rotate(0 47 13)"><text x="0" y="18" font-family="Virgil, Segoe UI Emoji" font-size="20px" fill="#000000" text-anchor="start" style="white-space: pre;" direction="ltr">EC stack</text></g><g stroke-linecap="round"><g transform="translate(520.5 37) rotate(0 0 0)"><path d="M0 0 C0 0, 0 0, 0 0 M0 0 C0 0, 0 0, 0 0" stroke="#000000" stroke-width="1" fill="none"></path></g><g transform="translate(520.5 37) rotate(0 0 0)"><path d="MNaN NaN CNaN NaN, NaN NaN, NaN NaN MNaN NaN CNaN NaN, NaN NaN, NaN NaN" stroke="#000000" stroke-width="1" fill="none"></path></g><g transform="translate(520.5 37) rotate(0 0 0)"><path d="MNaN NaN CNaN NaN, NaN NaN, NaN NaN MNaN NaN CNaN NaN, NaN NaN, NaN NaN" stroke="#000000" stroke-width="1" fill="none"></path></g></g><mask></mask><g transform="translate(493 156) rotate(0 49.5 13)"><text x="0" y="18" font-family="Virgil, Segoe UI Emoji" font-size="20px" fill="#000000" text-anchor="start" style="white-space: pre;" direction="ltr">Global EC</text></g><g stroke-linecap="round"><g transform="translate(442.5 71) rotate(0 95.7520417929627 2.0600407840684056)"><path d="M-1.45 1.91 C70.92 1.75, 145.75 0.29, 191.94 3.37 M-0.66 -0.59 C45.46 2.24, 89.24 2.43, 192.95 4.71" stroke="#000000" stroke-width="1" fill="none"></path></g></g><mask></mask><g stroke-linecap="round"><g transform="translate(443.2479582070373 135.9399592159316) rotate(0 95.89160540141165 1.5628124359122637)"><path d="M-1.38 1.77 C48.52 2.71, 93.19 3.51, 193.16 2.6 M-0.72 -0.3 C42.32 -1.09, 85.74 0.5, 192.48 3.63" stroke="#000000" stroke-width="1" fill="none"></path></g></g><mask></mask><g transform="translate(522 96) rotate(0 17 13)"><text x="0" y="18" font-family="Virgil, Segoe UI Emoji" font-size="20px" fill="#000000" text-anchor="start" style="white-space: pre;" direction="ltr">EC1</text></g><g stroke-linecap="round"><g transform="translate(253 111) rotate(0 -22.764074122533202 0.37803119979798794)"><path d="M1.1 1.32 C-10.85 0.97, -24.36 -0.09, -46.63 -0.57 M0.79 0.3 C-12.4 1.09, -23.65 -0.19, -46.5 1.1" stroke="#000000" stroke-width="1" fill="none"></path></g><g transform="translate(253 111) rotate(0 -22.764074122533202 0.37803119979798794)"><path d="M-23.59 -6.34 C-28.67 -4.34, -35.31 -3.28, -46.13 -0.46 M-23.9 -7.37 C-30.92 -4.84, -36.01 -4.2, -46 1.21" stroke="#000000" stroke-width="1" fill="none"></path></g><g transform="translate(253 111) rotate(0 -22.764074122533202 0.37803119979798794)"><path d="M-23.05 9.73 C-28.25 7.34, -35.03 4.01, -46.13 -0.46 M-23.36 8.7 C-30.51 7.3, -35.72 4, -46 1.21" stroke="#000000" stroke-width="1" fill="none"></path></g></g><mask></mask><g stroke-linecap="round"><g transform="translate(683.7640741225332 106.62196880020201) rotate(0 -23.98507705051452 0.3456946136429906)"><path d="M-0.37 0.33 C-16.31 1.27, -31.88 0.38, -45.96 0.05 M-0.2 -0.96 C-9.86 -0.72, -18.88 0, -47.77 1.65" stroke="#000000" stroke-width="1" fill="none"></path></g><g transform="translate(683.7640741225332 106.62196880020201) rotate(0 -23.98507705051452 0.3456946136429906)"><path d="M-26.56 -7.34 C-33.88 -3.46, -40.75 -1.5, -46.73 0.7 M-26.39 -8.63 C-30.74 -6.69, -34.54 -4.26, -48.53 2.3" stroke="#000000" stroke-width="1" fill="none"></path></g><g transform="translate(683.7640741225332 106.62196880020201) rotate(0 -23.98507705051452 0.3456946136429906)"><path d="M-25.61 8.71 C-33.09 7.1, -40.29 3.56, -46.73 0.7 M-25.45 7.42 C-30.14 6.06, -34.14 5.19, -48.53 2.3" stroke="#000000" stroke-width="1" fill="none"></path></g></g><mask></mask><g stroke-linecap="round"><g transform="translate(657.8984375353903 47.42247461093535) rotate(0 110.92239302585892 -0.46316449425961537)"><path d="M0.57 -1.41 C64.05 1.56, 127.1 -0.21, 221.28 0.48" stroke="#000000" stroke-width="1.5" fill="none" stroke-dasharray="1.5 7"></path></g><g transform="translate(657.8984375353903 47.42247461093535) rotate(0 110.92239302585892 -0.46316449425961537)"><path d="M193.72 9.06 C200.94 8.96, 207.6 3.41, 221.6 -0.82" stroke="#000000" stroke-width="1.5" fill="none" stroke-dasharray="1.5 5"></path></g><g transform="translate(657.8984375353903 47.42247461093535) rotate(0 110.92239302585892 -0.46316449425961537)"><path d="M193.76 -11.46 C200.89 -5.58, 207.54 -5.16, 221.6 -0.82" stroke="#000000" stroke-width="1.5" fill="none" stroke-dasharray="1.5 5"></path></g></g><mask></mask><g transform="translate(696.5 22) rotate(0 68.5 13)"><text x="0" y="18" font-family="Virgil, Segoe UI Emoji" font-size="20px" fill="#000000" text-anchor="start" style="white-space: pre;" direction="ltr">EC1 completed</text></g><g stroke-linecap="round"><g transform="translate(1138.9850770505145 105.65430538635701) rotate(0 -23.845856392290443 -0.07479231990873814)"><path d="M-1.83 -1.66 C-15.08 -0.66, -28.53 0.92, -48.22 1.51 M0.53 -0.17 C-18.33 -0.15, -34.57 1.76, -46.24 0.14" stroke="#000000" stroke-width="1" fill="none"></path></g><g transform="translate(1138.9850770505145 105.65430538635701) rotate(0 -23.845856392290443 -0.07479231990873814)"><path d="M-25.57 -8.31 C-31.46 -5.81, -37.56 -2.49, -47.46 0.64 M-23.21 -6.83 C-33.05 -4.79, -40.24 -0.73, -45.48 -0.72" stroke="#000000" stroke-width="1" fill="none"></path></g><g transform="translate(1138.9850770505145 105.65430538635701) rotate(0 -23.845856392290443 -0.07479231990873814)"><path d="M-26.46 7.74 C-32.13 5.43, -37.97 3.93, -47.46 0.64 M-24.11 9.22 C-33.51 5.33, -40.36 3.46, -45.48 -0.72" stroke="#000000" stroke-width="1" fill="none"></path></g></g><mask></mask></svg>