<svg version="1.1" xmlns="http://www.w3.org/2000/svg" viewBox="0 0 603.3131906589199 423.72023409979624" width="603.3131906589199" height="423.72023409979624">
  <!-- svg-source:excalidraw -->
  
  <defs>
    <style class="style-fonts">
      @font-face {
        font-family: "Virgil";
        src: url("https://excalidraw.com/Virgil.woff2");
      }
      @font-face {
        font-family: "Cascadia";
        src: url("https://excalidraw.com/Cascadia.woff2");
      }
    </style>
  </defs>
  <rect x="0" y="0" width="603.3131906589199" height="423.72023409979624" fill="#ffffff"></rect><g stroke-linecap="round" transform="translate(12.867971366271377 50.051818197387774) rotate(0 99.5 47)"><path d="M1.49 0.83 C48.51 0.9, 99.53 0.37, 200.37 1.45 M0.77 -0.39 C51.1 0.14, 101.33 1.38, 199.7 0.92 M198.94 -1.1 C201.1 20.04, 197.42 40.83, 198.91 93.17 M198.11 0.74 C198.86 35.59, 199.32 68.56, 199.7 94.66 M198.4 92.28 C149.18 92.6, 97.24 91.71, -0.28 92.08 M198.37 94.19 C158.3 93.49, 118.73 93.39, 0.91 94.54 M1.77 94.01 C-0.71 62.22, 1.33 29.61, -1.7 -0.56 M0.78 94.57 C0.23 68.27, 0.61 42.99, 0.24 -0.93" stroke="#000000" stroke-width="1" fill="none"></path></g><g stroke-linecap="round" transform="translate(11.367971366271377 242.05181819738777) rotate(0 99.5 47)"><path d="M1.38 -0.53 C62.13 1.62, 128.23 -0.56, 200.93 -0.24 M-0.23 0.06 C72.69 -0.61, 144.78 -1.17, 199.44 -0.65 M199.2 -1.53 C196.63 37.91, 199.71 74.61, 200.64 92.18 M199.29 0.29 C199.2 29.54, 198.74 60.03, 199.76 94.61 M198.42 93.97 C150.6 96.45, 98.87 95.38, -1.98 95.47 M199.05 94.84 C139.3 95.02, 79.69 96.27, -0.69 94.45 M0.82 92.79 C0.55 56.45, 1.24 21.79, -0.42 -1.1 M-0.35 94.28 C0.01 70.01, 0.99 47.04, -0.64 0.69" stroke="#000000" stroke-width="1" fill="none"></path></g><g stroke-linecap="round"><g transform="translate(11.867971366271377 84.05181819738777) rotate(0 100.22082047536969 0.11719370596404133)"><path d="M-0.03 1.48 C49.2 -0.03, 96.55 -1.89, 200.47 -1.03 M0.84 -0.33 C61.46 -0.97, 124.81 -1.41, 199.45 -0.08" stroke="#000000" stroke-width="1" fill="none"></path></g></g><mask></mask><g stroke-linecap="round"><g transform="translate(11.867971366271377 116.05181819738777) rotate(0 99.8755750360707 -0.6424559461772503)"><path d="M-1.46 -0.63 C78.82 -1.88, 156.49 -1.86, 201.21 0.19 M0.77 -0.6 C55.22 -0.27, 111.33 0.22, 199.53 -0.34" stroke="#000000" stroke-width="1" fill="none"></path></g></g><mask></mask><g stroke-linecap="round"><g transform="translate(10.867971366271377 275.0518181973878) rotate(0 99.38086957018822 -1.0528150756104822)"><path d="M0.02 -1.61 C48.4 2.37, 98.44 -0.96, 199.63 -1.24 M-0.87 0.15 C44.42 0.65, 88.28 -0.14, 198.98 -2.43" stroke="#000000" stroke-width="1" fill="none"></path></g></g><mask></mask><g stroke-linecap="round"><g transform="translate(11.867971366271377 308.0518181973878) rotate(0 98.62911483086646 -1.888231160426983)"><path d="M1.15 -1.86 C41.14 -0.92, 85.72 -4.6, 196.7 -2.58 M-0.45 -0.58 C62.85 -1.16, 125.41 -3.28, 197.71 -2.42" stroke="#000000" stroke-width="1" fill="none"></path></g></g><mask></mask><g transform="translate(73.86797136627138 59.051818197387774) rotate(0 36 13)"><text x="0" y="18" font-family="Virgil, Segoe UI Emoji" font-size="20px" fill="#000000" text-anchor="start" style="white-space: pre;" direction="ltr">foo AO</text></g><g stroke-linecap="round"><g transform="translate(121.46370854268571 114.76406530499247) rotate(0 -1.6014732662588358 14.789518567733467)"><path d="M-1.85 1.54 C-0.51 9.43, -0.99 14.81, -2.16 28.89 M-0.89 0.69 C-1.73 9.61, -1.66 21.13, -2.31 26.88" stroke="#000000" stroke-width="1" fill="none"></path></g></g><mask></mask><g stroke-linecap="round"><g transform="translate(119.37322073439339 304.4716082226629) rotate(0 0.4857735309996656 15.579109403304756)"><path d="M-0.24 -1.08 C1.82 8.71, 0.5 17.76, 1.33 31.3 M0.29 0.4 C-0.51 7.55, -0.73 14.2, 0.61 32.24" stroke="#000000" stroke-width="1" fill="none"></path></g></g><mask></mask><g transform="translate(72.86797136627138 249.05181819738777) rotate(0 36 13)"><text x="0" y="18" font-family="Virgil, Segoe UI Emoji" font-size="20px" fill="#000000" text-anchor="start" style="white-space: pre;" direction="ltr">bar AO</text></g><g transform="translate(22.867971366271377 86.05181819738777) rotate(0 89.5 13.5)"><text x="0" y="21" font-family="Helvetica, Segoe UI Emoji" font-size="20px" fill="#000000" text-anchor="start" style="white-space: pre;" direction="ltr">&lt;other properties&gt;</text></g><g transform="translate(22.367971366271377 274.5518181973878) rotate(0 89.5 13.5)"><text x="0" y="21" font-family="Helvetica, Segoe UI Emoji" font-size="20px" fill="#000000" text-anchor="start" style="white-space: pre;" direction="ltr">&lt;other properties&gt;</text></g><g transform="translate(17.448181340996257 110.55181819738777) rotate(0 50 13.5)"><text x="0" y="21" font-family="Helvetica, Segoe UI Emoji" font-size="20px" fill="#000000" text-anchor="start" style="white-space: pre;" direction="ltr">__parent__</text></g><g transform="translate(15.737032356191435 303.25473737613174) rotate(0 50 13.5)"><text x="0" y="21" font-family="Helvetica, Segoe UI Emoji" font-size="20px" fill="#000000" text-anchor="start" style="white-space: pre;" direction="ltr">__parent__</text></g><g stroke-linecap="round" transform="translate(271.7788613580108 10) rotate(0 160.76716465045456 201.86011704989812)"><path d="M1.13 -0.67 C116.77 -0.85, 234.97 1.22, 322.62 1.05 M-0.61 -0.18 C99.27 2.01, 198.83 2.34, 320.86 -0.48 M322.64 -0.53 C322.41 92.18, 323.94 182.73, 320.79 403.53 M322.09 0.05 C319.69 112.41, 320.37 225.93, 321.41 404.02 M322.56 404.87 C240.61 404.8, 160.94 403.7, 0.45 403.96 M320.92 404.11 C204.61 405.82, 86.27 405.66, -0.3 404.34 M1.05 404.12 C1.46 281.84, 1.28 160.47, 1.08 1.05 M0.35 403.54 C0.9 274.07, 0.23 143.77, -0.47 -0.49" stroke="#000000" stroke-width="1" fill="none"></path></g><g stroke-linecap="round" transform="translate(327.29039354673284 59.023171283546645) rotate(0 110.30213538798006 61.27896410443337)"><path d="M-1.67 0.02 C45.02 -1.65, 88.95 0.57, 219.18 -0.82 M0.53 0.03 C67.4 0, 135.69 0.82, 220.56 -0.29 M219 1.56 C221.11 38.74, 220.86 77.13, 220.93 122.63 M221.52 -0.85 C220.48 37.02, 219.9 73.7, 220.83 121.66 M221.4 123.77 C156.96 121.67, 94.67 123.82, 0.57 122.38 M221 122.61 C154.54 120.59, 86.74 120.91, 0.81 122.51 M-1.77 122.52 C1.86 79.46, -1.66 40.2, 1.06 0.75 M0.33 121.68 C-1.5 94.32, -0.68 66.4, -0.36 0.96" stroke="#000000" stroke-width="1" fill="none"></path></g><g stroke-linecap="round" transform="translate(328.0113225361969 224.83683886024863) rotate(0 111.02306437744375 67.7673250096087)"><path d="M1.04 -0.93 C47.72 -0.41, 99.75 -0.21, 222.68 -0.45 M0.67 -0.8 C72.96 0.09, 148.1 0.35, 221.41 0.45 M220.32 -0.91 C222.39 28.55, 221.78 61.37, 220.34 136.62 M222.58 0.68 C220.68 36.39, 222.23 71.99, 222.27 136.51 M221.67 135.05 C174.55 133.88, 126.6 133.13, 0.55 134.64 M222.62 134.68 C133.61 135.74, 44.27 136.17, 0.38 134.76 M0.01 135.99 C-0.73 95.41, -0.72 53.16, -0.73 0.85 M0.63 135.7 C0.65 94.39, 1.25 54.63, 0.58 -0.57" stroke="#000000" stroke-width="1" fill="none"></path></g><g transform="translate(281.15093822104177 14.63950877874234) rotate(0 112 13)"><text x="0" y="18" font-family="Virgil, Segoe UI Emoji" font-size="20px" fill="#000000" text-anchor="start" style="white-space: pre;" direction="ltr">foo and bar [[Scope]]</text></g><g stroke-linecap="round"><g transform="translate(326.5694645572688 97.95333671459844) rotate(0 110.36731653460089 0.5595432425917863)"><path d="M0.99 0.42 C49.78 -2.97, 98.83 -0.85, 221.15 2.42 M-0.41 -0.37 C65.67 0.99, 132.39 1.07, 220.14 1.52" stroke="#000000" stroke-width="1" fill="none"></path></g></g><mask></mask><g stroke-linecap="round"><g transform="translate(327.29039354673273 141.20907608243374) rotate(0 110.33960818822521 -0.49076436349338337)"><path d="M-0.37 -0.53 C56.25 1.42, 116.52 1.75, 221.12 -1.67 M-0.44 0.23 C62.59 -0.38, 124.84 -0.97, 219.96 -1.91" stroke="#000000" stroke-width="1" fill="none"></path></g></g><mask></mask><g stroke-linecap="round"><g transform="translate(433.98788398739316 97.23240772513452) rotate(0 0.8124701203778386 40.942817860211875)"><path d="M1.44 1.55 C0 29.88, 0.62 54.72, 0.98 80.78 M0.19 -0.06 C0.29 26.2, 0.97 54.05, 0.75 81.95" stroke="#000000" stroke-width="1" fill="none"></path></g></g><mask></mask><g transform="translate(422.4530201559704 66.60453804121687) rotate(0 37.50000000000006 13)"><text x="0" y="18" font-family="Virgil, Segoe UI Emoji" font-size="20px" fill="#000000" text-anchor="start" style="white-space: pre;" direction="ltr">baz AO</text></g><g transform="translate(374.87170685135163 104.81377448280472) rotate(0 6.5 13)"><text x="0" y="18" font-family="Virgil, Segoe UI Emoji" font-size="20px" fill="#000000" text-anchor="start" style="white-space: pre;" direction="ltr">x</text></g><g transform="translate(485.89477122879543 111.30213538798) rotate(0 3.5 13)"><text x="0" y="18" font-family="Virgil, Segoe UI Emoji" font-size="20px" fill="#000000" text-anchor="start" style="white-space: pre;" direction="ltr">1</text></g><g transform="translate(332.0809967459908 147.17415879795965) rotate(0 50.00000000000006 13.5)"><text x="0" y="21" font-family="Helvetica, Segoe UI Emoji" font-size="20px" fill="#000000" text-anchor="start" style="white-space: pre;" direction="ltr">__parent__</text></g><g stroke-linecap="round"><g transform="translate(328.01132253619664 257.9995723755891) rotate(0 111.1249549128757 0.4530584443627106)"><path d="M-0.2 0.56 C73.71 0.2, 147.99 -1.25, 220.54 0.11 M-0.34 -0.64 C78.69 1.31, 156.44 1.09, 222.59 1.55" stroke="#000000" stroke-width="1" fill="none"></path></g></g><mask></mask><g stroke-linecap="round"><g transform="translate(328.7322515256607 294.7669508382491) rotate(0 111.51870928411506 0.5455624986055909)"><path d="M1.46 -0.26 C72.69 1.37, 146.52 0.65, 222.67 1.25 M0.37 -0.07 C81.61 0.56, 164.16 1.73, 221.81 1.22" stroke="#000000" stroke-width="1" fill="none"></path></g></g><mask></mask><g stroke-linecap="round"><g transform="translate(328.01132253619664 325.7668973851978) rotate(0 110.21046556542319 0.7991325188593237)"><path d="M-0.89 0.25 C65.75 2.37, 130.16 0.31, 221.1 2.21 M-0.44 -0.61 C54.7 0.55, 107.37 -0.69, 221.31 0.64" stroke="#000000" stroke-width="1" fill="none"></path></g></g><mask></mask><g transform="translate(392.1740025984859 230.25541864952714) rotate(0 50.5 13)"><text x="0" y="18" font-family="Virgil, Segoe UI Emoji" font-size="20px" fill="#000000" text-anchor="start" style="white-space: pre;" direction="ltr">Global AO</text></g><g stroke-linecap="round"><g transform="translate(435.429741966321 259.4414303545169) rotate(0 -0.7683549589548875 18.80016055980323)"><path d="M-1.32 0.55 C1.64 7.75, -1.09 15.73, -1.57 37.05 M-0.18 0.65 C0.3 12.19, -1.6 24.28, -0.67 36.16" stroke="#000000" stroke-width="1" fill="none"></path></g></g><mask></mask><g transform="translate(344.5926892938669 264.86001014379536) rotate(0 40.5 13)"><text x="0" y="18" font-family="Virgil, Segoe UI Emoji" font-size="20px" fill="#000000" text-anchor="start" style="white-space: pre;" direction="ltr">closures</text></g><g transform="translate(470.0343334605893 269.1855840805789) rotate(0 20 13)"><text x="0" y="18" font-family="Virgil, Segoe UI Emoji" font-size="20px" fill="#000000" text-anchor="start" style="white-space: pre;" direction="ltr">{...}</text></g><g transform="translate(348.09252893471273 297.1273886064553) rotate(0 89.50000000000006 13.499999999999972)"><text x="0" y="21" font-family="Helvetica, Segoe UI Emoji" font-size="20px" fill="#000000" text-anchor="start" style="white-space: pre;" direction="ltr">&lt;other properties&gt;</text></g><g transform="translate(332.8019257354549 328.12733515340415) rotate(0 50 13.5)"><text x="0" y="21" font-family="Helvetica, Segoe UI Emoji" font-size="20px" fill="#000000" text-anchor="start" style="white-space: pre;" direction="ltr">__parent__</text></g><g stroke-linecap="round"><g transform="translate(434.7088129768572 327.20875536412564) rotate(0 -0.18714189250022173 15.97368039527123)"><path d="M-0.74 1.37 C1.37 7.15, -1.57 12.17, 0.52 31.76 M-0.89 0.18 C-0.03 7.19, 0.02 15.57, -0.88 30.75" stroke="#000000" stroke-width="1" fill="none"></path></g></g><mask></mask><g transform="translate(471.47619143951715 332.62733515340403) rotate(0 16.5 13)"><text x="0" y="18" font-family="Virgil, Segoe UI Emoji" font-size="20px" fill="#000000" text-anchor="start" style="white-space: pre;" direction="ltr">null</text></g><g stroke-linecap="round"><g transform="translate(482.290126281476 164.27880374527922) rotate(0 -20.736202390419862 28.54583359775947)"><path d="M0.1 1.04 C-16.83 23.56, -31.94 45.38, -40.44 56.11 M0.55 -0.97 C-15.78 22.85, -31.81 44.15, -42.03 58.07" stroke="#000000" stroke-width="1" fill="none"></path></g><g transform="translate(482.290126281476 164.27880374527922) rotate(0 -20.736202390419862 28.54583359775947)"><path d="M-33.45 30.33 C-37.84 41.73, -40.38 52.66, -40.65 56.5 M-32.99 28.32 C-36.56 40.88, -39.83 51.12, -42.24 58.46" stroke="#000000" stroke-width="1" fill="none"></path></g><g transform="translate(482.290126281476 164.27880374527922) rotate(0 -20.736202390419862 28.54583359775947)"><path d="M-16.94 42.51 C-27.56 49.43, -36.33 55.76, -40.65 56.5 M-16.48 40.5 C-26.36 48.5, -35.95 54.08, -42.24 58.46" stroke="#000000" stroke-width="1" fill="none"></path></g></g><mask></mask><g stroke-linecap="round"><g transform="translate(170.12787384359785 131.83699921940274) rotate(0 76.93209656787695 -25.909020850782156)"><path d="M-1.57 0.41 C59.19 -19.35, 117.36 -39.3, 155.43 -50.02 M-0.86 0.84 C30.81 -11.2, 62.18 -21.88, 153.57 -52.66" stroke="#000000" stroke-width="1" fill="none"></path></g><g transform="translate(170.12787384359785 131.83699921940274) rotate(0 76.93209656787695 -25.909020850782156)"><path d="M128.57 -33.51 C139.78 -41.38, 148.54 -48.74, 155.44 -50.77 M129.28 -33.08 C134.56 -38.36, 139.79 -42.39, 153.58 -53.41" stroke="#000000" stroke-width="1" fill="none"></path></g><g transform="translate(170.12787384359785 131.83699921940274) rotate(0 76.93209656787695 -25.909020850782156)"><path d="M122.01 -52.95 C135.62 -53.41, 146.88 -53.39, 155.44 -50.77 M122.72 -52.52 C129.15 -53.9, 135.7 -54.03, 153.58 -53.41" stroke="#000000" stroke-width="1" fill="none"></path></g></g><mask></mask><g stroke-linecap="round"><g transform="translate(209.05803927464967 321.4413234484142) rotate(0 57.19625714333182 -118.94472039292594)"><path d="M0.54 1.17 C43.1 -89.26, 82.74 -174.77, 114.91 -239.05 M-0.52 0.57 C25.45 -51.96, 49.34 -102.19, 114.69 -238.74" stroke="#000000" stroke-width="1" fill="none"></path></g><g transform="translate(209.05803927464967 321.4413234484142) rotate(0 57.19625714333182 -118.94472039292594)"><path d="M112.46 -207.4 C113.97 -221.24, 112.25 -229.78, 115.05 -238.36 M111.13 -208.15 C112.15 -216.03, 112.45 -222.11, 114.78 -237.96" stroke="#000000" stroke-width="1" fill="none"></path></g><g transform="translate(209.05803927464967 321.4413234484142) rotate(0 57.19625714333182 -118.94472039292594)"><path d="M93.95 -216.26 C102.2 -227.01, 107.23 -232.32, 115.05 -238.36 M92.62 -217.01 C97.45 -223.21, 101.66 -227.42, 114.78 -237.96" stroke="#000000" stroke-width="1" fill="none"></path></g></g><mask></mask></svg>