<svg version="1.1" xmlns="http://www.w3.org/2000/svg" viewBox="0 0 685.9789761794108 206.71365775097632" width="685.9789761794108" height="206.71365775097632">
  <!-- svg-source:excalidraw -->
  
  <defs>
    <style class="style-fonts">
      @font-face {
        font-family: "Virgil";
        src: url("https://excalidraw.com/Virgil.woff2");
      }
      @font-face {
        font-family: "Cascadia";
        src: url("https://excalidraw.com/Cascadia.woff2");
      }
    </style>
  </defs>
  <rect x="0" y="0" width="685.9789761794108" height="206.71365775097632" fill="#ffffff"></rect><g stroke-linecap="round" transform="translate(10.702448684423302 26.1298410159024) rotate(0 135.5 85)"><path d="M-0.05 -0.5 C75.31 0.91, 152.91 -1.71, 270.83 0.06 M0.19 -0.23 C101.38 0.66, 203.68 0.04, 271.5 -0.06 M269.73 1 C269.12 52.41, 268.61 102.61, 270.33 170.33 M271.69 0.16 C271.15 52.15, 271.1 105.19, 271.4 170.49 M270.09 171.04 C172.56 172.55, 76.47 172.85, -1.39 169.76 M270.42 169.46 C203.87 172.34, 136.87 172.23, -0.47 170.57 M0.02 168.88 C1.59 110.06, -0.28 50.69, -1.84 -1.24 M0.39 170.68 C-0.9 103.6, -0.56 36.76, -0.49 -0.54" stroke="#000000" stroke-width="1" fill="none"></path></g><g stroke-linecap="round"><g transform="translate(12.702448684423302 72.1298410159024) rotate(0 134.97602290606238 -1.4760155004701403)"><path d="M0.85 -1.18 C99.44 -2.26, 197.66 -2.77, 269.23 -3.22 M0.72 0.03 C95.56 0.9, 192.88 -0.78, 269.21 -2.39" stroke="#000000" stroke-width="1" fill="none"></path></g></g><mask></mask><g stroke-linecap="round"><g transform="translate(10.702448684423302 114.1298410159024) rotate(0 134.087073798259 -2.573107828353187)"><path d="M-0.54 -1.49 C98.45 -0.09, 196.46 -1.73, 268.71 -5.38 M0.66 0.23 C93.1 -2.18, 184.67 -3.98, 268.39 -4.83" stroke="#000000" stroke-width="1" fill="none"></path></g></g><mask></mask><g stroke-linecap="round"><g transform="translate(10.702448684423302 158.1298410159024) rotate(0 135.1702510932078 -0.00718063903278221)"><path d="M-0.7 -0.63 C97.38 3.12, 191.88 0.46, 271.04 -0.65 M-0.25 -0.24 C70.39 1.62, 140.46 1.12, 270.29 -1.32" stroke="#000000" stroke-width="1" fill="none"></path></g></g><mask></mask><g stroke-linecap="round"><g transform="translate(141.7024486844233 70.1298410159024) rotate(0 -0.29980485663332956 62.78456747345626)"><path d="M-0.9 -1.01 C0.98 34.07, 0.49 70.91, -1.39 126.58 M0.32 -0.85 C0.52 47.73, 0.94 92.88, 0.73 125.68" stroke="#000000" stroke-width="1" fill="none"></path></g></g><mask></mask><g stroke-linecap="round" transform="translate(438.4887817511209 10) rotate(0 115 71)"><path d="M-1.44 0.75 C67.29 -2.71, 132.87 -1.03, 231.56 -0.16 M0.46 -0.6 C73.99 0.45, 149.43 0.56, 230 0.65 M230.68 1.83 C230.77 51.81, 231.31 106.2, 228.97 141.57 M229.92 -0.95 C230.75 43.22, 231.49 85.27, 229.13 142.42 M231.6 142.8 C137.82 141.39, 47.51 139.71, -1.61 143.27 M230.05 141.31 C140.54 142.04, 49.43 140.76, -0.28 141.58 M-0.03 143.23 C-0.34 92.16, -0.5 39.8, -1.23 -0.86 M-0.62 141.86 C-1.16 113.65, -0.62 83.46, -0.27 -0.75" stroke="#000000" stroke-width="1" fill="none"></path></g><g stroke-linecap="round"><g transform="translate(443.7024486844233 47.1298410159024) rotate(0 116.40061542771156 1.1383021249529008)"><path d="M0.52 0.41 C54.55 -0.18, 110.3 -0.58, 230.9 0.75 M0.52 0.57 C73.74 -0.62, 146.71 0.2, 232.28 2.42" stroke="#000000" stroke-width="1" fill="none"></path></g></g><mask></mask><g transform="translate(115.7024486844233 36.1298410159024) rotate(0 24 13)"><text x="0" y="18" font-family="Virgil, Segoe UI Emoji" font-size="20px" fill="#000000" text-anchor="start" style="white-space: pre;" direction="ltr">point</text></g><g transform="translate(73.7024486844233 81.1298410159024) rotate(0 6.5 13)"><text x="0" y="18" font-family="Virgil, Segoe UI Emoji" font-size="20px" fill="#000000" text-anchor="start" style="white-space: pre;" direction="ltr">x</text></g><g transform="translate(204.7024486844233 82.1298410159024) rotate(0 10.5 13)"><text x="0" y="18" font-family="Virgil, Segoe UI Emoji" font-size="20px" fill="#000000" text-anchor="start" style="white-space: pre;" direction="ltr">10</text></g><g transform="translate(72.7024486844233 126.1298410159024) rotate(0 5.5 13)"><text x="0" y="18" font-family="Virgil, Segoe UI Emoji" font-size="20px" fill="#000000" text-anchor="start" style="white-space: pre;" direction="ltr">y</text></g><g transform="translate(210.7024486844233 130.1298410159024) rotate(0 15 13)"><text x="0" y="18" font-family="Virgil, Segoe UI Emoji" font-size="20px" fill="#000000" text-anchor="start" style="white-space: pre;" direction="ltr">20</text></g><g transform="translate(34.7024486844233 165.1298410159024) rotate(0 45 13.5)"><text x="0" y="21" font-family="Helvetica, Segoe UI Emoji" font-size="20px" fill="#000000" text-anchor="start" style="white-space: pre;" direction="ltr">__proto__</text></g><g transform="translate(489.2179387678135 14.440404755478596) rotate(0 72 13.5)"><text x="0" y="21" font-family="Helvetica, Segoe UI Emoji" font-size="20px" fill="#000000" text-anchor="start" style="white-space: pre;" direction="ltr">point.__proto__</text></g><g transform="translate(480.15743660162855 57.973299032273076) rotate(0 78 40.5)"><text x="78" y="21" font-family="Helvetica, Segoe UI Emoji" font-size="20px" fill="#000000" text-anchor="middle" style="white-space: pre;" direction="ltr">...</text><text x="78" y="48" font-family="Helvetica, Segoe UI Emoji" font-size="20px" fill="#000000" text-anchor="middle" style="white-space: pre;" direction="ltr">some properties</text><text x="78" y="75" font-family="Helvetica, Segoe UI Emoji" font-size="20px" fill="#000000" text-anchor="middle" style="white-space: pre;" direction="ltr">...</text></g><g stroke-linecap="round"><g transform="translate(283.7112708576095 177.10712340684574) rotate(0 76.99103337184579 -71.5988733883699)"><path d="M1.04 -0.04 C56.61 -55.45, 115.49 -111.03, 151.24 -143.16 M0.23 -0.6 C49.1 -43.25, 96.28 -87.84, 153.75 -142.82" stroke="#000000" stroke-width="1" fill="none"></path></g><g transform="translate(283.7112708576095 177.10712340684574) rotate(0 76.99103337184579 -71.5988733883699)"><path d="M141.59 -115.99 C143.47 -125.69, 148.83 -136.82, 151.77 -142.96 M140.67 -116.63 C145.64 -124.24, 149.54 -132.87, 154.61 -142.58" stroke="#000000" stroke-width="1" fill="none"></path></g><g transform="translate(283.7112708576095 177.10712340684574) rotate(0 76.99103337184579 -71.5988733883699)"><path d="M127.44 -130.85 C134.78 -134.98, 145.56 -140.41, 151.77 -142.96 M126.52 -131.49 C135.77 -134.38, 144.05 -138.41, 154.61 -142.58" stroke="#000000" stroke-width="1" fill="none"></path></g></g><mask></mask></svg>