<svg version="1.1" xmlns="http://www.w3.org/2000/svg" viewBox="0 0 722.0383594630904 461.62934307940304" width="722.0383594630904" height="461.62934307940304">
  <!-- svg-source:excalidraw -->
  
  <defs>
    <style class="style-fonts">
      @font-face {
        font-family: "Virgil";
        src: url("https://excalidraw.com/Virgil.woff2");
      }
      @font-face {
        font-family: "Cascadia";
        src: url("https://excalidraw.com/Cascadia.woff2");
      }
    </style>
  </defs>
  <rect x="0" y="0" width="722.0383594630904" height="461.62934307940304" fill="#ffffff"></rect><g stroke-linecap="round" transform="translate(14.695084121362584 10) rotate(0 136 69)"><path d="M-0.19 -0.92 C103.24 -0.67, 204.91 -1.51, 271.45 0.98 M0.54 0.41 C67.06 -0.45, 132.2 0.06, 272.7 0.61 M273.71 0.92 C271.58 36.03, 272.16 70.62, 273.78 138.13 M271.24 -0.55 C272.14 34.68, 273.38 72, 271.88 138.17 M270.76 138.68 C201.41 136.78, 132.91 137.57, -1.02 137.24 M272.62 137.41 C187.94 136.84, 102.5 137.09, 0.37 137.64 M-1.34 138.38 C0.3 93.02, -0.56 48.17, -1.49 0.77 M0.56 137.38 C0.18 84.46, -1.38 32.04, 0.54 0" stroke="#000000" stroke-width="1" fill="none"></path></g><g stroke-linecap="round"><g transform="translate(15.695084121362584 54) rotate(0 134.35653569739168 0.27602512686677017)"><path d="M0.15 0.67 C86.82 1.04, 173.46 0.91, 267.45 0.99 M-0.16 -0.2 C82.03 0.09, 164.34 -0.85, 268.88 -0.21" stroke="#000000" stroke-width="1" fill="none"></path></g></g><mask></mask><g stroke-linecap="round"><g transform="translate(13.695084121362584 104) rotate(0 136.41108846483388 -0.257882818672428)"><path d="M1.44 0.83 C94.05 1.21, 190.63 1.78, 273.57 -1.13 M-0.75 -0.53 C97.25 -0.37, 193.65 -0.33, 273.46 -1.66" stroke="#000000" stroke-width="1" fill="none"></path></g></g><mask></mask><g stroke-linecap="round"><g transform="translate(160.69508412136247 56) rotate(0 0.03231183257327075 44.87392396153882)"><path d="M-0.37 -0.53 C-1.49 35.95, -0.65 70.8, 0.95 89.39 M-0.39 0.01 C-1.36 34.93, 0.07 68.53, -0.54 90.28" stroke="#000000" stroke-width="1" fill="none"></path></g></g><mask></mask><g transform="translate(146.69508412136258 20) rotate(0 5.5 13)"><text x="0" y="18" font-family="Virgil, Segoe UI Emoji" font-size="20px" fill="#000000" text-anchor="start" style="white-space: pre;" direction="ltr">b</text></g><g transform="translate(84.69508412136258 66) rotate(0 5 13)"><text x="0" y="18" font-family="Virgil, Segoe UI Emoji" font-size="20px" fill="#000000" text-anchor="start" style="white-space: pre;" direction="ltr">y</text></g><g transform="translate(199.69508412136258 69) rotate(0 14.5 13)"><text x="0" y="18" font-family="Virgil, Segoe UI Emoji" font-size="20px" fill="#000000" text-anchor="start" style="white-space: pre;" direction="ltr">20</text></g><g transform="translate(46.695084121362584 115.5) rotate(0 42.5 10)"><text x="0" y="16" font-family="Cascadia, Segoe UI Emoji" font-size="16px" fill="#000000" text-anchor="start" style="white-space: pre;" direction="ltr">__proto__</text></g><g stroke-linecap="round" transform="translate(12.28399565652876 268) rotate(0 136 69)"><path d="M0.41 -1.51 C71.36 -0.83, 146.22 -2.31, 273.08 -0.43 M0.42 -0.33 C71.27 0.25, 144.35 0.44, 271.74 0.04 M273.08 0.87 C272.17 36.72, 271.01 70.33, 273.18 137.89 M271.64 0.89 C270.79 33.17, 271.31 68.82, 271.84 138.85 M273.2 137.82 C191.94 139.12, 114.6 138.27, -0.7 139.38 M272.65 137.69 C213.73 139.88, 156.27 139.96, 0.17 138.24 M-0.21 139.63 C-2.2 104.86, 1.05 69.86, 0.53 -0.8 M0.33 137.6 C0.3 94.03, 0.2 48.17, 0.76 -0.14" stroke="#000000" stroke-width="1" fill="none"></path></g><g stroke-linecap="round"><g transform="translate(13.28399565652876 312) rotate(0 133.759786252413 -0.5763119753646606)"><path d="M-1.52 -1.29 C96.05 0.39, 190.1 0.53, 268.57 -0.55 M-0.34 -0.78 C77.22 -0.87, 154.48 -1.39, 269.04 -0.37" stroke="#000000" stroke-width="1" fill="none"></path></g></g><mask></mask><g stroke-linecap="round"><g transform="translate(11.28399565652876 362) rotate(0 135.677009937621 -0.5034242714710331)"><path d="M-1.28 0.51 C100.15 0.73, 199.51 0.9, 272.45 -1.21 M-0.78 0.15 C80.82 0.95, 160.88 0.36, 272.64 -1.64" stroke="#000000" stroke-width="1" fill="none"></path></g></g><mask></mask><g stroke-linecap="round"><g transform="translate(158.28399565652853 314) rotate(0 -0.3108769085077938 45.21197996195406)"><path d="M0.66 1.2 C-2.11 30.74, -1.42 58.02, -0.27 89.9 M0.19 0.33 C0.05 31.5, -0.34 63.2, -0.82 90.09" stroke="#000000" stroke-width="1" fill="none"></path></g></g><mask></mask><g transform="translate(144.28399565652876 278) rotate(0 5.5 13)"><text x="0" y="18" font-family="Virgil, Segoe UI Emoji" font-size="20px" fill="#000000" text-anchor="start" style="white-space: pre;" direction="ltr">c</text></g><g transform="translate(82.28399565652876 324) rotate(0 5 13)"><text x="0" y="18" font-family="Virgil, Segoe UI Emoji" font-size="20px" fill="#000000" text-anchor="start" style="white-space: pre;" direction="ltr">y</text></g><g transform="translate(197.28399565652876 327) rotate(0 14 13)"><text x="0" y="18" font-family="Virgil, Segoe UI Emoji" font-size="20px" fill="#000000" text-anchor="start" style="white-space: pre;" direction="ltr">30</text></g><g transform="translate(44.28399565652876 373.5) rotate(0 42.5 10)"><text x="0" y="16" font-family="Cascadia, Segoe UI Emoji" font-size="16px" fill="#000000" text-anchor="start" style="white-space: pre;" direction="ltr">__proto__</text></g><g stroke-linecap="round" transform="translate(439.28399565652876 15) rotate(0 135.99999999999994 90)"><path d="M-0.55 -0.21 C64.64 1.42, 128.77 -0.97, 272.3 0.52 M-0.36 -0.64 C93.4 0.32, 186.99 0.41, 272.68 0.06 M270.92 -0.44 C274.29 56.56, 274.84 112.75, 270.46 179.22 M271.9 -0.41 C272.34 71.68, 271.61 141.02, 271.87 180.17 M270.63 178.94 C209.89 183.19, 144.82 180.86, 0.57 179.61 M271.6 180.35 C177.09 180.56, 84.16 180.03, 0.48 180.66 M0.49 178.89 C-0.41 121.05, -1.28 59.84, 1.67 -1.13 M0.9 180.06 C-2.21 130.15, -2.31 79, -0.39 -0.16" stroke="#000000" stroke-width="1" fill="none"></path></g><g stroke-linecap="round"><g transform="translate(440.28399565652876 59) rotate(0 134.43715659386487 0.5383968211188659)"><path d="M-0.21 -0.08 C100.15 0.07, 197.06 1.05, 269.52 0.68 M-0.65 0.07 C72.22 1.32, 144.1 1.66, 269.06 0.14" stroke="#000000" stroke-width="1" fill="none"></path></g></g><mask></mask><g stroke-linecap="round"><g transform="translate(438.28399565652876 109) rotate(0 136.79757752178614 -0.13461499669139698)"><path d="M-0.08 0.84 C73.75 -1.54, 149.12 0.26, 273.67 -1.52 M0.07 0.42 C83.57 1.95, 167.13 1.19, 273.14 -0.54" stroke="#000000" stroke-width="1" fill="none"></path></g></g><mask></mask><g stroke-linecap="round"><g transform="translate(585.2839956565286 61) rotate(0 -1.293921397998929 66.6201971936971)"><path d="M1.07 -0.86 C-2.97 35.88, -1.11 71.85, -3.66 134.1 M0.54 0.44 C-1.21 34.84, -2.55 68.12, -2.41 133.95" stroke="#000000" stroke-width="1" fill="none"></path></g></g><mask></mask><g transform="translate(571.2839956565286 25) rotate(0 7 13)"><text x="0" y="18" font-family="Virgil, Segoe UI Emoji" font-size="20px" fill="#000000" text-anchor="start" style="white-space: pre;" direction="ltr">a</text></g><g transform="translate(509.28399565652865 71) rotate(0 6 13)"><text x="0" y="18" font-family="Virgil, Segoe UI Emoji" font-size="20px" fill="#000000" text-anchor="start" style="white-space: pre;" direction="ltr">x</text></g><g transform="translate(624.2839956565286 74) rotate(0 10 13)"><text x="0" y="18" font-family="Virgil, Segoe UI Emoji" font-size="20px" fill="#000000" text-anchor="start" style="white-space: pre;" direction="ltr">10</text></g><g transform="translate(473.28399565652865 167.5) rotate(0 42.5 10)"><text x="0" y="16" font-family="Cascadia, Segoe UI Emoji" font-size="16px" fill="#000000" text-anchor="start" style="white-space: pre;" direction="ltr">__proto__</text></g><g stroke-linecap="round" transform="translate(437.8975065995762 263) rotate(0 135.99999999999994 69)"><path d="M-0.65 0.43 C72.33 -3.34, 142.86 -0.75, 272.43 -0.58 M-0.39 0.51 C83.77 -0.09, 168.84 0.31, 272.53 -0.61 M271.29 -1.58 C271.22 43.79, 270.81 86.07, 270.24 138.31 M271.05 -0.12 C271.07 47.94, 270.9 95.64, 271.55 138.36 M273.4 136.81 C167.99 137.43, 65 138.08, 0.13 136.45 M272.04 138.63 C208.53 137.83, 145.54 138.26, 0.56 138.07 M-1.63 137.26 C-0.8 102.1, 1.22 63.53, -0.12 0.86 M0.48 137.53 C0.73 94.37, 1.27 53.28, 0.22 -0.77" stroke="#000000" stroke-width="1" fill="none"></path></g><g stroke-linecap="round"><g transform="translate(438.8975065995762 307) rotate(0 134.42221772344095 0.4556020984367706)"><path d="M0.43 1.14 C82.38 1.35, 168.92 1.31, 268.42 0.14 M0.51 -0.33 C88.89 1.68, 178.53 1.58, 268.39 0.07" stroke="#000000" stroke-width="1" fill="none"></path></g></g><mask></mask><g stroke-linecap="round"><g transform="translate(436.8975065995762 357) rotate(0 136.4076142503941 -1.1021382832699942)"><path d="M1.13 -1.54 C105.48 0.08, 210.44 -1.93, 273.14 -0.51 M-0.33 -0.34 C79.22 -1.62, 157.7 -2.58, 273.07 -1.15" stroke="#000000" stroke-width="1" fill="none"></path></g></g><mask></mask><g stroke-linecap="round"><g transform="translate(583.8975065995761 355) rotate(0 -0.6707095969468355 22.64975853683427)"><path d="M-1.98 0.6 C1.46 11.9, -0.62 22.89, 0.63 43.76 M-0.44 0.82 C0.36 11.71, -0.5 22.14, -0.19 44.7" stroke="#000000" stroke-width="1" fill="none"></path></g></g><mask></mask><g transform="translate(492.8975065995761 272) rotate(0 94 12.5)"><text x="0" y="20" font-family="Cascadia, Segoe UI Emoji" font-size="20px" fill="#000000" text-anchor="start" style="white-space: pre;" direction="ltr">Object.prototype</text></g><g transform="translate(531.8975065995761 322) rotate(0 53 12.5)"><text x="0" y="20" font-family="Cascadia, Segoe UI Emoji" font-size="20px" fill="#000000" text-anchor="start" style="white-space: pre;" direction="ltr">built-ins</text></g><g transform="translate(469.8975065995761 368.5) rotate(0 42.5 10)"><text x="0" y="16" font-family="Cascadia, Segoe UI Emoji" font-size="16px" fill="#000000" text-anchor="start" style="white-space: pre;" direction="ltr">__proto__</text></g><g stroke-linecap="round"><g transform="translate(438.89750659957633 158.1346149966913) rotate(0 136.32919923457445 -0.5242252468071058)"><path d="M0.24 0.62 C64.73 -2.08, 126.51 -1.61, 273.12 -1.67 M-0.48 -0.43 C106.18 0.37, 213.02 0.36, 273.14 -1.07" stroke="#000000" stroke-width="1" fill="none"></path></g></g><mask></mask><g transform="translate(474.6950841213626 121) rotate(0 42.5 10)"><text x="0" y="16" font-family="Cascadia, Segoe UI Emoji" font-size="16px" fill="#000000" text-anchor="start" style="white-space: pre;" direction="ltr">calculate</text></g><g transform="translate(599.6950841213626 123) rotate(0 47.5 10)"><text x="0" y="16" font-family="Cascadia, Segoe UI Emoji" font-size="16px" fill="#000000" text-anchor="start" style="white-space: pre;" direction="ltr">&lt;function&gt;</text></g><g transform="translate(627.6950841213626 372) rotate(0 19.5 10)"><text x="0" y="16" font-family="Cascadia, Segoe UI Emoji" font-size="16px" fill="#000000" text-anchor="start" style="white-space: pre;" direction="ltr">null</text></g><g stroke-linecap="round"><g transform="translate(221.69508412136258 149) rotate(0 108.3368706322679 -8.585369741831101)"><path d="M-1.1 -0.84 C24.13 23.44, 48.52 47.67, 81.93 83.11 M0.82 0.12 C21.62 21.32, 42.29 44.94, 80.3 81.53 M80.56 81.55 C119.97 25.81, 163.61 -28.93, 215.7 -100.28 M81.09 81.58 C112.04 39.59, 145.49 -2.85, 217.78 -99.95" stroke="#000000" stroke-width="1" fill="none"></path></g><g transform="translate(221.69508412136258 149) rotate(0 108.3368706322679 -8.585369741831101)"><path d="M207.97 -72.07 C212.07 -79.45, 215.57 -87.22, 218.71 -98.83 M209.89 -71.12 C211.48 -79.7, 212.85 -85.63, 217.08 -100.41" stroke="#000000" stroke-width="1" fill="none"></path></g><g transform="translate(221.69508412136258 149) rotate(0 108.3368706322679 -8.585369741831101)"><path d="M191.55 -84.38 C200.42 -88.28, 208.66 -92.49, 218.71 -98.83 M193.47 -83.43 C199.43 -88.67, 205.19 -91.32, 217.08 -100.41" stroke="#000000" stroke-width="1" fill="none"></path></g></g><mask></mask><g stroke-linecap="round"><g transform="translate(218.69508412136258 407) rotate(0 109.18743888369465 -156.82749489968342)"><path d="M-0.77 1.96 C26.65 10.87, 48.87 20.87, 107.57 44.63 M0.83 -0.8 C20.67 9.64, 42.02 17.29, 106.2 43.24 M105.15 42.19 C130.5 -40.54, 153.29 -125.42, 219.14 -357.72 M105.84 42.91 C148.57 -106.94, 191.77 -256.6, 218.54 -358.28" stroke="#000000" stroke-width="1" fill="none"></path></g><g transform="translate(218.69508412136258 407) rotate(0 109.18743888369465 -156.82749489968342)"><path d="M220.27 -326.43 C221.7 -334.82, 218.49 -341.9, 220.1 -356.65 M221.87 -329.19 C219.51 -333.71, 219.05 -340.71, 218.73 -358.05" stroke="#000000" stroke-width="1" fill="none"></path></g><g transform="translate(218.69508412136258 407) rotate(0 109.18743888369465 -156.82749489968342)"><path d="M200.47 -331.82 C206.58 -338.91, 208.01 -344.72, 220.1 -356.65 M202.07 -334.58 C203.71 -337.95, 207.24 -343.87, 218.73 -358.05" stroke="#000000" stroke-width="1" fill="none"></path></g></g><mask></mask><g stroke-linecap="round"><g transform="translate(640.6950841213626 179) rotate(0 -0.5 40)"><path d="M0 0 C-0.37 29.48, -0.74 58.96, -1 80 M0 0 C-0.3 23.97, -0.6 47.93, -1 80" stroke="#000000" stroke-width="1" fill="none"></path></g><g transform="translate(640.6950841213626 179) rotate(0 -0.5 40)"><path d="M-10.91 51.68 C-7.26 62.12, -3.61 72.55, -1 80 M-10.91 51.68 C-7.94 60.17, -4.97 68.65, -1 80" stroke="#000000" stroke-width="1" fill="none"></path></g><g transform="translate(640.6950841213626 179) rotate(0 -0.5 40)"><path d="M9.61 51.94 C5.7 62.28, 1.79 72.62, -1 80 M9.61 51.94 C6.43 60.35, 3.25 68.75, -1 80" stroke="#000000" stroke-width="1" fill="none"></path></g></g><mask></mask></svg>