<svg version="1.1" xmlns="http://www.w3.org/2000/svg" viewBox="0 0 309.276296314702 316.1580653509433" width="309.276296314702" height="316.1580653509433">
  <!-- svg-source:excalidraw -->
  
  <defs>
    <style class="style-fonts">
      @font-face {
        font-family: "Virgil";
        src: url("https://excalidraw.com/Virgil.woff2");
      }
      @font-face {
        font-family: "Cascadia";
        src: url("https://excalidraw.com/Cascadia.woff2");
      }
    </style>
  </defs>
  <rect x="0" y="0" width="309.276296314702" height="316.1580653509433" fill="#ffffff"></rect><g stroke-linecap="round" transform="translate(11.408920299373449 10) rotate(0 143 147)"><path d="M0.9 -0.91 C66.92 0.72, 137.82 0.67, 287.34 -0.22 M0.38 -0.17 C97.43 -0.56, 195.52 -0.9, 285.66 0.49 M286.54 0.84 C283.81 76.84, 284.97 154.49, 287.26 294.35 M285.78 0.08 C285.56 73.31, 284.54 147.24, 286.57 293.44 M287.14 293.64 C173.41 295.35, 60.62 295.58, -0.95 294.13 M285.85 293.31 C222.44 295.91, 159.06 295.86, -0.62 293.68 M0.54 294.92 C1.59 218.33, -1.3 143.61, -1.37 -0.17 M-0.5 294.33 C-0.62 198.73, -0.7 103.57, 0.37 0.42" stroke="#000000" stroke-width="1" fill="none"></path></g><g transform="translate(73.40892029937345 20) rotate(0 85.5 13)"><text x="0" y="18" font-family="Virgil, Segoe UI Emoji" font-size="20px" fill="#000000" text-anchor="start" style="white-space: pre;" direction="ltr">Activation object</text></g><g stroke-linecap="round"><g transform="translate(12.408920299373449 54) rotate(0 142.31092015670743 -0.12422351388721609)"><path d="M0.45 1.42 C89.17 -0.42, 179.02 -1.29, 284.55 -1.55 M0.07 0.51 C111.35 1.5, 222.77 0.94, 283.7 -1.67" stroke="#000000" stroke-width="1" fill="none"></path></g></g><mask></mask><g transform="translate(69.40892029937345 68) rotate(0 6.5 13)"><text x="0" y="18" font-family="Virgil, Segoe UI Emoji" font-size="20px" fill="#000000" text-anchor="start" style="white-space: pre;" direction="ltr">x</text></g><g transform="translate(219.40892029937345 69) rotate(0 10.5 13)"><text x="0" y="18" font-family="Virgil, Segoe UI Emoji" font-size="20px" fill="#000000" text-anchor="start" style="white-space: pre;" direction="ltr">10</text></g><g transform="translate(70.40892029937345 119) rotate(0 5.5 13)"><text x="0" y="18" font-family="Virgil, Segoe UI Emoji" font-size="20px" fill="#000000" text-anchor="start" style="white-space: pre;" direction="ltr">y</text></g><g transform="translate(214.40892029937345 124) rotate(0 15 13)"><text x="0" y="18" font-family="Virgil, Segoe UI Emoji" font-size="20px" fill="#000000" text-anchor="start" style="white-space: pre;" direction="ltr">20</text></g><g transform="translate(27.40892029937345 177) rotate(0 50 13)"><text x="0" y="18" font-family="Virgil, Segoe UI Emoji" font-size="20px" fill="#000000" text-anchor="start" style="white-space: pre;" direction="ltr">arguments</text></g><g transform="translate(148.40892029937345 175) rotate(0 74.5 13.5)"><text x="0" y="21" font-family="Helvetica, Segoe UI Emoji" font-size="20px" fill="#000000" text-anchor="start" style="white-space: pre;" direction="ltr">{ 0: 10, 1: 20, ...}</text></g><g transform="translate(70.40892029937345 232.5) rotate(0 6.5 13)"><text x="0" y="18" font-family="Virgil, Segoe UI Emoji" font-size="20px" fill="#000000" text-anchor="start" style="white-space: pre;" direction="ltr">z</text></g><g transform="translate(212.40892029937345 221) rotate(0 14.5 13)"><text x="0" y="18" font-family="Virgil, Segoe UI Emoji" font-size="20px" fill="#000000" text-anchor="start" style="white-space: pre;" direction="ltr">30</text></g><g transform="translate(61.40892029937345 275) rotate(0 17 13)"><text x="0" y="18" font-family="Virgil, Segoe UI Emoji" font-size="20px" fill="#000000" text-anchor="start" style="white-space: pre;" direction="ltr">bar</text></g><g transform="translate(185.40892029937345 274) rotate(0 50 13)"><text x="0" y="18" font-family="Virgil, Segoe UI Emoji" font-size="20px" fill="#000000" text-anchor="start" style="white-space: pre;" direction="ltr">&lt;function&gt;</text></g><g stroke-linecap="round"><g transform="translate(10.408920299373449 111) rotate(0 142.93272102295577 -2.2877151651042595)"><path d="M-0.3 -0.77 C81.74 0.18, 165.28 -1.75, 286.16 -3.53 M-0.21 0.51 C90.17 -3.31, 181.41 -5.57, 285.26 -4.99" stroke="#000000" stroke-width="1" fill="none"></path></g></g><mask></mask><g stroke-linecap="round"><g transform="translate(11.408920299373449 164) rotate(0 143.22922785797755 -4.575598061793045)"><path d="M-1.41 -0.01 C97.57 -2.21, 192.94 -6.4, 287.87 -9.14 M-0.05 -0.24 C101.22 -1.39, 202.79 -5.18, 286.94 -8.51" stroke="#000000" stroke-width="1" fill="none"></path></g></g><mask></mask><g stroke-linecap="round"><g transform="translate(11.408920299373449 224) rotate(0 142.5738764618415 -4.319777698229046)"><path d="M-0.54 1.33 C82.13 -2.32, 165.72 -4.21, 285.68 -9.97 M0 0.64 C109.47 -2.39, 218.44 -5.58, 285.58 -9.44" stroke="#000000" stroke-width="1" fill="none"></path></g></g><mask></mask><g stroke-linecap="round"><g transform="translate(11.408920299373449 264) rotate(0 143.768613049149 -2.2831515845428783)"><path d="M1.22 -0.52 C68.56 0.11, 133.3 -0.41, 286.35 -4.36 M-0.13 -0.22 C90.8 -0.11, 181.42 -0.55, 287.66 -4.21" stroke="#000000" stroke-width="1" fill="none"></path></g></g><mask></mask><g stroke-linecap="round"><g transform="translate(152.40892029937345 56) rotate(0 -4.3816267238485125 124.44795229700367)"><path d="M0.67 -1.26 C-1 80.6, -3.75 163.24, -7.65 249.62 M-0.59 -0.14 C-3.9 68.55, -5.98 135.23, -9.44 250.16" stroke="#000000" stroke-width="1" fill="none"></path></g></g><mask></mask></svg>