<?xml version="1.0" standalone="no"?>
<!DOCTYPE svg PUBLIC "-//W3C//DTD SVG 20010904//EN"
 "http://www.w3.org/TR/2001/REC-SVG-20010904/DTD/svg10.dtd">
<svg version="1.0" xmlns="http://www.w3.org/2000/svg"
 width="135.000000pt" height="134.000000pt" viewBox="0 0 135.000000 134.000000"
 preserveAspectRatio="xMidYMid meet">

<g transform="translate(0.000000,134.000000) scale(0.100000,-0.100000)"
fill="#000000" stroke="none">
<path d="M20 1205 l0 -126 123 3 122 3 3 123 3 122 -126 0 -125 0 0 -125z
m210 5 l0 -90 -90 0 -90 0 0 90 0 90 90 0 90 0 0 -90z"/>
<path d="M90 1210 l0 -50 50 0 50 0 0 50 0 50 -50 0 -50 0 0 -50z"/>
<path d="M370 1295 c0 -28 4 -35 20 -35 11 0 20 -7 20 -15 0 -8 7 -15 15 -15
8 0 15 -9 15 -20 0 -11 -7 -20 -15 -20 -10 0 -15 -11 -15 -35 0 -24 5 -35 15
-35 10 0 15 -11 15 -35 0 -24 -5 -35 -15 -35 -9 0 -15 -9 -15 -21 0 -35 -34
-19 -38 17 -2 25 1 33 17 37 27 7 28 37 1 37 -13 0 -20 -7 -20 -20 0 -11 -7
-20 -15 -20 -8 0 -15 -7 -15 -15 0 -11 -17 -15 -72 -17 l-73 -3 -3 -32 c-3
-32 -32 -49 -32 -19 0 7 -9 16 -20 19 -11 3 -20 12 -20 21 0 23 -27 20 -33 -4
-3 -11 -12 -20 -21 -20 -9 0 -16 -7 -16 -15 0 -8 -7 -15 -15 -15 -12 0 -15
-19 -15 -110 0 -91 3 -110 15 -110 8 0 15 -7 15 -15 0 -8 9 -15 20 -15 13 0
20 -7 20 -20 0 -13 -7 -20 -20 -20 -26 0 -26 -26 0 -33 15 -4 20 -14 20 -36 0
-21 5 -31 15 -31 8 0 15 -9 15 -20 0 -13 7 -20 20 -20 16 0 20 -7 20 -35 0
-24 5 -35 15 -35 10 0 15 -11 15 -35 0 -24 -5 -35 -15 -35 -8 0 -15 7 -15 15
0 10 -11 15 -35 15 -24 0 -35 -5 -35 -15 0 -10 -11 -15 -35 -15 -28 0 -35 -4
-35 -20 0 -17 7 -20 49 -20 40 0 50 3 54 20 3 11 12 20 21 20 12 0 16 -10 16
-35 l0 -35 -70 0 c-63 0 -70 -2 -70 -20 0 -18 7 -20 70 -20 63 0 70 2 70 20 0
16 7 20 35 20 29 0 35 -4 35 -21 0 -14 5 -19 17 -17 25 5 28 29 4 35 -35 9
-25 33 14 33 24 0 35 -5 35 -15 0 -8 9 -15 20 -15 13 0 20 -7 20 -20 0 -11 7
-20 15 -20 11 0 15 -12 15 -51 0 -42 3 -52 20 -56 11 -3 20 -12 20 -19 0 -8 7
-14 15 -14 8 0 15 -9 15 -20 0 -11 -7 -20 -15 -20 -8 0 -15 -7 -15 -15 0 -8
-9 -15 -20 -15 -16 0 -20 7 -20 35 0 24 -5 35 -15 35 -8 0 -15 -7 -15 -16 0
-9 -9 -18 -20 -21 -35 -9 -24 -33 15 -33 33 0 35 -2 35 -35 l0 -35 55 0 c43 0
55 3 55 16 0 10 7 14 18 12 9 -2 16 -10 15 -16 -2 -7 6 -12 17 -12 11 0 20 7
20 15 0 12 17 15 90 15 73 0 90 -3 90 -15 0 -8 7 -15 15 -15 8 0 15 7 15 15 0
8 9 15 20 15 11 0 20 -7 20 -15 0 -8 8 -15 18 -15 10 0 19 7 19 15 0 8 -9 15
-19 15 -11 0 -18 7 -18 20 0 16 7 20 35 20 24 0 35 5 35 15 0 10 -11 15 -35
15 -33 0 -35 2 -35 35 0 28 -4 35 -20 35 -11 0 -20 -7 -20 -15 0 -11 -12 -15
-50 -15 -43 0 -50 -3 -50 -20 0 -18 7 -20 70 -20 56 0 70 -3 70 -15 0 -12 -14
-15 -70 -15 -56 0 -70 3 -70 15 0 8 -9 15 -20 15 -11 0 -20 -7 -20 -15 0 -8
-7 -15 -15 -15 -10 0 -15 11 -15 35 0 33 2 35 35 35 28 0 35 4 35 20 0 13 5
18 15 14 10 -4 15 0 15 15 0 17 -6 21 -35 21 -28 0 -35 4 -35 20 0 16 -7 20
-35 20 -24 0 -35 5 -35 15 0 8 -8 15 -18 15 -10 0 -19 -7 -19 -15 0 -8 9 -15
19 -15 11 0 18 -7 18 -20 0 -13 7 -20 20 -20 16 0 20 -7 20 -35 0 -28 -4 -35
-20 -35 -11 0 -20 7 -20 15 0 8 -9 15 -20 15 -11 0 -19 -6 -17 -12 1 -8 -12
-14 -35 -16 -28 -2 -38 1 -38 11 0 8 9 17 20 20 11 3 20 12 20 21 0 9 -8 16
-20 16 -13 0 -20 -7 -20 -20 0 -11 -7 -20 -15 -20 -8 0 -15 9 -15 20 0 11 7
20 15 20 8 0 15 9 15 20 0 11 -7 20 -15 20 -10 0 -15 11 -15 35 0 24 5 35 15
35 10 0 15 -11 15 -35 0 -28 4 -35 20 -35 16 0 20 7 20 35 0 33 2 35 35 35 24
0 35 5 35 15 0 10 11 15 35 15 24 0 35 -5 35 -15 0 -8 -7 -15 -15 -15 -8 0
-15 -9 -15 -20 0 -16 7 -20 35 -20 24 0 35 -5 35 -15 0 -11 12 -15 50 -15 38
0 50 4 50 15 0 8 9 15 20 15 16 0 20 7 20 35 0 28 4 35 20 35 11 0 19 -6 17
-12 -1 -8 12 -14 36 -16 28 -2 37 0 37 12 0 9 7 16 15 16 8 0 15 9 15 20 0 11
-7 20 -15 20 -10 0 -15 11 -15 35 0 28 -4 35 -20 35 -18 0 -20 -7 -20 -56 0
-47 -3 -55 -17 -52 -13 2 -17 12 -17 36 1 25 -3 32 -17 32 -11 0 -19 -6 -19
-14 0 -7 -9 -16 -20 -19 -15 -4 -20 -14 -20 -36 0 -21 -5 -31 -15 -31 -8 0
-15 -9 -15 -20 0 -13 -7 -20 -20 -20 -18 0 -20 7 -20 70 l0 70 -35 0 c-33 0
-35 2 -35 35 0 24 -5 35 -15 35 -10 0 -15 -11 -15 -35 0 -24 5 -35 15 -35 8 0
15 -7 15 -15 0 -10 -11 -15 -35 -15 -24 0 -35 5 -35 15 0 12 -13 15 -55 15
-48 0 -55 2 -55 20 0 11 -7 20 -15 20 -9 0 -15 -9 -15 -21 0 -35 -34 -19 -38
17 -2 25 1 33 17 37 12 3 21 12 21 21 0 13 -14 16 -90 16 -83 0 -90 -1 -90
-20 0 -18 7 -20 55 -20 42 0 55 -3 55 -15 0 -12 -13 -15 -55 -15 -42 0 -55 3
-55 15 0 8 -7 15 -16 15 -9 0 -18 9 -21 20 -3 11 -12 20 -19 20 -8 0 -14 9
-14 20 0 11 7 20 15 20 8 0 15 7 15 15 0 8 9 15 20 15 11 0 20 -7 20 -15 0
-10 11 -15 35 -15 33 0 35 2 35 35 0 28 4 35 20 35 11 0 20 7 20 15 0 8 7 15
15 15 8 0 15 9 15 20 0 11 -7 20 -15 20 -8 0 -15 7 -15 15 0 8 -9 15 -20 15
-11 0 -20 -7 -20 -15 0 -8 -6 -15 -14 -15 -7 0 -16 -9 -19 -20 -4 -15 -14 -20
-37 -20 -23 0 -33 5 -37 20 -4 17 -14 20 -54 20 l-49 0 0 35 c0 24 5 35 15 35
8 0 15 9 15 21 0 13 -6 20 -17 18 -49 -4 -53 -1 -53 51 0 43 3 50 20 50 16 0
20 -7 20 -35 0 -24 5 -35 15 -35 10 0 15 11 15 35 0 33 2 35 35 35 24 0 35 -5
35 -15 0 -8 -7 -15 -15 -15 -8 0 -15 -9 -15 -20 0 -11 6 -20 14 -20 7 0 16 9
19 20 3 11 12 20 21 20 9 0 16 6 16 14 0 7 9 16 20 19 11 3 20 12 20 21 0 9
-8 16 -20 16 -11 0 -20 7 -20 15 0 8 9 15 20 15 11 0 20 -7 20 -15 0 -8 7 -15
15 -15 8 0 15 7 15 15 0 8 9 15 20 15 11 0 20 -7 20 -15 0 -8 7 -15 15 -15 8
0 15 -9 15 -20 0 -11 -7 -20 -15 -20 -8 0 -15 -6 -15 -14 0 -7 -9 -16 -20 -19
-11 -3 -20 -12 -20 -21 0 -12 10 -16 35 -16 37 0 50 -25 20 -36 -8 -4 -15 -12
-15 -20 0 -8 7 -14 15 -14 10 0 15 -11 15 -35 0 -28 4 -35 20 -35 13 0 20 -7
20 -20 0 -13 -7 -20 -20 -20 -16 0 -20 -7 -20 -35 0 -24 -5 -35 -15 -35 -8 0
-15 -7 -15 -15 0 -8 7 -15 15 -15 8 0 15 7 15 15 0 8 9 15 20 15 13 0 20 7 20
20 0 16 7 20 35 20 23 0 35 5 35 14 0 7 9 16 20 19 13 3 18 10 14 21 -9 23
-34 20 -34 -5 0 -36 -34 -19 -38 19 -3 31 -2 32 32 32 25 0 36 -4 36 -15 0 -8
9 -15 20 -15 18 0 20 7 20 70 l0 70 -35 0 c-23 0 -35 -5 -35 -14 0 -7 -9 -16
-20 -19 -11 -3 -20 -12 -20 -21 0 -12 -10 -16 -35 -16 -25 0 -35 4 -35 16 0 9
9 18 20 21 11 3 20 12 20 19 0 9 12 14 35 14 28 0 35 4 35 20 0 13 7 20 20 20
13 0 18 5 14 15 -4 8 -12 15 -20 15 -8 0 -14 9 -14 20 0 13 -7 20 -20 20 -11
0 -20 7 -20 15 0 8 9 15 20 15 11 0 20 -7 20 -15 0 -10 11 -15 35 -15 33 0 35
-2 35 -35 0 -29 4 -35 20 -35 19 0 21 5 18 67 -2 55 -6 68 -20 71 -13 2 -18
-3 -18 -17 0 -20 -19 -28 -33 -15 -9 10 4 34 19 34 10 0 14 15 14 56 0 47 -3
55 -17 52 -13 -2 -18 -13 -19 -38 0 -25 -5 -36 -17 -38 -14 -3 -17 4 -17 37 0
30 4 41 15 41 9 0 18 7 21 15 4 8 12 15 20 15 8 0 14 -7 14 -15 0 -8 9 -15 20
-15 16 0 20 7 20 35 0 24 5 35 15 35 10 0 15 11 15 35 0 33 2 35 35 35 24 0
35 5 35 15 0 12 -14 15 -70 15 l-70 0 0 -35 c0 -28 -4 -35 -20 -35 -11 0 -20
-7 -20 -15 0 -8 -7 -15 -15 -15 -8 0 -15 6 -15 14 0 7 -9 16 -21 19 -24 6 -21
30 4 35 12 2 17 -3 17 -17 0 -12 6 -21 14 -21 17 0 24 17 18 47 -4 21 -9 23
-73 23 l-69 0 0 -35z m-250 -335 c0 -11 -7 -20 -15 -20 -8 0 -15 9 -15 20 0
11 7 20 15 20 8 0 15 -9 15 -20z m360 -35 c0 -10 -11 -15 -35 -15 -24 0 -35 5
-35 15 0 10 11 15 35 15 24 0 35 -5 35 -15z m-320 -300 c0 -28 -4 -35 -20 -35
-15 0 -20 7 -20 28 0 32 7 42 27 42 8 0 13 -12 13 -35z m105 15 c0 -8 -8 -16
-17 -18 -13 -2 -18 3 -18 18 0 15 5 20 18 18 9 -2 17 -10 17 -18z m5 -215 c0
-8 -9 -15 -20 -15 -14 0 -20 -7 -20 -21 0 -25 -33 -22 -38 4 -2 12 3 17 17 17
12 0 21 6 21 15 0 8 9 15 20 15 11 0 20 -7 20 -15z m70 0 c0 -10 11 -15 35
-15 24 0 35 5 35 15 0 8 7 15 15 15 10 0 15 -11 15 -35 0 -33 -2 -35 -35 -35
-24 0 -35 -5 -35 -15 0 -8 -7 -15 -15 -15 -8 0 -15 7 -15 15 0 8 -9 15 -20 15
-16 0 -20 7 -20 35 0 28 4 35 20 35 11 0 20 -7 20 -15z m210 -35 c0 -16 -7
-20 -35 -20 -28 0 -35 4 -35 20 0 16 7 20 35 20 28 0 35 -4 35 -20z m0 -251
c0 -14 -5 -19 -17 -17 -26 5 -29 38 -4 38 15 0 21 -6 21 -21z m-70 -69 c0 -16
-7 -20 -35 -20 -28 0 -35 4 -35 20 0 16 7 20 35 20 28 0 35 -4 35 -20z m70 0
c0 -13 -7 -20 -20 -20 -19 0 -27 20 -13 33 13 14 33 6 33 -13z"/>
<path d="M730 1280 c0 -43 -3 -50 -20 -50 -11 0 -20 7 -20 15 0 8 -7 15 -15
15 -8 0 -15 -7 -15 -15 0 -8 -9 -15 -20 -15 -13 0 -20 -7 -20 -20 0 -13 7 -20
20 -20 13 0 20 7 20 20 0 11 7 20 15 20 10 0 15 -11 15 -35 0 -31 3 -35 28
-36 15 -1 30 -1 35 0 4 0 7 -8 7 -19 0 -11 -7 -20 -15 -20 -8 0 -15 -9 -15
-20 0 -11 7 -20 15 -20 8 0 15 9 15 20 0 13 7 20 20 20 13 0 20 -7 20 -20 0
-11 7 -20 15 -20 15 0 25 29 23 65 0 11 0 26 1 33 2 17 31 15 31 -3 0 -10 11
-15 35 -15 24 0 35 5 35 15 0 8 9 15 20 15 18 0 20 7 20 70 0 63 -2 70 -20 70
-16 0 -20 -7 -20 -35 0 -24 -5 -35 -15 -35 -10 0 -15 -11 -15 -35 0 -28 -4
-35 -20 -35 -14 0 -20 7 -20 21 0 14 -5 19 -17 17 -11 -2 -17 -11 -15 -22 3
-14 -3 -17 -34 -14 -42 3 -58 26 -25 35 27 7 27 29 1 36 -11 3 -20 10 -20 17
0 7 9 14 20 17 35 9 24 33 -15 33 l-35 0 0 -50z"/>
<path d="M836 1315 c4 -8 12 -15 20 -15 8 0 14 -9 14 -20 0 -13 7 -20 20 -20
12 0 20 7 20 16 0 9 -9 18 -20 21 -11 3 -20 12 -20 19 0 8 -9 14 -20 14 -13 0
-18 -5 -14 -15z"/>
<path d="M1082 1208 l3 -123 123 -3 122 -3 0 126 0 125 -125 0 -126 0 3 -122z
m218 2 l0 -90 -90 0 -90 0 0 90 0 90 90 0 90 0 0 -90z"/>
<path d="M1160 1210 l0 -50 50 0 50 0 0 50 0 50 -50 0 -50 0 0 -50z"/>
<path d="M302 1193 c3 -93 5 -108 21 -111 14 -3 17 5 17 52 0 43 3 56 15 56
10 0 15 11 15 35 0 23 -5 35 -14 35 -7 0 -16 9 -19 20 -3 11 -12 20 -21 20
-15 0 -16 -14 -14 -107z"/>
<path d="M1017 1293 c-4 -3 -7 -28 -7 -55 0 -41 3 -48 20 -48 18 0 20 7 20 55
0 39 -4 55 -13 55 -8 0 -17 -3 -20 -7z"/>
<path d="M623 1140 c-3 -11 -12 -20 -19 -20 -8 0 -14 -9 -14 -20 0 -11 7 -20
15 -20 8 0 15 9 15 20 0 13 7 20 20 20 16 0 20 -7 20 -35 0 -28 -4 -35 -20
-35 -18 0 -20 -7 -20 -70 0 -63 2 -70 20 -70 17 0 20 7 20 50 l0 50 35 0 c33
0 35 -2 35 -35 0 -28 -4 -35 -20 -35 -11 0 -20 -7 -20 -15 0 -8 -7 -15 -15
-15 -23 0 -21 -67 3 -72 27 -6 52 3 52 18 0 22 27 16 33 -6 3 -11 11 -19 19
-18 9 2 14 -12 16 -49 l3 -53 -35 0 -36 0 0 -55 c0 -48 -2 -55 -20 -55 -11 0
-20 -7 -20 -15 0 -10 -11 -15 -35 -15 -33 0 -35 2 -35 35 0 24 -5 35 -15 35
-8 0 -15 7 -15 15 0 8 7 15 15 15 8 0 15 9 15 20 0 13 7 20 20 20 13 0 20 -7
20 -20 0 -11 7 -20 15 -20 12 0 15 13 15 55 l0 55 -34 0 c-25 0 -35 5 -39 20
-9 35 -27 22 -27 -20 0 -29 4 -40 15 -40 8 0 15 -7 15 -15 0 -8 -7 -15 -15
-15 -8 0 -15 -9 -15 -20 0 -17 -7 -20 -41 -20 -32 0 -40 -3 -38 -17 4 -46 0
-53 -36 -53 -24 0 -35 -5 -35 -15 0 -12 17 -15 90 -15 83 0 90 -1 90 -20 0
-13 7 -20 20 -20 16 0 20 -7 20 -35 l0 -35 49 0 c40 0 50 -3 54 -20 3 -11 12
-20 21 -20 9 0 16 8 16 20 0 14 -7 20 -21 20 -18 0 -20 5 -17 53 3 46 6 52 26
55 13 2 30 1 38 -2 17 -7 7 -36 -13 -36 -8 0 -13 -7 -11 -17 3 -15 15 -18 73
-20 39 -1 78 -2 88 -2 9 -1 17 -8 17 -16 0 -8 7 -15 15 -15 8 0 15 -9 15 -20
0 -16 -7 -20 -35 -20 -24 0 -35 -5 -35 -15 0 -8 9 -15 20 -15 12 0 20 -7 20
-16 0 -9 -9 -18 -20 -21 -11 -3 -20 -11 -20 -18 0 -7 9 -15 20 -18 15 -4 20
-14 20 -36 0 -21 5 -31 15 -31 8 0 15 -9 15 -20 0 -16 -7 -20 -35 -20 -33 0
-35 2 -35 35 0 24 -5 35 -15 35 -8 0 -15 -7 -15 -15 0 -8 -9 -15 -20 -15 -11
0 -20 7 -20 15 0 10 -11 15 -35 15 -24 0 -35 -5 -35 -15 0 -8 -9 -15 -20 -15
-13 0 -20 -7 -20 -20 0 -13 7 -20 20 -20 13 0 20 7 20 20 0 26 30 26 37 0 4
-17 14 -20 54 -20 l49 0 0 -35 c0 -28 4 -35 20 -35 16 0 20 -7 20 -35 0 -28
-4 -35 -20 -35 -11 0 -20 7 -20 15 0 8 -7 15 -15 15 -8 0 -15 -7 -15 -15 0 -8
7 -15 15 -15 8 0 15 -9 15 -20 0 -11 -7 -20 -15 -20 -8 0 -15 -7 -15 -15 0 -8
7 -15 15 -15 8 0 15 7 15 15 0 8 9 15 20 15 11 0 20 -7 20 -15 0 -10 11 -15
35 -15 33 0 35 2 35 35 0 24 5 35 15 35 8 0 15 7 15 15 0 8 -7 15 -15 15 -8 0
-15 -7 -15 -15 0 -8 -9 -15 -20 -15 -16 0 -20 7 -20 35 l0 36 73 -3 c71 -3 72
-3 75 -31 3 -22 -1 -30 -17 -34 -12 -3 -21 -14 -21 -24 0 -12 -7 -19 -20 -19
-11 0 -20 -7 -20 -15 0 -11 11 -15 40 -15 39 0 40 1 40 35 0 33 2 35 35 35 24
0 35 5 35 15 0 8 7 15 15 15 8 0 15 -7 15 -15 0 -10 11 -15 35 -15 33 0 35 2
35 35 0 24 -5 35 -15 35 -10 0 -15 11 -15 35 0 24 5 35 15 35 10 0 15 11 15
35 0 33 -2 35 -35 35 -39 0 -50 -24 -15 -33 11 -3 20 -12 20 -21 0 -9 -8 -16
-20 -16 -16 0 -20 -7 -20 -35 0 -29 4 -35 21 -35 25 0 22 -33 -4 -38 -12 -2
-17 3 -17 17 0 17 -6 21 -35 21 -39 0 -50 24 -15 33 11 3 20 12 20 21 0 9 7
16 15 16 8 0 15 9 15 20 0 11 -7 20 -15 20 -8 0 -15 7 -15 15 0 8 7 15 15 15
8 0 15 9 15 20 0 16 7 20 35 20 l35 0 0 70 c0 56 -3 70 -15 70 -8 0 -15 7 -15
15 0 8 7 15 15 15 8 0 15 9 15 20 0 11 -7 20 -15 20 -10 0 -15 11 -15 35 0 24
5 35 15 35 12 0 15 13 15 55 0 42 -3 55 -15 55 -8 0 -15 7 -15 15 0 8 -9 15
-20 15 -11 0 -20 -7 -20 -15 0 -8 -7 -15 -15 -15 -10 0 -15 -11 -15 -35 0 -33
-2 -35 -35 -35 -32 0 -35 2 -35 31 0 22 -5 32 -20 36 -11 3 -20 11 -20 18 0 7
-9 15 -21 18 -31 8 -18 31 20 35 26 3 34 -1 38 -17 7 -29 63 -30 70 -1 3 11
12 20 19 20 9 0 14 12 14 35 0 28 4 35 20 35 16 0 20 -7 20 -35 0 -24 5 -35
15 -35 12 0 15 18 15 105 0 87 -3 105 -15 105 -8 0 -15 9 -15 20 0 19 -7 20
-90 20 -83 0 -90 -1 -90 -20 0 -13 -7 -20 -20 -20 -13 0 -20 7 -20 20 0 11 -7
20 -14 20 -11 0 -16 15 -18 53 -2 38 -7 52 -18 52 -10 0 -16 -12 -18 -37 -3
-40 -32 -56 -32 -18 0 13 -7 20 -20 20 -12 0 -20 -7 -20 -16 0 -9 9 -18 20
-21 11 -3 20 -12 20 -19 0 -9 12 -14 35 -14 28 0 35 -4 35 -20 0 -11 7 -20 15
-20 8 0 15 -7 15 -15 0 -10 -11 -15 -35 -15 -24 0 -35 5 -35 15 0 8 -7 15 -15
15 -10 0 -15 -11 -15 -35 0 -28 -4 -35 -20 -35 -11 0 -20 -6 -20 -14 0 -7 9
-16 20 -19 17 -4 20 -14 20 -56 0 -44 -3 -51 -20 -51 -12 0 -20 -7 -20 -16 0
-9 9 -18 20 -21 15 -4 20 -14 20 -39 0 -27 -4 -34 -20 -34 -13 0 -20 7 -20 20
0 11 -7 20 -15 20 -12 0 -15 13 -15 55 0 42 3 55 15 55 8 0 15 7 15 15 0 10
-11 15 -35 15 -28 0 -35 4 -35 20 0 11 -6 20 -14 20 -24 0 -30 21 -7 27 12 3
21 13 21 24 0 16 -8 19 -55 19 -42 0 -55 3 -55 15 0 8 9 15 20 15 13 0 20 7
20 20 0 16 -7 20 -35 20 -23 0 -35 5 -35 14 0 7 -9 16 -20 19 -15 4 -20 14
-20 41 0 34 -2 36 -31 36 -22 0 -32 -5 -36 -20z m677 -145 c0 -10 -11 -15 -35
-15 -28 0 -35 -4 -35 -20 0 -16 7 -20 35 -20 24 0 35 -5 35 -15 0 -8 -7 -15
-16 -15 -9 0 -18 -9 -21 -20 -3 -11 -12 -20 -19 -20 -8 0 -14 -7 -14 -15 0
-14 -11 -17 -60 -17 -47 0 -50 2 -50 37 l0 35 -55 0 c-41 0 -55 4 -55 15 0 11
17 15 73 17 l72 3 3 33 3 32 70 0 c55 0 69 -3 69 -15z m-430 -201 c0 -24 -5
-34 -15 -34 -10 0 -15 10 -15 33 0 19 3 37 6 40 13 13 24 -5 24 -39z m180 -14
c0 -11 7 -20 15 -20 8 0 15 -7 15 -15 0 -8 -7 -15 -15 -15 -8 0 -15 7 -15 15
0 10 -11 15 -35 15 -28 0 -35 4 -35 20 0 16 7 20 35 20 28 0 35 -4 35 -20z
m-180 -70 c0 -11 -6 -20 -14 -20 -8 0 -16 -7 -20 -15 -3 -8 -12 -15 -21 -15
-9 0 -15 -9 -15 -21 0 -36 -34 -19 -38 19 -3 27 0 32 17 32 14 0 21 6 21 20 0
16 7 20 35 20 28 0 35 -4 35 -20z m430 -15 c0 -28 -4 -35 -20 -35 -16 0 -20
-7 -20 -35 0 -24 -5 -35 -15 -35 -10 0 -15 11 -15 35 0 24 5 35 15 35 10 0 15
11 15 35 0 28 4 35 20 35 16 0 20 -7 20 -35z m-360 -19 c0 -7 9 -16 20 -19 11
-3 20 -12 20 -21 0 -9 7 -16 15 -16 8 0 15 -7 15 -15 0 -8 -7 -15 -15 -15 -8
0 -15 -9 -15 -20 0 -13 -7 -20 -20 -20 -16 0 -20 7 -20 35 0 23 -5 35 -14 35
-7 0 -16 9 -19 20 -3 11 -12 20 -21 20 -9 0 -16 -8 -16 -20 0 -13 7 -20 20
-20 11 0 20 -7 20 -15 0 -10 -11 -15 -35 -15 -19 0 -35 3 -36 8 -6 53 -4 62
13 62 10 0 18 7 18 15 0 10 11 15 35 15 23 0 35 -5 35 -14z m-352 -33 c-5 -26
-38 -29 -38 -4 0 15 6 21 21 21 14 0 19 -5 17 -17z m492 -38 c0 -40 -4 -55
-14 -55 -7 0 -16 -9 -19 -20 -9 -33 -37 -13 -37 26 0 27 4 34 20 34 16 0 20 7
20 35 0 24 5 35 15 35 12 0 15 -13 15 -55z m110 -20 l0 -35 55 0 c48 0 55 -2
55 -20 0 -13 -7 -20 -20 -20 -11 0 -20 -7 -20 -15 0 -9 9 -15 21 -15 36 0 19
-34 -19 -38 -20 -2 -32 -9 -32 -18 0 -8 -9 -14 -20 -14 -13 0 -20 -7 -20 -20
0 -11 -7 -20 -15 -20 -8 0 -15 -7 -15 -15 0 -8 -9 -15 -20 -15 -11 0 -20 7
-20 15 0 8 -9 15 -20 15 -11 0 -20 -7 -20 -15 0 -8 -7 -15 -15 -15 -8 0 -15 7
-15 15 0 8 7 15 15 15 8 0 15 9 15 20 0 11 -7 20 -16 20 -12 0 -14 10 -12 53
3 58 21 71 26 18 2 -23 9 -35 23 -38 10 -3 19 -12 19 -19 0 -8 9 -14 20 -14
11 0 20 7 20 15 0 8 7 15 15 15 8 0 15 9 15 20 0 11 -6 20 -14 20 -7 0 -16 -9
-19 -20 -3 -11 -12 -20 -21 -20 -9 0 -16 8 -16 20 0 13 7 20 20 20 11 0 20 7
20 15 0 8 7 15 15 15 8 0 15 9 15 20 0 11 -6 20 -14 20 -7 0 -16 9 -19 20 -3
11 -12 20 -21 20 -9 0 -16 7 -16 15 0 10 11 15 35 15 33 0 35 -2 35 -35z
m-465 -35 c0 -51 -29 -48 -33 3 -3 33 -1 38 15 35 13 -2 18 -12 18 -38z m393
-17 c-2 -10 -10 -18 -18 -18 -8 0 -16 8 -18 18 -2 12 3 17 18 17 15 0 20 -5
18 -17z m182 -143 c0 -13 -7 -20 -20 -20 -11 0 -20 -7 -20 -15 0 -8 -7 -15
-15 -15 -10 0 -15 11 -15 35 0 33 2 35 35 35 28 0 35 -4 35 -20z m-142 -142
l-3 -53 -52 -3 -53 -3 0 55 0 56 56 0 55 0 -3 -52z m-148 -178 c0 -11 -7 -20
-15 -20 -8 0 -15 9 -15 20 0 11 7 20 15 20 8 0 15 -9 15 -20z"/>
<path d="M1190 905 c0 -28 4 -35 20 -35 16 0 20 7 20 35 0 28 -4 35 -20 35
-16 0 -20 -7 -20 -35z"/>
<path d="M1085 260 c-8 -14 3 -30 21 -30 8 0 14 9 14 20 0 21 -24 28 -35 10z"/>
<path d="M870 1064 c0 -47 3 -55 18 -52 13 2 18 15 20 56 3 47 1 52 -17 52
-19 0 -21 -6 -21 -56z"/>
<path d="M300 960 c0 -13 7 -20 20 -20 13 0 20 7 20 20 0 13 -7 20 -20 20 -13
0 -20 -7 -20 -20z"/>
<path d="M230 891 c0 -15 6 -21 21 -21 14 0 19 5 17 17 -5 26 -38 29 -38 4z"/>
<path d="M160 820 c0 -14 -7 -20 -21 -20 -14 0 -19 -5 -17 -17 5 -26 38 -30
38 -5 0 11 9 22 20 25 13 3 18 10 14 21 -9 23 -34 20 -34 -4z"/>
<path d="M233 820 c-3 -11 -14 -20 -24 -20 -15 0 -19 -7 -19 -35 0 -34 1 -35
40 -35 29 0 40 4 40 15 0 8 7 15 15 15 8 0 15 9 15 20 0 11 -7 20 -15 20 -8 0
-15 6 -15 14 0 23 -31 29 -37 6z m35 -37 c-5 -26 -38 -29 -38 -4 0 15 6 21 21
21 14 0 19 -5 17 -17z"/>
<path d="M730 780 c0 -11 7 -20 15 -20 8 0 15 9 15 20 0 11 -7 20 -15 20 -8 0
-15 -9 -15 -20z"/>
<path d="M20 585 c0 -24 5 -35 15 -35 10 0 15 11 15 35 0 24 -5 35 -15 35 -10
0 -15 -11 -15 -35z"/>
<path d="M480 515 c0 -24 5 -35 15 -35 8 0 15 6 15 14 0 7 9 16 20 19 11 3 20
12 20 21 0 12 -10 16 -35 16 -33 0 -35 -2 -35 -35z"/>
<path d="M20 498 c0 -10 6 -18 14 -18 7 0 16 -9 19 -20 3 -11 12 -20 21 -20 9
0 16 8 16 20 0 11 7 20 15 20 18 0 20 30 3 31 -7 0 -30 2 -50 3 -31 2 -38 -1
-38 -16z"/>
<path d="M302 248 c2 -39 7 -53 18 -53 11 0 16 14 18 53 3 47 1 52 -18 52 -19
0 -21 -5 -18 -52z"/>
<path d="M20 145 l0 -125 125 0 126 0 -3 122 -3 123 -122 3 -123 3 0 -126z
m210 -5 l0 -90 -90 0 -90 0 0 90 0 90 90 0 90 0 0 -90z"/>
<path d="M90 140 l0 -50 50 0 50 0 0 50 0 50 -50 0 -50 0 0 -50z"/>
<path d="M870 175 c0 -8 9 -15 20 -15 11 0 20 7 20 15 0 8 -9 15 -20 15 -11 0
-20 -7 -20 -15z"/>
<path d="M1190 35 c0 -8 9 -15 20 -15 11 0 20 7 20 15 0 8 -9 15 -20 15 -11 0
-20 -7 -20 -15z"/>
<path d="M1300 35 c0 -8 7 -15 15 -15 8 0 15 7 15 15 0 8 -7 15 -15 15 -8 0
-15 -7 -15 -15z"/>
</g>
</svg>
