<svg version="1.0" xmlns="http://www.w3.org/2000/svg" width="520.000000pt" height="520.000000pt"
  viewBox="0 0 520.000000 520.000000" preserveAspectRatio="xMidYMid meet">
  <style>
    g {
      fill: black;
    }

    @media (prefers-color-scheme: dark) {
      g {
        fill: white;
      }
    }
  </style>
  <g transform="translate(0.000000,520.000000) scale(0.100000,-0.100000)" stroke="none">
    <path d="M2414 5115 c-223 -20 -515 -85 -729 -161 -185 -66 -454 -225 -660
-391 -112 -90 -342 -321 -427 -428 -286 -361 -478 -866 -519 -1365 -31 -387
41 -777 223 -1205 115 -271 213 -425 414 -655 191 -219 429 -409 663 -529 314
-161 861 -312 1141 -314 137 -1 401 20 532 43 298 50 668 204 971 402 528 346
939 986 1062 1656 35 191 47 546 25 739 -30 268 -101 506 -225 753 -242 485
-551 837 -955 1090 -183 115 -522 270 -590 270 -9 0 -79 16 -156 35 -175 43
-249 55 -346 55 -42 0 -80 5 -83 10 -8 13 -165 11 -341 -5z m481 -100 c131
-20 389 -80 495 -115 150 -50 301 -121 311 -147 9 -25 19 -29 35 -13 14 14
219 -111 342 -210 376 -301 673 -716 810 -1131 100 -304 128 -508 119 -854
-11 -401 -85 -741 -222 -1016 -57 -114 -212 -359 -227 -359 -4 0 -152 118
-329 263 -176 144 -328 263 -338 265 -10 2 -110 75 -222 164 -519 409 -808
641 -804 648 3 4 11 33 19 64 15 55 14 61 -8 131 -13 41 -38 92 -55 114 -41
51 -142 101 -188 94 l-33 -5 0 629 c0 459 3 632 11 640 13 13 27 343 29 668 1
123 4 173 11 157 11 -28 33 -24 37 6 3 19 10 22 55 22 29 0 97 -7 152 -15z
m-419 -12 c13 -17 15 -17 28 0 19 25 39 21 54 -11 9 -22 10 -113 2 -427 -7
-271 -7 -402 0 -409 7 -7 10 -222 10 -632 l0 -622 -50 -7 c-180 -25 -262 -237
-168 -435 l22 -44 -428 -423 c-237 -234 -437 -423 -446 -423 -10 0 -163 -140
-341 -312 l-323 -311 -53 59 c-259 286 -455 672 -543 1064 -140 627 -25 1296
315 1835 87 138 158 227 300 374 345 357 660 541 1141 666 78 20 285 53 424
68 19 2 37 5 39 5 2 1 10 -6 17 -15z m897 -2936 c292 -235 497 -406 497 -416
0 -15 284 -272 537 -487 l92 -78 -50 -57 c-171 -198 -491 -452 -705 -562 -533
-271 -1012 -350 -1566 -256 -385 65 -679 190 -1001 427 -122 89 -287 237 -286
255 0 7 44 51 97 99 206 184 547 510 550 525 2 9 -1 19 -7 23 -7 4 60 75 171
181 101 96 299 286 441 423 l258 249 37 -21 c20 -11 65 -26 100 -32 54 -11 71
-10 127 5 78 21 146 62 171 104 10 16 22 27 28 24 6 -4 235 -187 509 -406z" />
  </g>
</svg>