<svg version="1.1" xmlns="http://www.w3.org/2000/svg" viewBox="0 0 305 305.63728021005215" width="915" height="916.9118406301565">
  <!-- svg-source:excalidraw -->
  
  <defs>
    <style>
      @font-face {
        font-family: "Virgil";
        src: url("https://excalidraw.com/Virgil.woff2");
      }
      @font-face {
        font-family: "Cascadia";
        src: url("https://excalidraw.com/Cascadia.woff2");
      }
    </style>
  </defs>
  <rect x="0" y="0" width="305" height="305.63728021005215" fill="#ffffff"></rect><g stroke-linecap="round" transform="translate(10 10.637280210052182) rotate(0 142.5 142.5)"><path d="M189.04 8.51 C203.47 11.29, 218.06 21.58, 230.23 31.19 C242.4 40.8, 253.55 53.46, 262.05 66.18 C270.54 78.9, 277.65 92.85, 281.23 107.51 C284.81 122.16, 284.99 138.56, 283.54 154.13 C282.08 169.7, 278.42 186.67, 272.5 200.92 C266.59 215.17, 258.31 228.47, 248.04 239.62 C237.77 250.78, 224.74 260.46, 210.87 267.84 C197 275.22, 180.15 281.26, 164.81 283.89 C149.47 286.52, 133.78 286.44, 118.86 283.63 C103.94 280.81, 88.82 274.52, 75.28 267 C61.74 259.49, 48.04 249.78, 37.61 238.55 C27.18 227.32, 18.83 213.62, 12.7 199.6 C6.58 185.58, 2.3 169.66, 0.86 154.43 C-0.57 139.2, 0.48 123.13, 4.11 108.21 C7.73 93.29, 14.08 77.74, 22.6 64.92 C31.12 52.09, 43.26 40.65, 55.24 31.26 C67.23 21.87, 80.16 13.64, 94.48 8.58 C108.81 3.52, 125.65 1.15, 141.21 0.9 C156.76 0.66, 178.6 5.51, 187.81 7.11 C197.03 8.71, 194.34 9.06, 196.51 10.5 C198.69 11.94, 201.8 13.69, 200.88 15.74 M126.44 0.38 C140.86 -3.31, 159.59 1.39, 175.04 4.83 C190.49 8.27, 206.18 13.22, 219.14 21.02 C232.11 28.83, 243.08 39.91, 252.82 51.66 C262.56 63.41, 272.14 77.19, 277.57 91.54 C283 105.88, 285.36 122.17, 285.37 137.75 C285.38 153.33, 282.37 170.14, 277.61 185.02 C272.86 199.9, 265.73 214.4, 256.86 227.05 C247.99 239.7, 237.1 252.19, 224.41 260.92 C211.72 269.66, 195.68 275.54, 180.73 279.44 C165.79 283.34, 150.03 285.02, 134.72 284.33 C119.41 283.64, 103.25 280.87, 88.85 275.32 C74.44 269.77, 60.09 261.47, 48.29 251.06 C36.49 240.64, 25.57 226.15, 18.05 212.82 C10.53 199.49, 6.18 185.73, 3.16 171.08 C0.15 156.44, -1.94 140.55, -0.03 124.95 C1.87 109.35, 7.49 91.3, 14.61 77.46 C21.72 63.63, 31.43 52.3, 42.65 41.93 C53.87 31.55, 68.28 21.84, 81.91 15.22 C95.54 8.6, 116.79 4.44, 124.43 2.21 C132.08 -0.02, 127.18 1.68, 127.81 1.82 C128.44 1.97, 127.93 0.73, 128.21 3.09" stroke="#000000" stroke-width="2" fill="none"></path></g><g stroke-linecap="round" transform="translate(137 128.63728021005218) rotate(0 16.5 16.5)"><path d="M21.58 0.35 C24.97 1.04, 28.42 4.44, 30.18 7.58 C31.94 10.71, 32.53 15.49, 32.13 19.15 C31.73 22.81, 30.19 27.22, 27.79 29.53 C25.38 31.84, 21.34 32.85, 17.69 33.01 C14.04 33.18, 8.82 32.51, 5.89 30.54 C2.96 28.57, 0.79 24.94, 0.12 21.2 C-0.55 17.45, 0.3 11.48, 1.85 8.06 C3.4 4.64, 5.5 1.45, 9.41 0.68 C13.32 -0.08, 22.14 2.51, 25.31 3.49 C28.49 4.47, 28.66 6.42, 28.46 6.55 M19.03 1.24 C22.64 1.56, 27.79 2.8, 30.1 5.62 C32.42 8.44, 33.18 14.47, 32.94 18.15 C32.71 21.82, 30.81 25.17, 28.68 27.69 C26.54 30.21, 23.44 32.55, 20.14 33.27 C16.84 33.98, 12.26 34.04, 8.87 32 C5.47 29.95, 0.82 24.73, -0.24 20.98 C-1.29 17.23, 1.33 12.54, 2.53 9.5 C3.73 6.47, 4.08 4.35, 6.95 2.79 C9.81 1.24, 17.85 0.56, 19.71 0.18 C21.58 -0.21, 18.33 0.09, 18.14 0.49" stroke="none" stroke-width="0" fill="#000000"></path><path d="M19.14 0.85 C22.39 1.05, 25.06 2.05, 27.36 4.57 C29.67 7.09, 32.55 12.32, 32.96 15.97 C33.36 19.62, 32 23.66, 29.79 26.47 C27.58 29.28, 22.95 31.89, 19.69 32.86 C16.43 33.82, 13.32 33.72, 10.22 32.27 C7.12 30.81, 2.77 27.43, 1.07 24.13 C-0.62 20.84, -1.07 16.05, 0.05 12.5 C1.16 8.95, 4.39 4.83, 7.75 2.83 C11.11 0.82, 17.61 0.64, 20.21 0.46 C22.81 0.28, 23.24 1.48, 23.35 1.75 M21.89 0.37 C24.8 1.72, 29.8 7.35, 31.32 10.76 C32.84 14.17, 31.87 17.68, 31.01 20.84 C30.15 24, 28.84 27.84, 26.15 29.72 C23.47 31.61, 18.29 32.58, 14.91 32.15 C11.52 31.73, 8.09 29.3, 5.84 27.2 C3.59 25.1, 1.95 22.89, 1.4 19.57 C0.84 16.25, 0.84 10.36, 2.5 7.26 C4.16 4.15, 7.78 1.94, 11.33 0.95 C14.87 -0.05, 21.64 1.03, 23.77 1.29 C25.89 1.56, 24.32 2.46, 24.09 2.53" stroke="#000000" stroke-width="1" fill="none"></path></g><g stroke-linecap="round"><g transform="translate(150.9274682810717 38.461430950407504) rotate(0 0.9594921486824433 45.74260861186772)"><path d="M0.95 -1.06 C1.35 14.02, 1.86 75.73, 1.93 91.23 M-0.01 1 C0.29 16.18, 1.07 77.13, 1.15 92.54" stroke="#000000" stroke-width="1" fill="none"></path></g></g><g stroke-linecap="round"><g transform="translate(144.2634343320551 153.98258158162284) rotate(0 -23.475357525357992 31.08791190597225)"><path d="M0.55 -0.88 C-7.1 9.29, -38.78 51.42, -46.44 61.94 M-0.61 1.28 C-8.4 11.5, -39.98 52.72, -47.5 63.05" stroke="#000000" stroke-width="1" fill="none"></path></g></g><g stroke-linecap="round"><g transform="translate(148.60970987045994 10.740171739462397) rotate(2.9023309982158905 2.1657591113496437 22.326974426100506)"><path d="M-0.55 -0.63 C0.05 6.96, 1.98 37.82, 2.52 45.29 M1.36 1.65 C2.45 8.92, 4.83 36.27, 4.88 43.54" stroke="#000000" stroke-width="4" fill="none"></path></g></g><g stroke-linecap="round"><g transform="translate(94.45731383701514 216.56219392438337) rotate(2.9023309982158905 -14.019242257720293 22.403483179672833)"><path d="M1.17 1 C-3.5 8.26, -24.46 37.4, -29.21 44.32 M0.33 0.48 C-3.88 7.36, -22.38 35.59, -27.05 42.76" stroke="#000000" stroke-width="4" fill="none"></path></g></g><g stroke-linecap="round"><g transform="translate(212.0364599248784 212.71960284226927) rotate(2.9023309982158905 19.339812334130784 21.39227915172569)"><path d="M-0.51 -1 C5.88 6.14, 32.46 36.38, 39.19 43.79 M1.43 1.09 C7.55 7.78, 31.77 34.63, 38.08 41.91" stroke="#000000" stroke-width="4" fill="none"></path></g></g><g stroke-linecap="round"><g transform="translate(167 157.63728021005218) rotate(0 22.5 25.5)"><path d="M0 0 C7.5 8.5, 37.5 42.5, 45 51 M0 0 C7.5 8.5, 37.5 42.5, 45 51" stroke="#000000" stroke-width="1" fill="none"></path></g></g></svg>