<?xml version="1.0" standalone="no"?>
<!DOCTYPE svg PUBLIC "-//W3C//DTD SVG 20010904//EN"
 "http://www.w3.org/TR/2001/REC-SVG-20010904/DTD/svg10.dtd">
<svg version="1.0" xmlns="http://www.w3.org/2000/svg"
 width="916.000000pt" height="916.000000pt" viewBox="0 0 916.000000 916.000000"
 preserveAspectRatio="xMidYMid meet">
<metadata>
Created by potrace 1.14, written by Peter Selinger 2001-2017
</metadata>
<g transform="translate(0.000000,916.000000) scale(0.100000,-0.100000)"
fill="#000000" stroke="none">
<path d="M4460 8911 c-8 -4 -73 -13 -145 -20 -162 -14 -227 -30 -239 -58 -8
-17 -22 -21 -80 -26 -243 -21 -634 -112 -896 -209 -718 -266 -1581 -931 -2087
-1608 -388 -519 -681 -1306 -743 -2000 -53 -599 107 -1536 370 -2161 257 -612
734 -1251 1232 -1651 369 -297 868 -562 1318 -702 120 -37 540 -143 670 -170
442 -89 993 -87 1475 4 302 57 772 208 1152 370 357 152 666 352 924 597 52
49 101 94 110 99 32 18 304 312 406 439 190 237 333 462 475 750 148 302 235
550 338 970 126 511 168 861 156 1295 -19 694 -167 1247 -473 1769 -238 405
-653 918 -994 1228 -340 310 -595 471 -1024 647 -122 50 -201 88 -221 107 -37
36 -54 41 -284 84 -345 64 -445 84 -608 120 -228 50 -484 92 -637 105 -71 5
-134 15 -139 20 -12 12 -35 12 -56 1z m420 -142 c307 -25 831 -124 1080 -204
255 -82 269 -87 309 -121 31 -27 41 -43 41 -65 0 -33 22 -48 45 -29 8 7 15 25
15 41 0 16 3 29 8 29 17 0 277 -148 392 -224 402 -265 781 -598 1053 -924 253
-305 499 -684 658 -1017 171 -359 252 -633 305 -1030 21 -157 29 -613 15 -820
-46 -666 -153 -1104 -403 -1649 -183 -400 -458 -818 -776 -1178 -62 -70 -78
-84 -83 -69 -11 28 -576 730 -1049 1302 -30 37 -66 72 -80 79 -14 6 -329 357
-700 778 -371 421 -681 767 -687 770 -7 2 -13 -1 -13 -8 0 -6 304 -356 676
-777 644 -730 674 -766 658 -784 -10 -11 -14 -27 -10 -41 3 -13 255 -335 561
-717 305 -381 555 -697 555 -702 0 -24 -285 -245 -480 -371 -218 -142 -506
-294 -745 -393 -245 -102 -679 -212 -1040 -264 -573 -83 -1351 -36 -1782 108
-369 123 -845 362 -1208 604 -114 77 -295 206 -295 211 0 1 13 1 29 -2 20 -3
35 2 49 16 11 11 29 23 41 27 11 3 115 137 240 308 120 166 323 435 450 597
126 162 238 310 248 328 16 29 16 35 3 59 -14 24 -13 29 3 47 9 12 180 239
380 506 199 267 488 650 641 851 l280 365 75 -43 c105 -60 162 -77 251 -77 86
1 163 21 267 70 89 43 165 123 219 232 34 68 39 87 42 167 3 75 0 108 -22 190
-39 147 -59 181 -144 240 -39 27 -72 56 -72 63 0 7 -12 17 -27 22 -16 6 -36
15 -45 20 -10 6 -58 10 -108 10 l-90 0 0 85 c0 47 -5 534 -11 1081 l-10 995
27 21 27 22 -6 385 c-6 362 -18 663 -32 827 l-6 71 78 -4 c43 -2 134 -8 203
-14z m-450 -36 c0 -284 24 -1272 31 -1286 6 -10 23 -20 38 -23 l28 -6 7 -216
c3 -120 8 -478 11 -797 3 -319 8 -698 11 -841 l6 -261 -84 -13 c-159 -23 -225
-73 -313 -238 -75 -141 -92 -245 -60 -380 18 -76 35 -110 90 -183 l43 -56
-485 -644 c-267 -354 -564 -749 -660 -877 -167 -221 -177 -232 -209 -232 -28
0 -38 -7 -65 -47 -140 -204 -480 -663 -688 -928 -228 -289 -252 -323 -249
-352 2 -18 2 -33 0 -33 -16 0 -251 212 -365 329 -275 283 -485 581 -676 959
-254 504 -400 977 -467 1510 -21 173 -30 642 -15 825 44 528 196 1077 423
1532 189 378 374 632 687 946 252 251 459 420 764 623 367 243 668 387 1047
499 152 46 814 217 836 217 6 0 14 -9 17 -20 7 -28 36 -25 47 4 10 27 24 29
188 34 l62 2 0 -47z m-2180 -7750 c0 -5 -12 2 -82 49 -32 21 -58 41 -58 43 0
3 32 -16 70 -41 39 -26 70 -49 70 -51z m65 -38 l20 -16 -20 10 c-11 5 -29 17
-40 26 l-20 16 20 -10 c11 -5 29 -17 40 -26z m65 -41 c0 -2 -9 0 -20 6 -11 6
-20 13 -20 16 0 2 9 0 20 -6 11 -6 20 -13 20 -16z"/>
</g>
</svg>
