<svg xmlns="http://www.w3.org/2000/svg" width="1112" height="1112" viewBox="0 0 556 556"><path fill="#fff" d="M0 0h556v556H0z"/><path fill="none" stroke="#1e1e1e" stroke-linecap="round" stroke-width="2" d="M326.56 15.12c20.09-.92 41.22 9.05 60 17.18 18.78 8.12 36.23 19.01 52.69 31.58s32.68 27.73 46.08 43.85c13.39 16.11 25.35 34.4 34.27 52.84s14.91 37.78 19.26 57.81c4.36 20.04 6.94 41.89 6.87 62.41-.06 20.52-2.43 40.72-7.26 60.7s-12.2 40.86-21.71 59.19-21.91 35.19-35.36 50.8c-13.45 15.62-28.59 30.54-45.35 42.89-16.77 12.35-36.22 23.36-55.25 31.2-19.02 7.84-38.65 12.65-58.92 15.85-20.27 3.19-42.03 4.69-62.71 3.3-20.68-1.4-41.79-5.72-61.35-11.68s-38.3-13.63-56.01-24.08c-17.72-10.46-35.54-24.22-50.29-38.66-14.74-14.44-27.13-30.91-38.18-48-11.06-17.1-21.3-35.36-28.13-54.57-6.84-19.21-10.81-40.13-12.88-60.68-2.07-20.54-2.03-42.07.46-62.58 2.5-20.51 7.49-41.32 14.51-60.47 7.01-19.15 16.01-37.27 27.59-54.43 11.59-17.15 26.69-34.31 41.91-48.5s31.52-26.42 49.41-36.63c17.9-10.21 38.09-18.82 57.97-24.63s39.7-9.61 61.33-10.21 56.1 4.41 68.44 6.61 6.43 2.24 5.58 6.58m-18.01-8.77c20.04-1.41 41.13 7.96 60.03 15.75s36.65 18.94 53.35 31.01c16.71 12.06 33.41 25.87 46.86 41.38 13.46 15.52 24.36 33 33.87 51.7s18.31 40.4 23.2 60.52c4.9 20.11 5.9 40.01 6.18 60.17.29 20.17.04 40.62-4.47 60.82-4.51 20.19-13.55 41.87-22.6 60.37-9.05 18.49-18.92 34.82-31.7 50.59s-28.43 31.36-44.98 44.02c-16.55 12.67-35.2 23.23-54.33 31.97-19.12 8.75-40.23 16.52-60.41 20.51-20.19 3.99-40.34 4.66-60.69 3.42-20.35-1.23-41.73-5.16-61.39-10.82s-38.46-12.98-56.57-23.13c-18.1-10.15-36.96-23.56-52.06-37.79-15.1-14.22-27.05-30.52-38.54-47.56-11.48-17.03-22.85-35.74-30.38-54.66-7.53-18.91-12.39-38.46-14.78-58.83s-1.92-42.79.43-63.36 6.93-40.67 13.69-60.06c6.75-19.4 15.85-38.92 26.85-56.32s24.25-33.76 39.17-48.07c14.91-14.3 32.85-27.24 50.34-37.77 17.48-10.54 35.21-19.28 54.57-25.43 19.36-6.16 40.71-10.11 61.58-11.51 20.86-1.41 53.2 1.71 63.6 3.08 10.4 1.38-.48.6-1.21 5.17"/><path fill="#1e1e1e" d="m68.684 102.98 3.39-.16q3.4-.17 7.97-.46 4.57-.3 9.44-.65 4.87-.36 10.04 0t10.45-.54 10.2-1.95q4.91-1.05 10.06-1.22 5.15-.16 9.7-.28 4.55-.11 8.92-.22 4.38-.1 9.38-.18 4.99-.07 12.06.57 7.07.63 13.05 1.47 5.99.83 10.88 1.31 4.9.48 9.5.59 4.59.11 9.22.07 4.63-.03 9.19-.07 4.56-.03 8.99-.07 4.44-.03 8.72-.09 4.28-.05 9.9.28 5.61.33 10.62.32 5.01 0 11.05.38 6.03.38 11.35.66t9.64.75q4.33.47 9.48.5t10.16.01q5.02-.02 10.04-.03l10.58-.02h10.05q4.48.01 10.2.01 5.73.01 12.49.34 6.76.34 11.77.45 5 .11 9.9.09l10.39-.02q5.49 0 10.4.01t10.85-.26 10.59-.36 9.88-.15 9.5-.08l8.55-.04q4.28-.02 9.42-.47 5.13-.45 10.23-.46 5.09-.02 10.48-.06 5.4-.03 7.85.37t4.64 1.57q2.2 1.16 3.9 2.96 1.71 1.81 2.75 4.06 1.05 2.24 1.32 4.71.26 2.47-.27 4.9-.53 2.42-1.81 4.55-1.29 2.13-3.18 3.73-1.89 1.61-4.2 2.53-2.3.92-4.78 1.05-2.48.14-4.88-.53-2.39-.66-4.44-2.06-2.06-1.39-3.56-3.37-1.5-1.97-2.3-4.33-.79-2.35-.79-4.83 0-2.49.8-4.84.79-2.34 2.29-4.32t3.56-3.37 4.45-2.06q2.39-.66 4.87-.53 2.48.14 4.79 1.06 2.3.92 4.2 2.53 1.89 1.6 3.17 3.73t1.81 4.55.26 4.89q-.26 2.47-1.31 4.72-1.04 2.26-2.75 4.06t-3.9 2.96q-2.2 1.16-4.65 1.57-2.45.4-2.44.4l-4.64-.03q-4.64-.03-9.38-1.43-4.75-1.4-10.99.34t-10.52 1.72q-4.28-.01-8.55-.03-4.27-.03-8.71-.07-4.45-.04-9.13 0-4.68.05-9.48.43-4.79.39-10.17.41-5.37.02-9.83.02-4.45.01-9.5-.01t-9.75-.08q-4.69-.06-10.09-.41-5.4-.34-11.3-.3t-11.09.04q-5.19-.01-9.66-.01h-9.85q-5.39-.01-10.57-.01-5.18-.01-9.86-.05-4.69-.03-9.98-.16t-11.58-.84q-6.3-.7-11.2-1.12t-9.27-.45q-4.38-.03-9.37-.17-4.99-.15-9.58-.48-4.59-.34-8.87-.39t-8.72-.09q-4.43-.03-9-.07-4.56-.04-9.25-.09-4.69-.04-10.91-.37-6.23-.32-11.29-.78t-10.53-1.09q-5.47-.64-11.2-1.23-5.72-.58-10.71-.65-5-.08-9.37-.19-4.38-.1-8.91-.21-4.52-.11-9.13-.31-4.6-.19-10.84.45-6.25.63-11.2.77-4.96.14-9.7-.57-4.73-.71-9.6-1.07-4.87-.35-9.44-.65-4.57-.29-7.97-.46-3.39-.16-4.63-.31t-2.41-.6q-1.18-.44-2.21-1.15t-1.86-1.65-1.41-2.05q-.59-1.11-.89-2.33-.3-1.21-.3-2.46t.3-2.47q.3-1.21.89-2.32.58-1.11 1.41-2.05t1.86-1.65 2.21-1.16q1.17-.44 2.41-.59z"/><path fill="#1e1e1e" d="m280.071 122.883.9 2.41q.89 2.39 2.35 6.93 1.47 4.53 2.17 8.74.71 4.2 1.12 8.66t.68 8.87q.28 4.41.51 9.21.24 4.81.43 9.77.19 4.97.33 9.71t.24 9.68l.19 9.39q.1 4.45.56 9.48.46 5.04.95 10.17.49 5.14.54 10.1.05 4.97.44 11.19.38 6.23.42 11.18l.06 10.07q.03 5.11.07 10.35t.06 10.18.05 9.9q.04 4.95.05 9.68.01 4.74.01 9.17-.01 4.43.4 9.98.4 5.56.42 10.04.02 4.49 0 9.29-.01 4.8 0 9.71.01 4.9.04 9.68.02 4.79.05 10.02.02 5.24 0 9.96t-.03 9.23q-.02 4.51.01 8.91.02 4.4.05 8.85t.06 9.29q.03 4.85.04 9.72l.02 9.47q.02 4.61.02 9.4t.02 9.34q.02 4.56.05 9.53.02 4.98.41 9.67t.45 9.2q.05 4.51.06 8.97.01 4.45-.54 8.99-.56 4.54-1.09 9.15-.52 4.61-.12 8.09t.65 5.99q.26 2.51-.31 4.97-.56 2.45-1.88 4.61-1.31 2.15-3.25 3.76-1.94 1.62-4.29 2.54-2.35.91-4.87 1.03-2.52.11-4.94-.58-2.43-.7-4.49-2.13-2.08-1.43-3.59-3.45t-2.3-4.42q-.78-2.4-.76-4.92t.85-4.91q.82-2.38 2.36-4.38 1.55-1.99 3.65-3.39 2.09-1.4 4.52-2.05 2.44-.66 4.96-.5 2.51.16 4.85 1.11 2.33.95 4.24 2.6t3.19 3.82q1.29 2.18 1.81 4.64.52 2.47.23 4.98-.3 2.5-1.38 4.78-1.07 2.28-2.82 4.1t-3.99 2.98-4.73 1.55q-2.5.39-4.98-.04-2.49-.43-4.71-1.63-2.2-1.2-3.92-3.05-1.72-1.84-2.76-4.14l-1.04-2.3-.88-3.6q-.87-3.61-.8-7.96.07-4.34.58-9.65.52-5.3.95-10.26.42-4.95 1.21-9.24.79-4.3-.36-12.12-1.15-7.83-1.13-12.81.03-4.97.05-9.53.02-4.55.02-9.34t.02-9.4l.02-9.47q.01-4.87.04-9.72.03-4.84.06-9.29t.05-8.85q.03-4.4.01-8.91-.01-4.51-.03-9.23t0-9.96q.03-5.23.05-10.02.03-4.78.04-9.68t-.01-9.68q-.02-4.79-.02-9.33t-.39-11.43q-.38-6.89-.39-11.25 0-4.36.02-9.77l.06-10.65q.03-5.23.05-10.39t.07-10.12q.04-4.95.04-9.79t-.05-9.09q-.04-4.25-.38-9.26-.33-5-.11-10.33.23-5.34-.3-9.93-.53-4.58-.86-9.7t-.21-10.53q.12-5.42.22-10.41.1-5 .27-10.13t.34-9.6q.18-4.47.43-9.32.25-4.86.53-9.22.27-4.37.25-9.25t-.14-9.54q-.13-4.67-.64-7.18-.51-2.52-.7-3.7t-.09-2.36q.1-1.2.49-2.33.38-1.13 1.02-2.14.65-1.01 1.51-1.84.87-.83 1.91-1.42t2.19-.92 2.34-.38q1.19-.04 2.36.2 1.17.25 2.25.76 1.08.52 2.01 1.28.92.76 1.64 1.72.71.96 1.18 2.07z"/><path fill="#1e1e1e" d="m61.344 115.213 2.46-.17q2.46-.17 7.83-.22 5.37-.06 9.83.49 4.46.54 10.45.3 5.98-.24 10.66-.05 4.69.2 9.2.05 4.51-.16 9.02-.65t10.67-1.08q6.15-.6 11.74-1.01 5.58-.4 9.88-.8 4.29-.39 10.58-.58 6.29-.18 10.86-.24l9.09-.1q4.54-.05 11.25.22t13.16.68q6.44.41 11.69.81 5.24.4 11.38.81 6.14.4 11.55.88 5.4.48 11.36 1.17 5.96.7 12.43 1.52t10.85 1.24q4.38.41 8.96.73 4.57.33 8.84.48 4.26.15 9.03.22 4.78.07 10.88.49 6.1.43 10.84.51 4.73.09 12.07.11t13.75.12q6.41.11 13.46.24 7.04.14 14.89.3t13.01.12q5.16-.03 10.14-.07 4.97-.04 10.12-.12t10.92-.19q5.78-.12 12.23-.15 6.46-.02 11.12-.03 4.67-.01 10.56-.05 5.89-.05 10.58-.54t10.22-1.34q5.52-.85 10.08-.99 4.56-.15 9.06-.19t6.88.34q2.37.39 4.49 1.52 2.13 1.13 3.78 2.87 1.65 1.75 2.66 3.92 1.01 2.18 1.27 4.57t-.26 4.74q-.51 2.34-1.75 4.4t-3.07 3.62q-1.84 1.56-4.07 2.45t-4.63 1.02-4.72-.52q-2.32-.64-4.31-1.99-1.98-1.35-3.44-3.26-1.45-1.92-2.22-4.19-.77-2.28-.77-4.69 0-2.4.77-4.68t2.22-4.18q1.46-1.91 3.45-3.26t4.3-1.99q2.32-.65 4.72-.52t4.63 1.02q2.24.89 4.07 2.45t3.07 3.62q1.24 2.05 1.75 4.4.52 2.34.26 4.73t-1.27 4.57q-1.01 2.19-2.66 3.93-1.66 1.75-3.78 2.87-2.12 1.13-4.5 1.52l-2.37.38-5.81-.04q-5.81-.04-10.76.11-4.96.16-9.21.66-4.25.49-8.51.8t-10.15.26q-5.89-.04-10.56-.05-4.66-.01-11.12-.03-6.45-.02-12.23-.14-5.77-.12-10.92-.2t-10.12-.12q-4.98-.03-10.14-.07-5.16-.03-13.01.13-7.85.15-14.89.29-7.05.13-13.46.24-6.41.1-13.88.1-7.48-.01-12.55-.05-5.08-.03-12.73-.3-7.66-.26-13.34-.26-5.68-.01-11.46-.4t-10.51-.82q-4.72-.44-11.12-1.14-6.39-.71-11.63-1.43t-9.6-1.05q-4.36-.34-9.06-1.06t-10.91-1.13q-6.22-.41-11.84-.82-5.62-.4-11.77-.77t-11.01-.4-9.45-.08q-4.6-.05-9.74-.09t-9.87.03-9.69.45q-4.97.38-10.22.63-5.25.26-9.87.52t-9.89.48q-5.27.23-10.14.01-4.88-.21-9.26-.78-4.38-.58-8.79-.78-4.41-.19-10.7-1.37-6.3-1.18-11.33-1.98-5.03-.81-7.49-.98t-3.7-.32-2.41-.6q-1.17-.44-2.21-1.15-1.03-.72-1.86-1.65-.83-.94-1.41-2.05t-.88-2.33q-.3-1.21-.3-2.46t.3-2.46q.3-1.22.88-2.33t1.41-2.05q.83-.93 1.87-1.65 1.03-.71 2.2-1.15 1.17-.45 2.41-.6z"/><path fill="#1e1e1e" d="m293.927 139.704.88 3.12q.88 3.13 2.27 8.2 1.38 5.06 1.78 9.93.39 4.87.74 10.17.35 5.29.56 9.54.22 4.26.84 9.49.63 5.24.81 9.73.18 4.5.27 9.53.08 5.03.19 9.33.11 4.31.19 8.75.07 4.44.13 9.63.06 5.2.37 9.6.3 4.41.34 9.32.05 4.92 0 10.48-.04 5.55-.05 10.2 0 4.64.04 9.59.05 4.96.08 10.42.02 5.47.03 11.39.01 5.93.04 10.85.04 4.92.02 11.11-.02 6.18.02 10.64.04 4.45-.04 10.06-.08 5.6-.05 9.92.04 4.31.09 10.18t.06 10.65l.04 9.6q.02 4.81-.01 9.49-.03 4.69-.03 10.17.01 5.48 0 11.27 0 5.79-.02 10.2-.02 4.4.14 8.95.16 4.54.33 9 .17 4.45.26 8.82t.53 9.52.5 9.91q.06 4.75.48 9.89.43 5.13.63 9.74.21 4.61.76 9.7.55 5.1.8 9.85.26 4.76-1.25 11.22-1.51 6.45-4.33 10.15-2.81 3.69-1.59 1.97 1.23-1.71.75.63t-1.69 4.4q-1.2 2.07-3 3.64t-4.01 2.49q-2.21.91-4.6 1.07-2.38.16-4.68-.44-2.31-.61-4.31-1.93-2-1.31-3.47-3.19-1.47-1.89-2.26-4.14-.8-2.26-.83-4.65t.7-4.66q.73-2.28 2.15-4.2t3.38-3.29 4.26-2.04q2.28-.67 4.67-.57t4.62.95q2.23.86 4.07 2.38 1.85 1.52 3.11 3.55t1.8 4.36q.55 2.33.32 4.71t-1.2 4.56-2.59 3.94-3.72 2.91q-2.1 1.14-4.45 1.56t-4.72.06q-2.35-.35-4.48-1.44t-3.79-2.81q-1.67-1.71-2.7-3.86-1.03-2.16-1.32-4.53-.29-2.38-.29-2.37l3.12-6.31q3.12-6.32 3.44-11.1t-.27-10.18q-.58-5.39-1.55-13.17-.96-7.77-1.24-13.29-.27-5.53-.23-10.4t-.31-10.22q-.34-5.35-.46-10.24t-.43-10.69q-.3-5.81-.32-10.21-.02-4.41-.03-10.2v-11.27q.01-5.48-.02-10.17-.04-4.68-.02-9.49l.04-9.6q.02-4.78.07-10.65t.08-10.18q.04-4.32-.04-9.92-.08-5.61-.04-10.06.04-4.46.02-10.64-.02-6.19.01-11.11t.04-10.85q.01-5.92.04-11.39.03-5.46.07-10.41.05-4.95.04-9.58t-.08-10.11q-.06-5.48-.14-9.89-.08-4.4-.44-9.4-.37-5-.31-10.21.06-5.2.14-9.64t.18-8.75q.11-4.3.17-8.65.07-4.35.23-8.7.16-4.34-.06-8.87-.21-4.53.02-9.34.22-4.81.55-9.98t.63-9.5q.3-4.32 0-8.75t-.82-7.63q-.53-3.2-.65-4.43-.12-1.21.05-2.43.18-1.21.64-2.35t1.18-2.13q.73-1 1.66-1.79.94-.79 2.04-1.34 1.1-.54 2.3-.81t2.42-.24q1.23.03 2.41.35 1.19.32 2.26.92 1.08.59 1.98 1.43t1.57 1.86q.67 1.03 1.08 2.19t.41 1.15"/><path fill="#1e1e1e" d="m50.974 126.809 3.88.11q3.87.11 10.23.04 6.35-.07 10.98-.29t11.3-.23q6.66-.01 12.09.05 5.43.05 9.93-.07 4.49-.12 8.85.28 4.35.39 10.48.54 6.14.15 12.38.02 6.24-.12 11.35-.26 5.11-.15 10.16-.27 5.06-.11 9.67.13t10.89.92q6.29.69 11.82 1.12 5.54.43 10.17.44t10.04.3 11.63.54 12.11.82q5.88.56 12.1 1.37 6.22.8 10.78 1.3 4.57.5 10.36.64t11.22 0q5.42-.14 10.06-.23t8.95-.18 10.27-.11q5.96-.01 11.01-.06 5.06-.04 9.61.26t11.44-.45 15.17-.76q8.27-.01 12.63-.26 4.35-.24 10.34-.54t11.58-.67 10.44-.61q4.85-.25 9.54-.33 4.69-.09 11.41 0 6.73.09 11.69.38 4.97.28 9.48.28 4.5.01 10.78.22 6.27.22 11.42.59t10.23.3 10.5-.16q5.41-.09 10.19-.16 4.78-.08 6.86-.1t4.43.36q2.35.39 4.45 1.5 2.1 1.12 3.74 2.84 1.63 1.72 2.63 3.88t1.26 4.53q.26 2.36-.25 4.69-.52 2.32-1.74 4.36-1.23 2.04-3.04 3.58-1.82 1.54-4.03 2.42t-4.59 1.01q-2.37.13-4.67-.51-2.29-.63-4.26-1.97t-3.41-3.23q-1.44-1.9-2.2-4.15-.76-2.26-.76-4.64t.76-4.63q.76-2.26 2.2-4.15t3.41-3.22q1.97-1.34 4.27-1.97 2.29-.64 4.67-.51 2.37.13 4.58 1.01 2.22.88 4.03 2.42 1.81 1.55 3.04 3.57 1.23 2.04 1.74 4.37.51 2.32.25 4.69t-1.26 4.52q-1 2.16-2.64 3.89-1.63 1.73-3.74 2.84-2.1 1.12-4.45 1.5-2.35.39-2.34.39l-4.14-.07q-4.15-.07-9.5-.13-5.34-.07-10.31-.17-4.96-.1-9.91-.22-4.94-.11-9.97-.81-5.03-.71-9.49-.98-4.45-.28-9.42-.4-4.97-.11-9.37-.5t-11.12-.29q-6.72.09-11.36.01-4.63-.09-8.94-.2-4.31-.12-9.3.08-5 .21-10.69.93-5.7.72-10.92.74-5.22.03-13.91.55-8.68.53-13.88.92t-11.66.28q-6.45-.11-11.5-.15-5.05-.05-11.01-.06-5.96-.02-10.28-.11t-8.98-.18q-4.66-.1-10.37-.35-5.7-.25-12.38-.63t-11-.74-10.18-.47q-5.85-.11-11.29-.05-5.43.05-12.53.01-7.1-.03-13.99-.26t-11.6-.54q-4.7-.32-9.2-.76t-9.3-.95-9.35-1.08q-4.56-.58-9.62-.7-5.06-.11-10.19-.26-5.14-.16-10.04-.27-4.9-.12-9.23-.34t-11.85-.69-12.09-.65q-4.57-.17-11.3-.39-6.73-.23-12.01-.72-5.27-.49-9.98-.76-4.7-.27-11.6-.63-6.91-.35-10.77-.71-3.85-.36-5.11-.59t-2.43-.76-2.18-1.32-1.8-1.8-1.32-2.18-.76-2.43-.15-2.53q.08-1.29.46-2.51.38-1.23 1.04-2.32.67-1.1 1.57-2.01.91-.91 2.01-1.57t2.32-1.04q1.23-.39 2.51-.46z"/><path fill="#1e1e1e" d="m272.626 151.7.18 3.28q.17 3.28.47 7.74.29 4.46.68 9.35.39 4.88.73 9.97t.59 9.93q.24 4.83.45 10.36.22 5.53.37 11.21.15 5.69-.09 12.04-.23 6.35-.22 10.67.01 4.31.06 9.15.04 4.83.06 11.08.01 6.24.04 11.99.02 5.75-.04 11.49t-.06 10.41q0 4.68.08 9.64.08 4.97.36 10.04.28 5.06.3 10.85.02 5.78-.23 10.94-.25 5.15-.38 9.78-.13 4.62-.1 8.98t.04 10.69q.01 6.34.01 10.69 0 4.36.49 10.72.49 6.37.91 11.73.43 5.35.64 10.86.2 5.51.29 10.81.09 5.29.13 10.3t0 10.2q-.05 5.19-.05 9.59 0 4.41 1.24 10.39 1.23 5.98 1.77 11.79t1.14 11.41q.59 5.59 1.25 11.69.65 6.1.7 11.73t1.14 11.14q1.1 5.52 1.78 10.58.68 5.05.69 9.66l.03 7q.02 2.39-.37 4.74-.38 2.35-1.5 4.45-1.11 2.1-2.84 3.74t-3.89 2.64-4.52 1.25q-2.37.26-4.69-.25-2.33-.51-4.37-1.74t-3.57-3.04q-1.54-1.81-2.42-4.02-.88-2.22-1.01-4.59-.13-2.38.51-4.67.63-2.29 1.97-4.26 1.32-1.97 3.22-3.41 1.89-1.45 4.15-2.21 2.25-.76 4.63-.76t4.64.76 4.15 2.2q1.89 1.45 3.23 3.42 1.34 1.96 1.97 4.26.64 2.29.51 4.67-.13 2.37-1.01 4.59-.88 2.21-2.42 4.02t-3.58 3.04-4.37 1.74q-2.32.51-4.69.25-2.36-.25-4.52-1.25t-3.89-2.64q-1.72-1.64-2.83-3.74-1.12-2.1-1.5-4.45l-.39-2.35 1.84-5.45q1.84-5.45-.8-12.27t-3.33-11.99-.82-11.36q-.13-6.18-.94-12.21-.81-6.04-1.17-11.55-.35-5.51-.83-10.68-.47-5.17-1.71-11.43-1.24-6.27-1.24-10.75 0-4.49-.04-11.62t.01-11.38.01-9.99q-.05-5.74-.5-11.15-.46-5.41-.93-10.16-.47-4.74-.75-10.19-.29-5.45-.28-9.81v-8.88q0-4.53.07-8.95t.15-8.89.38-11.43q.3-6.95.2-12.37-.11-5.41-.49-10.94-.39-5.53-.31-10.5t.08-9.65q0-4.67-.06-10.41t-.04-11.49q.03-5.75.04-12.01.02-6.25.09-11.2t.17-9.44q.11-4.48.57-10.53.46-6.06.61-11.75.15-5.68.37-11.21.21-5.53.45-10.36.25-4.84.59-9.93t.73-9.97q.39-4.89.68-9.35.3-4.46.47-7.74.18-3.28.32-4.5.15-1.23.59-2.39.44-1.15 1.14-2.17.71-1.02 1.63-1.84.93-.82 2.02-1.39 1.1-.58 2.3-.87 1.2-.3 2.43-.3t2.43.3q1.2.29 2.3.87 1.09.57 2.02 1.39.92.82 1.63 1.84.7 1.02 1.14 2.17.44 1.16.59 2.39z"/></svg>